<?xml version="1.0"?>
<svg xmlns="http://www.w3.org/2000/svg" version="1.1" width="3145.15209960938pt" height="1414.43432617188pt" viewBox="-1431.20100153525 -77.2171899471442 3145.15200307049 1414.43437989429" preserveAspectRatio="none" xmlns:xlink="http://www.w3.org/1999/xlink">
  <defs>
  </defs>
  <path d="M267.749969482422,661.124938964844 C267.749969482422,674.172668457031 251.128555297852,684.749938964844 230.625,684.749938964844 C210.121429443359,684.75 193.5,674.172729492188 193.5,661.125 C193.5,661.125 193.5,661.125 193.5,661.125 L193.5,661.125 C193.499969482422,648.077270507813 210.121398925781,637.5 230.624954223633,637.5 C251.128524780273,637.499938964844 267.749969482422,648.077209472656 267.749969482422,661.125 C267.749969482422,661.125 267.749969482422,661.125 267.749969482422,661.125 " stroke="none" fill="#83CC7C" fill-rule="evenodd" stroke-width="0" fill-opacity="1" />
  <text x="1.51618897914886" y="36.7967185974121" dx="0" dy="0" font-family="Arial" font-size="8.99999973177911pt" fill="#000000" style="text-anchor:start" transform="matrix(0.750000 0.000000 0.000000 0.750000 193.5 637.5)">UpdatedRegio</text>
  <text x="76.5681915283203" y="36.7967185974121" dx="0" dy="0" font-family="Arial" font-size="8.99999973177911pt" fill="#000000" style="text-anchor:start" transform="matrix(0.750000 0.000000 0.000000 0.750000 193.5 637.5)"> ...</text>
  <path d="M267.749969482422,661.124938964844 C267.749969482422,674.172668457031 251.128555297852,684.749938964844 230.625,684.749938964844 C210.121429443359,684.75 193.5,674.172729492188 193.5,661.125 C193.5,661.125 193.5,661.125 193.5,661.125 L193.5,661.125 C193.499969482422,648.077270507813 210.121398925781,637.5 230.624954223633,637.5 C251.128524780273,637.499938964844 267.749969482422,648.077209472656 267.749969482422,661.125 C267.749969482422,661.125 267.749969482422,661.125 267.749969482422,661.125 " stroke="none" fill="none" stroke-width="0.75" stroke-opacity="0" />
  <path d="M89.2499923706055,38.6249923706055 C89.2499847412109,51.6727180480957 72.6285629272461,62.2499923706055 52.1250114440918,62.2499961853027 C31.6214408874512,62.25 15.0000057220459,51.6727294921875 15,38.625 C15,38.625 15,38.625 15,38.625 L15,38.6250152587891 C14.9999799728394,25.5772914886475 31.6213989257813,15.0000085830688 52.1249656677246,15 C72.628532409668,14.9999895095825 89.2499771118164,25.5772552490234 89.2499923706055,38.625 C89.2499923706055,38.625 89.2499923706055,38.625 89.2499923706055,38.625 " stroke="none" fill="#70AECC" fill-rule="evenodd" stroke-width="0" fill-opacity="1" />
  <text x="4.17885589599609" y="36.7967185974121" dx="0" dy="0" font-family="Arial" font-size="8.99999973177911pt" fill="#000000" style="text-anchor:start" transform="matrix(0.750000 0.000000 0.000000 0.750000 15 15)">autogeneratio</text>
  <text x="74.9048614501953" y="36.7967185974121" dx="0" dy="0" font-family="Arial" font-size="8.99999973177911pt" fill="#000000" style="text-anchor:start" transform="matrix(0.750000 0.000000 0.000000 0.750000 15 15)"> ...</text>
  <path d="M89.2499923706055,38.6249923706055 C89.2499847412109,51.6727180480957 72.6285629272461,62.2499923706055 52.1250114440918,62.2499961853027 C31.6214408874512,62.25 15.0000057220459,51.6727294921875 15,38.625 C15,38.625 15,38.625 15,38.625 L15,38.6250152587891 C14.9999799728394,25.5772914886475 31.6213989257813,15.0000085830688 52.1249656677246,15 C72.628532409668,14.9999895095825 89.2499771118164,25.5772552490234 89.2499923706055,38.625 C89.2499923706055,38.625 89.2499923706055,38.625 89.2499923706055,38.625 " stroke="none" fill="none" stroke-width="0.75" stroke-opacity="0" />
  <path d="M89.2499923706055,1096.87487792969 C89.2499847412109,1109.92260742188 72.6285629272461,1120.49987792969 52.1250114440918,1120.49987792969 C31.6214408874512,1120.5 15.0000057220459,1109.92272949219 15,1096.875 C15,1096.875 15,1096.875 15,1096.875 L15,1096.875 C14.9999799728394,1083.82727050781 31.6213989257813,1073.25 52.1249656677246,1073.25 C72.628532409668,1073.24987792969 89.2499771118164,1083.8271484375 89.2499923706055,1096.875 C89.2499923706055,1096.875 89.2499923706055,1096.875 89.2499923706055,1096.875 " stroke="none" fill="#70AECC" fill-rule="evenodd" stroke-width="0" fill-opacity="1" />
  <text x="4.17885589599609" y="36.7967185974121" dx="0" dy="0" font-family="Arial" font-size="8.99999973177911pt" fill="#000000" style="text-anchor:start" transform="matrix(0.750000 0.000000 0.000000 0.750000 15 1073.25)">autogeneratio</text>
  <text x="74.9048614501953" y="36.7967185974121" dx="0" dy="0" font-family="Arial" font-size="8.99999973177911pt" fill="#000000" style="text-anchor:start" transform="matrix(0.750000 0.000000 0.000000 0.750000 15 1073.25)"> ...</text>
  <path d="M89.2499923706055,1096.87487792969 C89.2499847412109,1109.92260742188 72.6285629272461,1120.49987792969 52.1250114440918,1120.49987792969 C31.6214408874512,1120.5 15.0000057220459,1109.92272949219 15,1096.875 C15,1096.875 15,1096.875 15,1096.875 L15,1096.875 C14.9999799728394,1083.82727050781 31.6213989257813,1073.25 52.1249656677246,1073.25 C72.628532409668,1073.24987792969 89.2499771118164,1083.8271484375 89.2499923706055,1096.875 C89.2499923706055,1096.875 89.2499923706055,1096.875 89.2499923706055,1096.875 " stroke="none" fill="none" stroke-width="0.75" stroke-opacity="0" />
  <path d="M89.2499923706055,1159.12487792969 C89.2499847412109,1172.17260742188 72.6285629272461,1182.74987792969 52.1250114440918,1182.74987792969 C31.6214408874512,1182.75 15.0000057220459,1172.17272949219 15,1159.125 C15,1159.125 15,1159.125 15,1159.125 L15,1159.125 C14.9999799728394,1146.07727050781 31.6213989257813,1135.5 52.1249656677246,1135.5 C72.628532409668,1135.49987792969 89.2499771118164,1146.0771484375 89.2499923706055,1159.125 C89.2499923706055,1159.125 89.2499923706055,1159.125 89.2499923706055,1159.125 " stroke="none" fill="#70AECC" fill-rule="evenodd" stroke-width="0" fill-opacity="1" />
  <text x="4.17885589599609" y="36.7967185974121" dx="0" dy="0" font-family="Arial" font-size="8.99999973177911pt" fill="#000000" style="text-anchor:start" transform="matrix(0.750000 0.000000 0.000000 0.750000 15 1135.5)">autogeneratio</text>
  <text x="74.9048614501953" y="36.7967185974121" dx="0" dy="0" font-family="Arial" font-size="8.99999973177911pt" fill="#000000" style="text-anchor:start" transform="matrix(0.750000 0.000000 0.000000 0.750000 15 1135.5)"> ...</text>
  <path d="M89.2499923706055,1159.12487792969 C89.2499847412109,1172.17260742188 72.6285629272461,1182.74987792969 52.1250114440918,1182.74987792969 C31.6214408874512,1182.75 15.0000057220459,1172.17272949219 15,1159.125 C15,1159.125 15,1159.125 15,1159.125 L15,1159.125 C14.9999799728394,1146.07727050781 31.6213989257813,1135.5 52.1249656677246,1135.5 C72.628532409668,1135.49987792969 89.2499771118164,1146.0771484375 89.2499923706055,1159.125 C89.2499923706055,1159.125 89.2499923706055,1159.125 89.2499923706055,1159.125 " stroke="none" fill="none" stroke-width="0.75" stroke-opacity="0" />
  <path d="M89.2499923706055,1034.62487792969 C89.2499847412109,1047.67260742188 72.6285629272461,1058.24987792969 52.1250114440918,1058.24987792969 C31.6214408874512,1058.25 15.0000057220459,1047.67272949219 15,1034.625 C15,1034.625 15,1034.625 15,1034.625 L15,1034.625 C14.9999799728394,1021.57727050781 31.6213989257813,1011 52.1249656677246,1011 C72.628532409668,1010.99993896484 89.2499771118164,1021.57720947266 89.2499923706055,1034.625 C89.2499923706055,1034.625 89.2499923706055,1034.625 89.2499923706055,1034.625 " stroke="none" fill="#70AECC" fill-rule="evenodd" stroke-width="0" fill-opacity="1" />
  <text x="4.17885589599609" y="36.7967185974121" dx="0" dy="0" font-family="Arial" font-size="8.99999973177911pt" fill="#000000" style="text-anchor:start" transform="matrix(0.750000 0.000000 0.000000 0.750000 15 1011)">autogeneratio</text>
  <text x="74.9048614501953" y="36.7967185974121" dx="0" dy="0" font-family="Arial" font-size="8.99999973177911pt" fill="#000000" style="text-anchor:start" transform="matrix(0.750000 0.000000 0.000000 0.750000 15 1011)"> ...</text>
  <path d="M89.2499923706055,1034.62487792969 C89.2499847412109,1047.67260742188 72.6285629272461,1058.24987792969 52.1250114440918,1058.24987792969 C31.6214408874512,1058.25 15.0000057220459,1047.67272949219 15,1034.625 C15,1034.625 15,1034.625 15,1034.625 L15,1034.625 C14.9999799728394,1021.57727050781 31.6213989257813,1011 52.1249656677246,1011 C72.628532409668,1010.99993896484 89.2499771118164,1021.57720947266 89.2499923706055,1034.625 C89.2499923706055,1034.625 89.2499923706055,1034.625 89.2499923706055,1034.625 " stroke="none" fill="none" stroke-width="0.75" stroke-opacity="0" />
  <path d="M89.2499923706055,847.874938964844 C89.2499847412109,860.922668457031 72.6285629272461,871.499938964844 52.1250114440918,871.499938964844 C31.6214408874512,871.5 15.0000057220459,860.922729492188 15,847.875 C15,847.875 15,847.875 15,847.875 L15,847.875 C14.9999799728394,834.827270507813 31.6213989257813,824.25 52.1249656677246,824.25 C72.628532409668,824.249938964844 89.2499771118164,834.827209472656 89.2499923706055,847.875 C89.2499923706055,847.875 89.2499923706055,847.875 89.2499923706055,847.875 " stroke="none" fill="#70AECC" fill-rule="evenodd" stroke-width="0" fill-opacity="1" />
  <text x="4.17885589599609" y="36.7967185974121" dx="0" dy="0" font-family="Arial" font-size="8.99999973177911pt" fill="#000000" style="text-anchor:start" transform="matrix(0.750000 0.000000 0.000000 0.750000 15 824.25)">autogeneratio</text>
  <text x="74.9048614501953" y="36.7967185974121" dx="0" dy="0" font-family="Arial" font-size="8.99999973177911pt" fill="#000000" style="text-anchor:start" transform="matrix(0.750000 0.000000 0.000000 0.750000 15 824.25)"> ...</text>
  <path d="M89.2499923706055,847.874938964844 C89.2499847412109,860.922668457031 72.6285629272461,871.499938964844 52.1250114440918,871.499938964844 C31.6214408874512,871.5 15.0000057220459,860.922729492188 15,847.875 C15,847.875 15,847.875 15,847.875 L15,847.875 C14.9999799728394,834.827270507813 31.6213989257813,824.25 52.1249656677246,824.25 C72.628532409668,824.249938964844 89.2499771118164,834.827209472656 89.2499923706055,847.875 C89.2499923706055,847.875 89.2499923706055,847.875 89.2499923706055,847.875 " stroke="none" fill="none" stroke-width="0.75" stroke-opacity="0" />
  <path d="M89.2499923706055,972.374938964844 C89.2499847412109,985.422668457031 72.6285629272461,995.999938964844 52.1250114440918,995.999938964844 C31.6214408874512,996 15.0000057220459,985.422729492188 15,972.375 C15,972.375 15,972.375 15,972.375 L15,972.375 C14.9999799728394,959.327270507813 31.6213989257813,948.75 52.1249656677246,948.75 C72.628532409668,948.749938964844 89.2499771118164,959.327209472656 89.2499923706055,972.375 C89.2499923706055,972.375 89.2499923706055,972.375 89.2499923706055,972.375 " stroke="none" fill="#70AECC" fill-rule="evenodd" stroke-width="0" fill-opacity="1" />
  <text x="4.17885589599609" y="29.8967189788818" dx="0" dy="0" font-family="Arial" font-size="8.99999973177911pt" fill="#000000" style="text-anchor:start" transform="matrix(0.750000 0.000000 0.000000 0.750000 15 948.75)">autogeneratio</text>
  <text x="74.9048614501953" y="29.8967189788818" dx="0" dy="0" font-family="Arial" font-size="8.99999973177911pt" fill="#000000" style="text-anchor:start" transform="matrix(0.750000 0.000000 0.000000 0.750000 15 948.75)"> ...</text>
  <text x="40.8768539428711" y="43.6967163085938" dx="0" dy="0" font-family="Arial" font-size="8.99999973177911pt" fill="#000000" style="text-anchor:start" transform="matrix(0.750000 0.000000 0.000000 0.750000 15 948.75)">(2)</text>
  <path d="M89.2499923706055,972.374938964844 C89.2499847412109,985.422668457031 72.6285629272461,995.999938964844 52.1250114440918,995.999938964844 C31.6214408874512,996 15.0000057220459,985.422729492188 15,972.375 C15,972.375 15,972.375 15,972.375 L15,972.375 C14.9999799728394,959.327270507813 31.6213989257813,948.75 52.1249656677246,948.75 C72.628532409668,948.749938964844 89.2499771118164,959.327209472656 89.2499923706055,972.375 C89.2499923706055,972.375 89.2499923706055,972.375 89.2499923706055,972.375 " stroke="none" fill="none" stroke-width="0.75" stroke-opacity="0" />
  <path d="M89.2499923706055,910.124938964844 C89.2499847412109,923.172668457031 72.6285629272461,933.749938964844 52.1250114440918,933.749938964844 C31.6214408874512,933.75 15.0000057220459,923.172729492188 15,910.125 C15,910.125 15,910.125 15,910.125 L15,910.125 C14.9999799728394,897.077270507813 31.6213989257813,886.5 52.1249656677246,886.5 C72.628532409668,886.499938964844 89.2499771118164,897.077209472656 89.2499923706055,910.125 C89.2499923706055,910.125 89.2499923706055,910.125 89.2499923706055,910.125 " stroke="none" fill="#70AECC" fill-rule="evenodd" stroke-width="0" fill-opacity="1" />
  <text x="4.17885589599609" y="36.7967185974121" dx="0" dy="0" font-family="Arial" font-size="8.99999973177911pt" fill="#000000" style="text-anchor:start" transform="matrix(0.750000 0.000000 0.000000 0.750000 15 886.5)">autogeneratio</text>
  <text x="74.9048614501953" y="36.7967185974121" dx="0" dy="0" font-family="Arial" font-size="8.99999973177911pt" fill="#000000" style="text-anchor:start" transform="matrix(0.750000 0.000000 0.000000 0.750000 15 886.5)"> ...</text>
  <path d="M89.2499923706055,910.124938964844 C89.2499847412109,923.172668457031 72.6285629272461,933.749938964844 52.1250114440918,933.749938964844 C31.6214408874512,933.75 15.0000057220459,923.172729492188 15,910.125 C15,910.125 15,910.125 15,910.125 L15,910.125 C14.9999799728394,897.077270507813 31.6213989257813,886.5 52.1249656677246,886.5 C72.628532409668,886.499938964844 89.2499771118164,897.077209472656 89.2499923706055,910.125 C89.2499923706055,910.125 89.2499923706055,910.125 89.2499923706055,910.125 " stroke="none" fill="none" stroke-width="0.75" stroke-opacity="0" />
  <path d="M89.2499923706055,785.624938964844 C89.2499847412109,798.672668457031 72.6285629272461,809.249938964844 52.1250114440918,809.249938964844 C31.6214408874512,809.25 15.0000057220459,798.672729492188 15,785.625 C15,785.625 15,785.625 15,785.625 L15,785.625 C14.9999799728394,772.577270507813 31.6213989257813,762 52.1249656677246,762 C72.628532409668,761.999938964844 89.2499771118164,772.577209472656 89.2499923706055,785.625 C89.2499923706055,785.625 89.2499923706055,785.625 89.2499923706055,785.625 " stroke="none" fill="#70AECC" fill-rule="evenodd" stroke-width="0" fill-opacity="1" />
  <text x="4.17885589599609" y="36.7967185974121" dx="0" dy="0" font-family="Arial" font-size="8.99999973177911pt" fill="#000000" style="text-anchor:start" transform="matrix(0.750000 0.000000 0.000000 0.750000 15 762)">autogeneratio</text>
  <text x="74.9048614501953" y="36.7967185974121" dx="0" dy="0" font-family="Arial" font-size="8.99999973177911pt" fill="#000000" style="text-anchor:start" transform="matrix(0.750000 0.000000 0.000000 0.750000 15 762)"> ...</text>
  <path d="M89.2499923706055,785.624938964844 C89.2499847412109,798.672668457031 72.6285629272461,809.249938964844 52.1250114440918,809.249938964844 C31.6214408874512,809.25 15.0000057220459,798.672729492188 15,785.625 C15,785.625 15,785.625 15,785.625 L15,785.625 C14.9999799728394,772.577270507813 31.6213989257813,762 52.1249656677246,762 C72.628532409668,761.999938964844 89.2499771118164,772.577209472656 89.2499923706055,785.625 C89.2499923706055,785.625 89.2499923706055,785.625 89.2499923706055,785.625 " stroke="none" fill="none" stroke-width="0.75" stroke-opacity="0" />
  <path d="M89.2499923706055,723.374938964844 C89.2499847412109,736.422668457031 72.6285629272461,746.999938964844 52.1250114440918,746.999938964844 C31.6214408874512,747 15.0000057220459,736.422729492188 15,723.375 C15,723.375 15,723.375 15,723.375 L15,723.375 C14.9999799728394,710.327270507813 31.6213989257813,699.75 52.1249656677246,699.75 C72.628532409668,699.749938964844 89.2499771118164,710.327209472656 89.2499923706055,723.375 C89.2499923706055,723.375 89.2499923706055,723.375 89.2499923706055,723.375 " stroke="none" fill="#70AECC" fill-rule="evenodd" stroke-width="0" fill-opacity="1" />
  <text x="4.17885589599609" y="36.7967185974121" dx="0" dy="0" font-family="Arial" font-size="8.99999973177911pt" fill="#000000" style="text-anchor:start" transform="matrix(0.750000 0.000000 0.000000 0.750000 15 699.75)">autogeneratio</text>
  <text x="74.9048614501953" y="36.7967185974121" dx="0" dy="0" font-family="Arial" font-size="8.99999973177911pt" fill="#000000" style="text-anchor:start" transform="matrix(0.750000 0.000000 0.000000 0.750000 15 699.75)"> ...</text>
  <path d="M89.2499923706055,723.374938964844 C89.2499847412109,736.422668457031 72.6285629272461,746.999938964844 52.1250114440918,746.999938964844 C31.6214408874512,747 15.0000057220459,736.422729492188 15,723.375 C15,723.375 15,723.375 15,723.375 L15,723.375 C14.9999799728394,710.327270507813 31.6213989257813,699.75 52.1249656677246,699.75 C72.628532409668,699.749938964844 89.2499771118164,710.327209472656 89.2499923706055,723.375 C89.2499923706055,723.375 89.2499923706055,723.375 89.2499923706055,723.375 " stroke="none" fill="none" stroke-width="0.75" stroke-opacity="0" />
  <path d="M89.2499923706055,661.124938964844 C89.2499847412109,674.172668457031 72.6285629272461,684.749938964844 52.1250114440918,684.749938964844 C31.6214408874512,684.75 15.0000057220459,674.172729492188 15,661.125 C15,661.125 15,661.125 15,661.125 L15,661.125 C14.9999799728394,648.077270507813 31.6213989257813,637.5 52.1249656677246,637.5 C72.628532409668,637.499938964844 89.2499771118164,648.077209472656 89.2499923706055,661.125 C89.2499923706055,661.125 89.2499923706055,661.125 89.2499923706055,661.125 " stroke="none" fill="#70AECC" fill-rule="evenodd" stroke-width="0" fill-opacity="1" />
  <text x="4.17885589599609" y="36.7967185974121" dx="0" dy="0" font-family="Arial" font-size="8.99999973177911pt" fill="#000000" style="text-anchor:start" transform="matrix(0.750000 0.000000 0.000000 0.750000 15 637.5)">autogeneratio</text>
  <text x="74.9048614501953" y="36.7967185974121" dx="0" dy="0" font-family="Arial" font-size="8.99999973177911pt" fill="#000000" style="text-anchor:start" transform="matrix(0.750000 0.000000 0.000000 0.750000 15 637.5)"> ...</text>
  <path d="M89.2499923706055,661.124938964844 C89.2499847412109,674.172668457031 72.6285629272461,684.749938964844 52.1250114440918,684.749938964844 C31.6214408874512,684.75 15.0000057220459,674.172729492188 15,661.125 C15,661.125 15,661.125 15,661.125 L15,661.125 C14.9999799728394,648.077270507813 31.6213989257813,637.5 52.1249656677246,637.5 C72.628532409668,637.499938964844 89.2499771118164,648.077209472656 89.2499923706055,661.125 C89.2499923706055,661.125 89.2499923706055,661.125 89.2499923706055,661.125 " stroke="none" fill="none" stroke-width="0.75" stroke-opacity="0" />
  <path d="M89.2499923706055,598.874938964844 C89.2499847412109,611.922668457031 72.6285629272461,622.499938964844 52.1250114440918,622.499938964844 C31.6214408874512,622.5 15.0000057220459,611.922729492188 15,598.875 C15,598.875 15,598.875 15,598.875 L15,598.875 C14.9999799728394,585.827270507813 31.6213989257813,575.25 52.1249656677246,575.25 C72.628532409668,575.249938964844 89.2499771118164,585.827209472656 89.2499923706055,598.875 C89.2499923706055,598.875 89.2499923706055,598.875 89.2499923706055,598.875 " stroke="none" fill="#70AECC" fill-rule="evenodd" stroke-width="0" fill-opacity="1" />
  <text x="4.17885589599609" y="36.7967185974121" dx="0" dy="0" font-family="Arial" font-size="8.99999973177911pt" fill="#000000" style="text-anchor:start" transform="matrix(0.750000 0.000000 0.000000 0.750000 15 575.25)">autogeneratio</text>
  <text x="74.9048614501953" y="36.7967185974121" dx="0" dy="0" font-family="Arial" font-size="8.99999973177911pt" fill="#000000" style="text-anchor:start" transform="matrix(0.750000 0.000000 0.000000 0.750000 15 575.25)"> ...</text>
  <path d="M89.2499923706055,598.874938964844 C89.2499847412109,611.922668457031 72.6285629272461,622.499938964844 52.1250114440918,622.499938964844 C31.6214408874512,622.5 15.0000057220459,611.922729492188 15,598.875 C15,598.875 15,598.875 15,598.875 L15,598.875 C14.9999799728394,585.827270507813 31.6213989257813,575.25 52.1249656677246,575.25 C72.628532409668,575.249938964844 89.2499771118164,585.827209472656 89.2499923706055,598.875 C89.2499923706055,598.875 89.2499923706055,598.875 89.2499923706055,598.875 " stroke="none" fill="none" stroke-width="0.75" stroke-opacity="0" />
  <path d="M89.2499923706055,536.624938964844 C89.2499847412109,549.672668457031 72.6285629272461,560.249938964844 52.1250114440918,560.249938964844 C31.6214408874512,560.25 15.0000057220459,549.672729492188 15,536.625 C15,536.625 15,536.625 15,536.625 L15,536.625 C14.9999799728394,523.577270507813 31.6213989257813,513 52.1249656677246,513 C72.628532409668,512.999938964844 89.2499771118164,523.577209472656 89.2499923706055,536.625 C89.2499923706055,536.625 89.2499923706055,536.625 89.2499923706055,536.625 " stroke="none" fill="#70AECC" fill-rule="evenodd" stroke-width="0" fill-opacity="1" />
  <text x="4.17885589599609" y="36.7967185974121" dx="0" dy="0" font-family="Arial" font-size="8.99999973177911pt" fill="#000000" style="text-anchor:start" transform="matrix(0.750000 0.000000 0.000000 0.750000 15 513)">autogeneratio</text>
  <text x="74.9048614501953" y="36.7967185974121" dx="0" dy="0" font-family="Arial" font-size="8.99999973177911pt" fill="#000000" style="text-anchor:start" transform="matrix(0.750000 0.000000 0.000000 0.750000 15 513)"> ...</text>
  <path d="M89.2499923706055,536.624938964844 C89.2499847412109,549.672668457031 72.6285629272461,560.249938964844 52.1250114440918,560.249938964844 C31.6214408874512,560.25 15.0000057220459,549.672729492188 15,536.625 C15,536.625 15,536.625 15,536.625 L15,536.625 C14.9999799728394,523.577270507813 31.6213989257813,513 52.1249656677246,513 C72.628532409668,512.999938964844 89.2499771118164,523.577209472656 89.2499923706055,536.625 C89.2499923706055,536.625 89.2499923706055,536.625 89.2499923706055,536.625 " stroke="none" fill="none" stroke-width="0.75" stroke-opacity="0" />
  <path d="M89.2499923706055,474.374969482422 C89.2499847412109,487.422698974609 72.6285629272461,497.999969482422 52.1250114440918,497.999969482422 C31.6214408874512,498 15.0000057220459,487.422729492188 15,474.375 C15,474.375 15,474.375 15,474.375 L15,474.375 C14.9999799728394,461.327270507813 31.6213989257813,450.75 52.1249656677246,450.75 C72.628532409668,450.749969482422 89.2499771118164,461.327239990234 89.2499923706055,474.375 C89.2499923706055,474.375 89.2499923706055,474.375 89.2499923706055,474.375 " stroke="none" fill="#70AECC" fill-rule="evenodd" stroke-width="0" fill-opacity="1" />
  <text x="4.17885589599609" y="36.7967185974121" dx="0" dy="0" font-family="Arial" font-size="8.99999973177911pt" fill="#000000" style="text-anchor:start" transform="matrix(0.750000 0.000000 0.000000 0.750000 15 450.75)">autogeneratio</text>
  <text x="74.9048614501953" y="36.7967185974121" dx="0" dy="0" font-family="Arial" font-size="8.99999973177911pt" fill="#000000" style="text-anchor:start" transform="matrix(0.750000 0.000000 0.000000 0.750000 15 450.75)"> ...</text>
  <path d="M89.2499923706055,474.374969482422 C89.2499847412109,487.422698974609 72.6285629272461,497.999969482422 52.1250114440918,497.999969482422 C31.6214408874512,498 15.0000057220459,487.422729492188 15,474.375 C15,474.375 15,474.375 15,474.375 L15,474.375 C14.9999799728394,461.327270507813 31.6213989257813,450.75 52.1249656677246,450.75 C72.628532409668,450.749969482422 89.2499771118164,461.327239990234 89.2499923706055,474.375 C89.2499923706055,474.375 89.2499923706055,474.375 89.2499923706055,474.375 " stroke="none" fill="none" stroke-width="0.75" stroke-opacity="0" />
  <path d="M89.2499923706055,100.874992370605 C89.2499847412109,113.922714233398 72.6285629272461,124.499992370605 52.1250114440918,124.499992370605 C31.6214408874512,124.5 15.0000057220459,113.922729492188 15,100.875 C15,100.875 15,100.875 15,100.875 L15,100.875015258789 C14.9999799728394,87.8272857666016 31.6213989257813,77.2500076293945 52.1249656677246,77.25 C72.628532409668,77.2499847412109 89.2499771118164,87.8272552490234 89.2499923706055,100.875 C89.2499923706055,100.875 89.2499923706055,100.875 89.2499923706055,100.875 " stroke="none" fill="#70AECC" fill-rule="evenodd" stroke-width="0" fill-opacity="1" />
  <text x="2.17218899726868" y="36.7967185974121" dx="0" dy="0" font-family="Arial" font-size="8.99999973177911pt" fill="#000000" style="text-anchor:start" transform="matrix(0.750000 0.000000 0.000000 0.750000 15 77.25)">autogenerate_</text>
  <text x="76.9048614501953" y="36.7967185974121" dx="0" dy="0" font-family="Arial" font-size="8.99999973177911pt" fill="#000000" style="text-anchor:start" transform="matrix(0.750000 0.000000 0.000000 0.750000 15 77.25)"> ...</text>
  <path d="M89.2499923706055,100.874992370605 C89.2499847412109,113.922714233398 72.6285629272461,124.499992370605 52.1250114440918,124.499992370605 C31.6214408874512,124.5 15.0000057220459,113.922729492188 15,100.875 C15,100.875 15,100.875 15,100.875 L15,100.875015258789 C14.9999799728394,87.8272857666016 31.6213989257813,77.2500076293945 52.1249656677246,77.25 C72.628532409668,77.2499847412109 89.2499771118164,87.8272552490234 89.2499923706055,100.875 C89.2499923706055,100.875 89.2499923706055,100.875 89.2499923706055,100.875 " stroke="none" fill="none" stroke-width="0.75" stroke-opacity="0" />
  <path d="M89.2499923706055,412.124969482422 C89.2499847412109,425.172698974609 72.6285629272461,435.749969482422 52.1250114440918,435.749969482422 C31.6214408874512,435.75 15.0000057220459,425.172729492188 15,412.125 C15,412.125 15,412.125 15,412.125 L15,412.125 C14.9999799728394,399.077270507813 31.6213989257813,388.5 52.1249656677246,388.5 C72.628532409668,388.499969482422 89.2499771118164,399.077239990234 89.2499923706055,412.125 C89.2499923706055,412.125 89.2499923706055,412.125 89.2499923706055,412.125 " stroke="none" fill="#70AECC" fill-rule="evenodd" stroke-width="0" fill-opacity="1" />
  <text x="4.17885589599609" y="36.7967185974121" dx="0" dy="0" font-family="Arial" font-size="8.99999973177911pt" fill="#000000" style="text-anchor:start" transform="matrix(0.750000 0.000000 0.000000 0.750000 15 388.5)">autogeneratio</text>
  <text x="74.9048614501953" y="36.7967185974121" dx="0" dy="0" font-family="Arial" font-size="8.99999973177911pt" fill="#000000" style="text-anchor:start" transform="matrix(0.750000 0.000000 0.000000 0.750000 15 388.5)"> ...</text>
  <path d="M89.2499923706055,412.124969482422 C89.2499847412109,425.172698974609 72.6285629272461,435.749969482422 52.1250114440918,435.749969482422 C31.6214408874512,435.75 15.0000057220459,425.172729492188 15,412.125 C15,412.125 15,412.125 15,412.125 L15,412.125 C14.9999799728394,399.077270507813 31.6213989257813,388.5 52.1249656677246,388.5 C72.628532409668,388.499969482422 89.2499771118164,399.077239990234 89.2499923706055,412.125 C89.2499923706055,412.125 89.2499923706055,412.125 89.2499923706055,412.125 " stroke="none" fill="none" stroke-width="0.75" stroke-opacity="0" />
  <path d="M89.2499923706055,349.874969482422 C89.2499847412109,362.922698974609 72.6285629272461,373.499969482422 52.1250114440918,373.499969482422 C31.6214408874512,373.5 15.0000057220459,362.922729492188 15,349.875 C15,349.875 15,349.875 15,349.875 L15,349.875 C14.9999799728394,336.827270507813 31.6213989257813,326.25 52.1249656677246,326.25 C72.628532409668,326.249969482422 89.2499771118164,336.827239990234 89.2499923706055,349.875 C89.2499923706055,349.875 89.2499923706055,349.875 89.2499923706055,349.875 " stroke="none" fill="#70AECC" fill-rule="evenodd" stroke-width="0" fill-opacity="1" />
  <text x="4.17885589599609" y="36.7967185974121" dx="0" dy="0" font-family="Arial" font-size="8.99999973177911pt" fill="#000000" style="text-anchor:start" transform="matrix(0.750000 0.000000 0.000000 0.750000 15 326.25)">autogeneratio</text>
  <text x="74.9048614501953" y="36.7967185974121" dx="0" dy="0" font-family="Arial" font-size="8.99999973177911pt" fill="#000000" style="text-anchor:start" transform="matrix(0.750000 0.000000 0.000000 0.750000 15 326.25)"> ...</text>
  <path d="M89.2499923706055,349.874969482422 C89.2499847412109,362.922698974609 72.6285629272461,373.499969482422 52.1250114440918,373.499969482422 C31.6214408874512,373.5 15.0000057220459,362.922729492188 15,349.875 C15,349.875 15,349.875 15,349.875 L15,349.875 C14.9999799728394,336.827270507813 31.6213989257813,326.25 52.1249656677246,326.25 C72.628532409668,326.249969482422 89.2499771118164,336.827239990234 89.2499923706055,349.875 C89.2499923706055,349.875 89.2499923706055,349.875 89.2499923706055,349.875 " stroke="none" fill="none" stroke-width="0.75" stroke-opacity="0" />
  <path d="M89.2499923706055,287.624969482422 C89.2499847412109,300.672698974609 72.6285629272461,311.249969482422 52.1250114440918,311.249969482422 C31.6214408874512,311.25 15.0000057220459,300.672729492188 15,287.625 C15,287.625 15,287.625 15,287.625 L15,287.625 C14.9999799728394,274.577270507813 31.6213989257813,264 52.1249656677246,264 C72.628532409668,263.999969482422 89.2499771118164,274.577239990234 89.2499923706055,287.625 C89.2499923706055,287.625 89.2499923706055,287.625 89.2499923706055,287.625 " stroke="none" fill="#70AECC" fill-rule="evenodd" stroke-width="0" fill-opacity="1" />
  <text x="4.17885589599609" y="36.7967185974121" dx="0" dy="0" font-family="Arial" font-size="8.99999973177911pt" fill="#000000" style="text-anchor:start" transform="matrix(0.750000 0.000000 0.000000 0.750000 15 264)">autogeneratio</text>
  <text x="74.9048614501953" y="36.7967185974121" dx="0" dy="0" font-family="Arial" font-size="8.99999973177911pt" fill="#000000" style="text-anchor:start" transform="matrix(0.750000 0.000000 0.000000 0.750000 15 264)"> ...</text>
  <path d="M89.2499923706055,287.624969482422 C89.2499847412109,300.672698974609 72.6285629272461,311.249969482422 52.1250114440918,311.249969482422 C31.6214408874512,311.25 15.0000057220459,300.672729492188 15,287.625 C15,287.625 15,287.625 15,287.625 L15,287.625 C14.9999799728394,274.577270507813 31.6213989257813,264 52.1249656677246,264 C72.628532409668,263.999969482422 89.2499771118164,274.577239990234 89.2499923706055,287.625 C89.2499923706055,287.625 89.2499923706055,287.625 89.2499923706055,287.625 " stroke="none" fill="none" stroke-width="0.75" stroke-opacity="0" />
  <path d="M89.2499923706055,225.374984741211 C89.2499847412109,238.422714233398 72.6285629272461,248.999984741211 52.1250114440918,248.999984741211 C31.6214408874512,249 15.0000057220459,238.422729492188 15,225.375 C15,225.375 15,225.375 15,225.375 L15,225.375015258789 C14.9999799728394,212.327285766602 31.6213989257813,201.75 52.1249656677246,201.75 C72.628532409668,201.749984741211 89.2499771118164,212.327255249023 89.2499923706055,225.375 C89.2499923706055,225.375 89.2499923706055,225.375 89.2499923706055,225.375 " stroke="none" fill="#70AECC" fill-rule="evenodd" stroke-width="0" fill-opacity="1" />
  <text x="4.17885589599609" y="36.7967185974121" dx="0" dy="0" font-family="Arial" font-size="8.99999973177911pt" fill="#000000" style="text-anchor:start" transform="matrix(0.750000 0.000000 0.000000 0.750000 15 201.75)">autogeneratio</text>
  <text x="74.9048614501953" y="36.7967185974121" dx="0" dy="0" font-family="Arial" font-size="8.99999973177911pt" fill="#000000" style="text-anchor:start" transform="matrix(0.750000 0.000000 0.000000 0.750000 15 201.75)"> ...</text>
  <path d="M89.2499923706055,225.374984741211 C89.2499847412109,238.422714233398 72.6285629272461,248.999984741211 52.1250114440918,248.999984741211 C31.6214408874512,249 15.0000057220459,238.422729492188 15,225.375 C15,225.375 15,225.375 15,225.375 L15,225.375015258789 C14.9999799728394,212.327285766602 31.6213989257813,201.75 52.1249656677246,201.75 C72.628532409668,201.749984741211 89.2499771118164,212.327255249023 89.2499923706055,225.375 C89.2499923706055,225.375 89.2499923706055,225.375 89.2499923706055,225.375 " stroke="none" fill="none" stroke-width="0.75" stroke-opacity="0" />
  <path d="M89.2499923706055,163.124984741211 C89.2499847412109,176.172714233398 72.6285629272461,186.749984741211 52.1250114440918,186.749984741211 C31.6214408874512,186.75 15.0000057220459,176.172729492188 15,163.125 C15,163.125 15,163.125 15,163.125 L15,163.125015258789 C14.9999799728394,150.077285766602 31.6213989257813,139.5 52.1249656677246,139.5 C72.628532409668,139.499984741211 89.2499771118164,150.077255249023 89.2499923706055,163.125 C89.2499923706055,163.125 89.2499923706055,163.125 89.2499923706055,163.125 " stroke="none" fill="#70AECC" fill-rule="evenodd" stroke-width="0" fill-opacity="1" />
  <text x="4.17885589599609" y="36.7967185974121" dx="0" dy="0" font-family="Arial" font-size="8.99999973177911pt" fill="#000000" style="text-anchor:start" transform="matrix(0.750000 0.000000 0.000000 0.750000 15 139.5)">autogeneratio</text>
  <text x="74.9048614501953" y="36.7967185974121" dx="0" dy="0" font-family="Arial" font-size="8.99999973177911pt" fill="#000000" style="text-anchor:start" transform="matrix(0.750000 0.000000 0.000000 0.750000 15 139.5)"> ...</text>
  <path d="M89.2499923706055,163.124984741211 C89.2499847412109,176.172714233398 72.6285629272461,186.749984741211 52.1250114440918,186.749984741211 C31.6214408874512,186.75 15.0000057220459,176.172729492188 15,163.125 C15,163.125 15,163.125 15,163.125 L15,163.125015258789 C14.9999799728394,150.077285766602 31.6213989257813,139.5 52.1249656677246,139.5 C72.628532409668,139.499984741211 89.2499771118164,150.077255249023 89.2499923706055,163.125 C89.2499923706055,163.125 89.2499923706055,163.125 89.2499923706055,163.125 " stroke="none" fill="none" stroke-width="0.75" stroke-opacity="0" />
  <path d="M89.2499923706055,1221.37487792969 C89.2499847412109,1234.42260742188 72.6285629272461,1244.99987792969 52.1250114440918,1244.99987792969 C31.6214408874512,1245 15.0000057220459,1234.42272949219 15,1221.375 C15,1221.375 15,1221.375 15,1221.375 L15,1221.375 C14.9999799728394,1208.32727050781 31.6213989257813,1197.75 52.1249656677246,1197.75 C72.628532409668,1197.74987792969 89.2499771118164,1208.3271484375 89.2499923706055,1221.375 C89.2499923706055,1221.375 89.2499923706055,1221.375 89.2499923706055,1221.375 " stroke="none" fill="#70AECC" fill-rule="evenodd" stroke-width="0" fill-opacity="1" />
  <text x="1.51618897914886" y="29.8967189788818" dx="0" dy="0" font-family="Arial" font-size="8.99999973177911pt" fill="#000000" style="text-anchor:start" transform="matrix(0.750000 0.000000 0.000000 0.750000 15 1197.75)">UpdatedRegio</text>
  <text x="76.5681915283203" y="29.8967189788818" dx="0" dy="0" font-family="Arial" font-size="8.99999973177911pt" fill="#000000" style="text-anchor:start" transform="matrix(0.750000 0.000000 0.000000 0.750000 15 1197.75)"> ...</text>
  <text x="40.8768539428711" y="43.6967163085938" dx="0" dy="0" font-family="Arial" font-size="8.99999973177911pt" fill="#000000" style="text-anchor:start" transform="matrix(0.750000 0.000000 0.000000 0.750000 15 1197.75)">(2)</text>
  <path d="M89.2499923706055,1221.37487792969 C89.2499847412109,1234.42260742188 72.6285629272461,1244.99987792969 52.1250114440918,1244.99987792969 C31.6214408874512,1245 15.0000057220459,1234.42272949219 15,1221.375 C15,1221.375 15,1221.375 15,1221.375 L15,1221.375 C14.9999799728394,1208.32727050781 31.6213989257813,1197.75 52.1249656677246,1197.75 C72.628532409668,1197.74987792969 89.2499771118164,1208.3271484375 89.2499923706055,1221.375 C89.2499923706055,1221.375 89.2499923706055,1221.375 89.2499923706055,1221.375 " stroke="none" fill="none" stroke-width="0.75" stroke-opacity="0" />
  <path d="M112.753936767578,637.5 L169.996047973633,637.5 L169.996032714844,637.5 C174.692626953125,637.499938964844 178.499984741211,641.307312011719 178.499984741211,646.00390625 C178.499984741211,646.00390625 178.499984741211,646.00390625 178.499984741211,646.00390625 L178.5,646.00390625 L178.5,676.246032714844 L178.499984741211,676.246032714844 C178.499984741211,680.942626953125 174.692642211914,684.749938964844 169.996047973633,684.749938964844 L169.996047973633,684.75 L112.753936767578,684.75 L112.753936767578,684.749938964844 C108.057342529297,684.75 104.25,680.942626953125 104.25,676.246032714844 L104.25,646.00390625 L104.249992370605,646.00390625 C104.249992370605,641.307312011719 108.057327270508,637.5 112.753921508789,637.499938964844 " stroke="none" fill="#F2E279" fill-rule="evenodd" stroke-width="0" fill-opacity="1" />
  <text x="25.5195236206055" y="36.7967185974121" dx="0" dy="0" font-family="Arial" font-size="8.99999973177911pt" fill="#000000" style="text-anchor:start" transform="matrix(0.750000 0.000000 0.000000 0.750000 104.25 637.5)">Append</text>
  <path d="M112.753936767578,637.5 L169.996047973633,637.5 L169.996032714844,637.5 C174.692626953125,637.499938964844 178.499984741211,641.307312011719 178.499984741211,646.00390625 C178.499984741211,646.00390625 178.499984741211,646.00390625 178.499984741211,646.00390625 L178.5,646.00390625 L178.5,676.246032714844 L178.499984741211,676.246032714844 C178.499984741211,680.942626953125 174.692642211914,684.749938964844 169.996047973633,684.749938964844 L169.996047973633,684.75 L112.753936767578,684.75 L112.753936767578,684.749938964844 C108.057342529297,684.75 104.25,680.942626953125 104.25,676.246032714844 L104.25,646.00390625 L104.249992370605,646.00390625 C104.249992370605,641.307312011719 108.057327270508,637.5 112.753921508789,637.499938964844 " stroke="none" fill="none" stroke-width="0.75" stroke-opacity="0" />
  <path d="M102.085151672363,634.911193847656 L107.978630065918,634.911193847656 L107.978630065918,640.8046875 L102.085151672363,640.8046875  z" stroke="none" fill="#FFFFFF" fill-rule="evenodd" stroke-width="0" fill-opacity="1" />
  <path d="M102.085151672363,634.911193847656 L107.978630065918,634.911193847656 L107.978630065918,640.8046875 L102.085151672363,640.8046875  z" stroke="#000000" fill="none" stroke-width="1" stroke-opacity="1" />
  <path d="M174.771362304688,634.911193847656 L180.664840698242,634.911193847656 L180.664840698242,640.8046875 L174.771362304688,640.8046875  z" stroke="none" fill="#FFFFFF" fill-rule="evenodd" stroke-width="0" fill-opacity="1" />
  <path d="M174.771362304688,634.911193847656 L180.664840698242,634.911193847656 L180.664840698242,640.8046875 L174.771362304688,640.8046875  z" stroke="#000000" fill="none" stroke-width="1" stroke-opacity="1" />
  <path d="M174.771362304688,682.059020996094 L180.664840698242,682.059020996094 L180.664840698242,687.952514648438 L174.771362304688,687.952514648438  z" stroke="none" fill="#FFFFFF" fill-rule="evenodd" stroke-width="0" fill-opacity="1" />
  <path d="M174.771362304688,682.059020996094 L180.664840698242,682.059020996094 L180.664840698242,687.952514648438 L174.771362304688,687.952514648438  z" stroke="#000000" fill="none" stroke-width="1" stroke-opacity="1" />
  <path d="M102.085151672363,682.059020996094 L107.978630065918,682.059020996094 L107.978630065918,687.952514648438 L102.085151672363,687.952514648438  z" stroke="none" fill="#FFFFFF" fill-rule="evenodd" stroke-width="0" fill-opacity="1" />
  <path d="M102.085151672363,682.059020996094 L107.978630065918,682.059020996094 L107.978630065918,687.952514648438 L102.085151672363,687.952514648438  z" stroke="#000000" fill="none" stroke-width="1" stroke-opacity="1" />
  <path d="M139.410507202148,634.911193847656 L143.339492797852,634.911193847656 L143.339492797852,640.8046875 L139.410507202148,640.8046875  z" stroke="none" fill="#FFFFFF" fill-rule="evenodd" stroke-width="0" fill-opacity="1" />
  <path d="M139.410507202148,634.911193847656 L143.339492797852,634.911193847656 L143.339492797852,640.8046875 L139.410507202148,640.8046875  z" stroke="#000000" fill="none" stroke-width="1" stroke-opacity="1" />
  <path d="M174.771362304688,658.485107421875 L180.664840698242,658.485107421875 L180.664840698242,664.378601074219 L174.771362304688,664.378601074219  z" stroke="none" fill="#FFFFFF" fill-rule="evenodd" stroke-width="0" fill-opacity="1" />
  <path d="M174.771362304688,658.485107421875 L180.664840698242,658.485107421875 L180.664840698242,664.378601074219 L174.771362304688,664.378601074219  z" stroke="#000000" fill="none" stroke-width="1" stroke-opacity="1" />
  <path d="M139.410507202148,682.059020996094 L143.339492797852,682.059020996094 L143.339492797852,687.952514648438 L139.410507202148,687.952514648438  z" stroke="none" fill="#FFFFFF" fill-rule="evenodd" stroke-width="0" fill-opacity="1" />
  <path d="M139.410507202148,682.059020996094 L143.339492797852,682.059020996094 L143.339492797852,687.952514648438 L139.410507202148,687.952514648438  z" stroke="#000000" fill="none" stroke-width="1" stroke-opacity="1" />
  <path d="M102.085151672363,658.485107421875 L107.978630065918,658.485107421875 L107.978630065918,664.378601074219 L102.085151672363,664.378601074219  z" stroke="none" fill="#FFFFFF" fill-rule="evenodd" stroke-width="0" fill-opacity="1" />
  <path d="M102.085151672363,658.485107421875 L107.978630065918,658.485107421875 L107.978630065918,664.378601074219 L102.085151672363,664.378601074219  z" stroke="#000000" fill="none" stroke-width="1" stroke-opacity="1" />
  <path d="M178.5,661.125 L187.799987792969,661.125 " stroke="#6E6E6E" fill="none" stroke-width="1" stroke-opacity="1" />
  <path d="M193.5,661.124938964844 L187.799987792969,663.344970703125 L187.799987792969,658.904968261719 L193.5,661.124938964844 " stroke="none" fill="#6E6E6E" fill-rule="evenodd" stroke-width="0" fill-opacity="1" />
  <path d="M193.5,661.124938964844 L187.799987792969,663.344970703125 L187.799987792969,658.904968261719 L193.5,661.124938964844 " stroke="#6E6E6E" fill="none" stroke-width="1" stroke-opacity="1" />
  <path d="M55.8504791259766,124.261001586914 L103.717277526855,634.187438964844 " stroke="#6E6E6E" fill="none" stroke-width="1" stroke-opacity="1" />
  <path d="M104.25,639.862426757813 L101.506996154785,634.394836425781 L105.92756652832,633.979919433594 L104.25,639.862426757813 " stroke="none" fill="#6E6E6E" fill-rule="evenodd" stroke-width="0" fill-opacity="1" />
  <path d="M104.25,639.862426757813 L101.506996154785,634.394836425781 L105.92756652832,633.979919433594 L104.25,639.862426757813 " stroke="#6E6E6E" fill="none" stroke-width="1" stroke-opacity="1" />
  <path d="M56.3108711242676,186.481475830078 L103.653717041016,636.556274414063 " stroke="#6E6E6E" fill="none" stroke-width="1" stroke-opacity="1" />
  <path d="M104.249992370605,642.224975585938 L101.44588470459,636.788513183594 L105.861526489258,636.324035644531 L104.249992370605,642.224975585938 " stroke="none" fill="#6E6E6E" fill-rule="evenodd" stroke-width="0" fill-opacity="1" />
  <path d="M104.249992370605,642.224975585938 L101.44588470459,636.788513183594 L105.861526489258,636.324035644531 L104.249992370605,642.224975585938 " stroke="#6E6E6E" fill="none" stroke-width="1" stroke-opacity="1" />
  <path d="M56.9011001586914,248.693618774414 L103.573104858398,638.927856445313 " stroke="#6E6E6E" fill="none" stroke-width="1" stroke-opacity="1" />
  <path d="M104.25,644.587463378906 L101.368812561035,639.191467285156 L105.777397155762,638.664184570313 L104.25,644.587463378906 " stroke="none" fill="#6E6E6E" fill-rule="evenodd" stroke-width="0" fill-opacity="1" />
  <path d="M104.25,644.587463378906 L101.368812561035,639.191467285156 L105.777397155762,638.664184570313 L104.25,644.587463378906 " stroke="#6E6E6E" fill="none" stroke-width="1" stroke-opacity="1" />
  <path d="M57.6851005554199,310.893310546875 L103.467666625977,641.303894042969 " stroke="#6E6E6E" fill="none" stroke-width="1" stroke-opacity="1" />
  <path d="M104.25,646.950012207031 L101.268676757813,641.608642578125 L105.666656494141,640.999267578125 L104.25,646.950012207031 " stroke="none" fill="#6E6E6E" fill-rule="evenodd" stroke-width="0" fill-opacity="1" />
  <path d="M104.25,646.950012207031 L101.268676757813,641.608642578125 L105.666656494141,640.999267578125 L104.25,646.950012207031 " stroke="#6E6E6E" fill="none" stroke-width="1" stroke-opacity="1" />
  <path d="M58.7770309448242,373.073272705078 L103.324157714844,643.688171386719 " stroke="#6E6E6E" fill="none" stroke-width="1" stroke-opacity="1" />
  <path d="M104.249992370605,649.312438964844 L101.133636474609,644.048706054688 L105.514671325684,643.327575683594 L104.249992370605,649.312438964844 " stroke="none" fill="#6E6E6E" fill-rule="evenodd" stroke-width="0" fill-opacity="1" />
  <path d="M104.249992370605,649.312438964844 L101.133636474609,644.048706054688 L105.514671325684,643.327575683594 L104.249992370605,649.312438964844 " stroke="#6E6E6E" fill="none" stroke-width="1" stroke-opacity="1" />
  <path d="M60.367130279541,435.119842529297 L103.117958068848,646.088562011719 " stroke="#6E6E6E" fill="none" stroke-width="1" stroke-opacity="1" />
  <path d="M104.249992370605,651.674926757813 L100.942176818848,646.529418945313 L105.293731689453,645.647583007813 L104.249992370605,651.674926757813 " stroke="none" fill="#6E6E6E" fill-rule="evenodd" stroke-width="0" fill-opacity="1" />
  <path d="M104.249992370605,651.674926757813 L100.942176818848,646.529418945313 L105.293731689453,645.647583007813 L104.249992370605,651.674926757813 " stroke="#6E6E6E" fill="none" stroke-width="1" stroke-opacity="1" />
  <path d="M62.8775177001953,496.873931884766 L102.798934936523,648.525268554688 " stroke="#6E6E6E" fill="none" stroke-width="1" stroke-opacity="1" />
  <path d="M104.249992370605,654.037475585938 L100.652076721191,649.090454101563 L104.945793151855,647.960144042969 L104.249992370605,654.037475585938 " stroke="none" fill="#6E6E6E" fill-rule="evenodd" stroke-width="0" fill-opacity="1" />
  <path d="M104.249992370605,654.037475585938 L100.652076721191,649.090454101563 L104.945793151855,647.960144042969 L104.249992370605,654.037475585938 " stroke="#6E6E6E" fill="none" stroke-width="1" stroke-opacity="1" />
  <path d="M67.5009765625,558.073791503906 L102.254470825195,651.060729980469 " stroke="#6E6E6E" fill="none" stroke-width="1" stroke-opacity="1" />
  <path d="M104.249992370605,656.399963378906 L100.174957275391,651.837890625 L104.333969116211,650.283508300781 L104.249992370605,656.399963378906 " stroke="none" fill="#6E6E6E" fill-rule="evenodd" stroke-width="0" fill-opacity="1" />
  <path d="M104.249992370605,656.399963378906 L100.174957275391,651.837890625 L104.333969116211,650.283508300781 L104.249992370605,656.399963378906 " stroke="#6E6E6E" fill="none" stroke-width="1" stroke-opacity="1" />
  <path d="M77.0640106201172,616.269409179688 L101.178161621094,653.960998535156 " stroke="#6E6E6E" fill="none" stroke-width="1" stroke-opacity="1" />
  <path d="M104.249992370605,658.762451171875 L99.3081207275391,655.157470703125 L103.048187255859,652.7646484375 L104.249992370605,658.762451171875 " stroke="none" fill="#6E6E6E" fill-rule="evenodd" stroke-width="0" fill-opacity="1" />
  <path d="M104.249992370605,658.762451171875 L99.3081207275391,655.157470703125 L103.048187255859,652.7646484375 L104.249992370605,658.762451171875 " stroke="#6E6E6E" fill="none" stroke-width="1" stroke-opacity="1" />
  <path d="M89.25,661.125 L98.5499954223633,661.125 " stroke="#6E6E6E" fill="none" stroke-width="1" stroke-opacity="1" />
  <path d="M104.25,661.124938964844 L98.5499954223633,663.344970703125 L98.5499954223633,658.904968261719 L104.25,661.124938964844 " stroke="none" fill="#6E6E6E" fill-rule="evenodd" stroke-width="0" fill-opacity="1" />
  <path d="M104.25,661.124938964844 L98.5499954223633,663.344970703125 L98.5499954223633,658.904968261719 L104.25,661.124938964844 " stroke="#6E6E6E" fill="none" stroke-width="1" stroke-opacity="1" />
  <path d="M77.0640106201172,705.980529785156 L101.178161621094,668.288940429688 " stroke="#6E6E6E" fill="none" stroke-width="1" stroke-opacity="1" />
  <path d="M104.25,663.487426757813 L103.048194885254,669.485290527344 L99.3081283569336,667.092468261719 L104.25,663.487426757813 " stroke="none" fill="#6E6E6E" fill-rule="evenodd" stroke-width="0" fill-opacity="1" />
  <path d="M104.25,663.487426757813 L103.048194885254,669.485290527344 L99.3081283569336,667.092468261719 L104.25,663.487426757813 " stroke="#6E6E6E" fill="none" stroke-width="1" stroke-opacity="1" />
  <path d="M67.5009765625,764.176147460938 L102.254470825195,671.189208984375 " stroke="#6E6E6E" fill="none" stroke-width="1" stroke-opacity="1" />
  <path d="M104.25,665.849975585938 L104.333969116211,671.966491699219 L100.174957275391,670.412048339844 L104.25,665.849975585938 " stroke="none" fill="#6E6E6E" fill-rule="evenodd" stroke-width="0" fill-opacity="1" />
  <path d="M104.25,665.849975585938 L104.333969116211,671.966491699219 L100.174957275391,670.412048339844 L104.25,665.849975585938 " stroke="#6E6E6E" fill="none" stroke-width="1" stroke-opacity="1" />
  <path d="M62.8775177001953,825.3759765625 L102.798934936523,673.724670410156 " stroke="#6E6E6E" fill="none" stroke-width="1" stroke-opacity="1" />
  <path d="M104.25,668.212463378906 L104.945793151855,674.289855957031 L100.652076721191,673.159545898438 L104.25,668.212463378906 " stroke="none" fill="#6E6E6E" fill-rule="evenodd" stroke-width="0" fill-opacity="1" />
  <path d="M104.25,668.212463378906 L104.945793151855,674.289855957031 L100.652076721191,673.159545898438 L104.25,668.212463378906 " stroke="#6E6E6E" fill="none" stroke-width="1" stroke-opacity="1" />
  <path d="M60.3671379089355,887.130126953125 L103.117958068848,676.161437988281 " stroke="#6E6E6E" fill="none" stroke-width="1" stroke-opacity="1" />
  <path d="M104.25,670.574951171875 L105.293731689453,676.602294921875 L100.942176818848,675.720520019531 L104.25,670.574951171875 " stroke="none" fill="#6E6E6E" fill-rule="evenodd" stroke-width="0" fill-opacity="1" />
  <path d="M104.25,670.574951171875 L105.293731689453,676.602294921875 L100.942176818848,675.720520019531 L104.25,670.574951171875 " stroke="#6E6E6E" fill="none" stroke-width="1" stroke-opacity="1" />
  <path d="M58.7770309448242,949.176696777344 L103.324157714844,678.561767578125 " stroke="#6E6E6E" fill="none" stroke-width="1" stroke-opacity="1" />
  <path d="M104.25,672.937438964844 L105.514671325684,678.92236328125 L101.133636474609,678.201171875 L104.25,672.937438964844 " stroke="none" fill="#6E6E6E" fill-rule="evenodd" stroke-width="0" fill-opacity="1" />
  <path d="M104.25,672.937438964844 L105.514671325684,678.92236328125 L101.133636474609,678.201171875 L104.25,672.937438964844 " stroke="#6E6E6E" fill="none" stroke-width="1" stroke-opacity="1" />
  <path d="M57.6851005554199,1011.35668945313 L103.467666625977,680.946044921875 " stroke="#6E6E6E" fill="none" stroke-width="1" stroke-opacity="1" />
  <path d="M104.249992370605,675.299987792969 L105.666648864746,681.250732421875 L101.268669128418,680.641296386719 L104.249992370605,675.299987792969 " stroke="none" fill="#6E6E6E" fill-rule="evenodd" stroke-width="0" fill-opacity="1" />
  <path d="M104.249992370605,675.299987792969 L105.666648864746,681.250732421875 L101.268669128418,680.641296386719 L104.249992370605,675.299987792969 " stroke="#6E6E6E" fill="none" stroke-width="1" stroke-opacity="1" />
  <path d="M56.9011001586914,1073.55639648438 L103.573104858398,683.322143554688 " stroke="#6E6E6E" fill="none" stroke-width="1" stroke-opacity="1" />
  <path d="M104.249992370605,677.662414550781 L105.777389526367,683.585754394531 L101.368804931641,683.058471679688 L104.249992370605,677.662414550781 " stroke="none" fill="#6E6E6E" fill-rule="evenodd" stroke-width="0" fill-opacity="1" />
  <path d="M104.249992370605,677.662414550781 L105.777389526367,683.585754394531 L101.368804931641,683.058471679688 L104.249992370605,677.662414550781 " stroke="#6E6E6E" fill="none" stroke-width="1" stroke-opacity="1" />
  <path d="M56.3108711242676,1135.76843261719 L103.653717041016,685.693725585938 " stroke="#6E6E6E" fill="none" stroke-width="1" stroke-opacity="1" />
  <path d="M104.25,680.024963378906 L105.861534118652,685.925964355469 L101.445892333984,685.461486816406 L104.25,680.024963378906 " stroke="none" fill="#6E6E6E" fill-rule="evenodd" stroke-width="0" fill-opacity="1" />
  <path d="M104.25,680.024963378906 L105.861534118652,685.925964355469 L101.445892333984,685.461486816406 L104.25,680.024963378906 " stroke="#6E6E6E" fill="none" stroke-width="1" stroke-opacity="1" />
  <path d="M55.8504791259766,1197.98889160156 L103.717277526855,688.062561035156 " stroke="#6E6E6E" fill="none" stroke-width="1" stroke-opacity="1" />
  <path d="M104.249992370605,682.387451171875 L105.927558898926,688.27001953125 L101.506996154785,687.855041503906 L104.249992370605,682.387451171875 " stroke="none" fill="#6E6E6E" fill-rule="evenodd" stroke-width="0" fill-opacity="1" />
  <path d="M104.249992370605,682.387451171875 L105.927558898926,688.27001953125 L101.506996154785,687.855041503906 L104.249992370605,682.387451171875 " stroke="#6E6E6E" fill="none" stroke-width="1" stroke-opacity="1" />
</svg>