<?xml version="1.0"?>
<svg xmlns="http://www.w3.org/2000/svg" version="1.1" width="1334.16662597656pt" height="505.833343505859pt" viewBox="-313.18750890096 -131.648624102275 1334.16666666667 505.833333333333" preserveAspectRatio="none" xmlns:xlink="http://www.w3.org/1999/xlink">
  <defs>
  </defs>
  <path d="M371.143768310547,67.9316024780273 L449.522277832031,82.6015090942383 " stroke="#6E6E6E" fill="none" stroke-width="1" stroke-opacity="1" />
  <path d="M455.124969482422,83.6501541137695 L449.113861083984,84.7836151123047 L449.930694580078,80.4194030761719 L455.124969482422,83.6501541137695 " stroke="none" fill="#6E6E6E" fill-rule="evenodd" stroke-width="0" fill-opacity="1" />
  <path d="M455.124969482422,83.6501541137695 L449.113861083984,84.7836151123047 L449.930694580078,80.4194030761719 L455.124969482422,83.6501541137695 " stroke="#6E6E6E" fill="none" stroke-width="1" stroke-opacity="1" />
  <path d="M529.374938964844,90.5987548828125 L569.424987792969,90.5987548828125 " stroke="#6E6E6E" fill="none" stroke-width="1" stroke-opacity="1" />
  <path d="M575.125,90.598747253418 L569.424987792969,92.8187484741211 L569.424987792969,88.3787536621094 L575.125,90.598747253418 " stroke="none" fill="#6E6E6E" fill-rule="evenodd" stroke-width="0" fill-opacity="1" />
  <path d="M575.125,90.598747253418 L569.424987792969,92.8187484741211 L569.424987792969,88.3787536621094 L575.125,90.598747253418 " stroke="#6E6E6E" fill="none" stroke-width="1" stroke-opacity="1" />
  <path d="M124.218910217285,64.8260726928711 L172.720977783203,62.9363822937012 " stroke="#6E6E6E" fill="none" stroke-width="1" stroke-opacity="1" />
  <path d="M178.416656494141,62.714469909668 L172.807403564453,65.1546936035156 L172.634552001953,60.7180633544922 L178.416656494141,62.714469909668 " stroke="none" fill="#6E6E6E" fill-rule="evenodd" stroke-width="0" fill-opacity="1" />
  <path d="M178.416656494141,62.714469909668 L172.807403564453,65.1546936035156 L172.634552001953,60.7180633544922 L178.416656494141,62.714469909668 " stroke="#6E6E6E" fill="none" stroke-width="1" stroke-opacity="1" />
  <path d="M115.431411743164,161.378280639648 L187.886154174805,88.9235458374023 " stroke="#6E6E6E" fill="none" stroke-width="1" stroke-opacity="1" />
  <path d="M191.916656494141,84.8930435180664 L189.455932617188,90.4933319091797 L186.316375732422,87.3537750244141 L191.916656494141,84.8930435180664 " stroke="none" fill="#6E6E6E" fill-rule="evenodd" stroke-width="0" fill-opacity="1" />
  <path d="M191.916656494141,84.8930435180664 L189.455932617188,90.4933319091797 L186.316375732422,87.3537750244141 L191.916656494141,84.8930435180664 " stroke="#6E6E6E" fill="none" stroke-width="1" stroke-opacity="1" />
  <path d="M252.666656494141,61.2680435180664 L292.716644287109,61.2680435180664 " stroke="#6E6E6E" fill="none" stroke-width="1" stroke-opacity="1" />
  <path d="M298.416656494141,61.2680397033691 L292.716644287109,63.4880409240723 L292.716644287109,59.0480422973633 L298.416656494141,61.2680397033691 " stroke="none" fill="#6E6E6E" fill-rule="evenodd" stroke-width="0" fill-opacity="1" />
  <path d="M298.416656494141,61.2680397033691 L292.716644287109,63.4880409240723 L292.716644287109,59.0480422973633 L298.416656494141,61.2680397033691 " stroke="#6E6E6E" fill="none" stroke-width="1" stroke-opacity="1" />
  <path d="M186.920593261719,37.6430435180664 L244.162704467773,37.6430435180664 L244.162689208984,37.6430435180664 C248.859283447266,37.6430358886719 252.666641235352,41.4503707885742 252.666641235352,46.1469764709473 C252.666641235352,46.1469764709473 252.666641235352,46.1469802856445 252.666641235352,46.1469802856445 L252.666656494141,46.1469802856445 L252.666656494141,76.3891067504883 L252.666641235352,76.3890991210938 C252.666641235352,81.085693359375 248.859298706055,84.8930358886719 244.162704467773,84.8930358886719 L244.162704467773,84.8930435180664 L186.920593261719,84.8930435180664 L186.920593261719,84.8930358886719 C182.223999023438,84.8930435180664 178.416656494141,81.0857009887695 178.416656494141,76.3891067504883 L178.416656494141,46.1469802856445 L178.416641235352,46.1469841003418 C178.416641235352,41.4503898620605 182.223983764648,37.6430435180664 186.92057800293,37.6430397033691 " stroke="none" fill="#F2E279" fill-rule="evenodd" stroke-width="0" fill-opacity="1" />
  <text x="25.5195236206055" y="36.7967185974121" dx="0" dy="0" font-family="Arial" font-size="8.99999973177911pt" fill="#000000" style="text-anchor:start" transform="matrix(0.750000 0.000000 0.000000 0.750000 178.416656494141 37.6430435180664)">Append</text>
  <path d="M186.920593261719,37.6430435180664 L244.162704467773,37.6430435180664 L244.162689208984,37.6430435180664 C248.859283447266,37.6430358886719 252.666641235352,41.4503707885742 252.666641235352,46.1469764709473 C252.666641235352,46.1469764709473 252.666641235352,46.1469802856445 252.666641235352,46.1469802856445 L252.666656494141,46.1469802856445 L252.666656494141,76.3891067504883 L252.666641235352,76.3890991210938 C252.666641235352,81.085693359375 248.859298706055,84.8930358886719 244.162704467773,84.8930358886719 L244.162704467773,84.8930435180664 L186.920593261719,84.8930435180664 L186.920593261719,84.8930358886719 C182.223999023438,84.8930435180664 178.416656494141,81.0857009887695 178.416656494141,76.3891067504883 L178.416656494141,46.1469802856445 L178.416641235352,46.1469841003418 C178.416641235352,41.4503898620605 182.223983764648,37.6430435180664 186.92057800293,37.6430397033691 " stroke="none" fill="none" stroke-width="0.75" stroke-opacity="0" />
  <path d="M372.666625976563,61.2680358886719 C372.666625976563,74.3157577514648 356.045196533203,84.8930358886719 335.541656494141,84.8930358886719 C315.0380859375,84.8930435180664 298.416656494141,74.3157730102539 298.416656494141,61.2680435180664 C298.416656494141,61.2680435180664 298.416656494141,61.2680435180664 298.416656494141,61.2680435180664 L298.416656494141,61.2680587768555 C298.416625976563,48.2203330993652 315.038055419922,37.6430511474609 335.541595458984,37.6430435180664 C356.045166015625,37.6430320739746 372.666625976563,48.2202987670898 372.666625976563,61.2680435180664 C372.666625976563,61.2680435180664 372.666625976563,61.2680435180664 372.666625976563,61.2680435180664 " stroke="none" fill="#83CC7C" fill-rule="evenodd" stroke-width="0" fill-opacity="1" />
  <text x="4.85618925094604" y="36.7967185974121" dx="0" dy="0" font-family="Arial" font-size="8.99999973177911pt" fill="#000000" style="text-anchor:start" transform="matrix(0.750000 0.000000 0.000000 0.750000 298.416656494141 37.6430435180664)">UpdateProjects</text>
  <path d="M372.666625976563,61.2680358886719 C372.666625976563,74.3157577514648 356.045196533203,84.8930358886719 335.541656494141,84.8930358886719 C315.0380859375,84.8930435180664 298.416656494141,74.3157730102539 298.416656494141,61.2680435180664 C298.416656494141,61.2680435180664 298.416656494141,61.2680435180664 298.416656494141,61.2680435180664 L298.416656494141,61.2680587768555 C298.416625976563,48.2203330993652 315.038055419922,37.6430511474609 335.541595458984,37.6430435180664 C356.045166015625,37.6430320739746 372.666625976563,48.2202987670898 372.666625976563,61.2680435180664 C372.666625976563,61.2680435180664 372.666625976563,61.2680435180664 372.666625976563,61.2680435180664 " stroke="none" fill="none" stroke-width="0.75" stroke-opacity="0" />
  <path d="M124.333320617676,66.2680358886719 C124.333312988281,79.3157577514648 107.711898803711,89.8930358886719 87.2083435058594,89.8930358886719 C66.7047729492188,89.8930435180664 50.0833358764648,79.3157730102539 50.0833320617676,66.2680435180664 C50.0833320617676,66.2680435180664 50.0833320617676,66.2680435180664 50.0833320617676,66.2680435180664 L50.0833320617676,66.2680587768555 C50.083309173584,53.2203330993652 66.7047271728516,42.6430511474609 87.2082977294922,42.6430435180664 C107.711868286133,42.6430320739746 124.333305358887,53.2202987670898 124.333320617676,66.2680435180664 C124.333320617676,66.2680435180664 124.333320617676,66.2680435180664 124.333320617676,66.2680435180664 " stroke="none" fill="#70AECC" fill-rule="evenodd" stroke-width="0" fill-opacity="1" />
  <text x="20.1961898803711" y="29.8967189788818" dx="0" dy="0" font-family="Arial" font-size="8.99999973177911pt" fill="#000000" style="text-anchor:start" transform="matrix(0.750000 0.000000 0.000000 0.750000 50.0833320617676 42.6430435180664)">Regional</text>
  <text x="69.896858215332" y="29.8967189788818" dx="0" dy="0" font-family="Arial" font-size="8.99999973177911pt" fill="#000000" style="text-anchor:start" transform="matrix(0.750000 0.000000 0.000000 0.750000 50.0833320617676 42.6430435180664)">-</text>
  <text x="21.8628559112549" y="43.6967163085938" dx="0" dy="0" font-family="Arial" font-size="8.99999973177911pt" fill="#000000" style="text-anchor:start" transform="matrix(0.750000 0.000000 0.000000 0.750000 50.0833320617676 42.6430435180664)">New</text>
  <text x="48.2035217285156" y="43.6967163085938" dx="0" dy="0" font-family="Arial" font-size="8.99999973177911pt" fill="#000000" style="text-anchor:start" transform="matrix(0.750000 0.000000 0.000000 0.750000 50.0833320617676 42.6430435180664)">-</text>
  <text x="50.8621864318848" y="43.6967163085938" dx="0" dy="0" font-family="Arial" font-size="8.99999973177911pt" fill="#000000" style="text-anchor:start" transform="matrix(0.750000 0.000000 0.000000 0.750000 50.0833320617676 42.6430435180664)">590</text>
  <path d="M124.333320617676,66.2680358886719 C124.333312988281,79.3157577514648 107.711898803711,89.8930358886719 87.2083435058594,89.8930358886719 C66.7047729492188,89.8930435180664 50.0833358764648,79.3157730102539 50.0833320617676,66.2680435180664 C50.0833320617676,66.2680435180664 50.0833320617676,66.2680435180664 50.0833320617676,66.2680435180664 L50.0833320617676,66.2680587768555 C50.083309173584,53.2203330993652 66.7047271728516,42.6430511474609 87.2082977294922,42.6430435180664 C107.711868286133,42.6430320739746 124.333305358887,53.2202987670898 124.333320617676,66.2680435180664 C124.333320617676,66.2680435180664 124.333320617676,66.2680435180664 124.333320617676,66.2680435180664 " stroke="none" fill="none" stroke-width="0.75" stroke-opacity="0" />
  <path d="M132.666656494141,181.268020629883 C132.666641235352,194.31575012207 116.045227050781,204.893020629883 95.5416717529297,204.893020629883 C75.0381011962891,204.893035888672 58.4166679382324,194.315765380859 58.4166641235352,181.268035888672 C58.4166641235352,181.268035888672 58.4166641235352,181.268035888672 58.4166641235352,181.268035888672 L58.4166641235352,181.268051147461 C58.4166412353516,168.220321655273 75.0380630493164,157.643035888672 95.5416259765625,157.643035888672 C116.045196533203,157.643020629883 132.666641235352,168.220291137695 132.666656494141,181.268035888672 C132.666656494141,181.268035888672 132.666656494141,181.268035888672 132.666656494141,181.268035888672 " stroke="none" fill="#70AECC" fill-rule="evenodd" stroke-width="0" fill-opacity="1" />
  <text x="4.85618925094604" y="29.8967189788818" dx="0" dy="0" font-family="Arial" font-size="8.99999973177911pt" fill="#000000" style="text-anchor:start" transform="matrix(0.750000 0.000000 0.000000 0.750000 58.4166641235352 157.643035888672)">UpdateProjects </text>
  <text x="40.8768539428711" y="43.6967163085938" dx="0" dy="0" font-family="Arial" font-size="8.99999973177911pt" fill="#000000" style="text-anchor:start" transform="matrix(0.750000 0.000000 0.000000 0.750000 58.4166641235352 157.643035888672)">(2)</text>
  <path d="M132.666656494141,181.268020629883 C132.666641235352,194.31575012207 116.045227050781,204.893020629883 95.5416717529297,204.893020629883 C75.0381011962891,204.893035888672 58.4166679382324,194.315765380859 58.4166641235352,181.268035888672 C58.4166641235352,181.268035888672 58.4166641235352,181.268035888672 58.4166641235352,181.268035888672 L58.4166641235352,181.268051147461 C58.4166412353516,168.220321655273 75.0380630493164,157.643035888672 95.5416259765625,157.643035888672 C116.045196533203,157.643020629883 132.666641235352,168.220291137695 132.666656494141,181.268035888672 C132.666656494141,181.268035888672 132.666656494141,181.268035888672 132.666656494141,181.268035888672 " stroke="none" fill="none" stroke-width="0.75" stroke-opacity="0" />
  <path d="M463.628936767578,66.9737548828125 L520.871032714844,66.9737548828125 L520.871032714844,66.9737548828125 C525.567626953125,66.973747253418 529.374938964844,70.7810821533203 529.374938964844,75.4776840209961 C529.374938964844,75.4776840209961 529.374938964844,75.4776916503906 529.374938964844,75.4776916503906 L529.375,75.4776916503906 L529.375,105.719818115234 L529.374938964844,105.71981048584 C529.374938964844,110.416404724121 525.567626953125,114.223747253418 520.871032714844,114.223747253418 L520.871032714844,114.223754882813 L463.628936767578,114.223754882813 L463.628936767578,114.223747253418 C458.932342529297,114.223754882813 455.125,110.416412353516 455.125,105.719818115234 L455.125,75.4776916503906 L455.124969482422,75.4776916503906 C455.124969482422,70.7810974121094 458.932312011719,66.9737548828125 463.62890625,66.973747253418 " stroke="none" fill="#F2E279" fill-rule="evenodd" stroke-width="0" fill-opacity="1" />
  <text x="6.18952226638794" y="36.7967185974121" dx="0" dy="0" font-family="Arial" font-size="8.99999973177911pt" fill="#000000" style="text-anchor:start" transform="matrix(0.750000 0.000000 0.000000 0.750000 455.125 66.9737548828125)">Calculate Field</text>
  <path d="M463.628936767578,66.9737548828125 L520.871032714844,66.9737548828125 L520.871032714844,66.9737548828125 C525.567626953125,66.973747253418 529.374938964844,70.7810821533203 529.374938964844,75.4776840209961 C529.374938964844,75.4776840209961 529.374938964844,75.4776916503906 529.374938964844,75.4776916503906 L529.375,75.4776916503906 L529.375,105.719818115234 L529.374938964844,105.71981048584 C529.374938964844,110.416404724121 525.567626953125,114.223747253418 520.871032714844,114.223747253418 L520.871032714844,114.223754882813 L463.628936767578,114.223754882813 L463.628936767578,114.223747253418 C458.932342529297,114.223754882813 455.125,110.416412353516 455.125,105.719818115234 L455.125,75.4776916503906 L455.124969482422,75.4776916503906 C455.124969482422,70.7810974121094 458.932312011719,66.9737548828125 463.62890625,66.973747253418 " stroke="none" fill="none" stroke-width="0.75" stroke-opacity="0" />
  <path d="M649.374938964844,90.598747253418 C649.374938964844,103.646469116211 632.753540039063,114.223747253418 612.25,114.223747253418 C591.746398925781,114.223754882813 575.125,103.646484375 575.125,90.5987548828125 C575.125,90.5987548828125 575.125,90.5987548828125 575.125,90.5987548828125 L575.125,90.5987701416016 C575.124938964844,77.5510406494141 591.746398925781,66.973762512207 612.249938964844,66.9737548828125 C632.753479003906,66.9737396240234 649.374938964844,77.5510101318359 649.374938964844,90.5987548828125 C649.374938964844,90.5987548828125 649.374938964844,90.5987548828125 649.374938964844,90.5987548828125 " stroke="none" fill="#83CC7C" fill-rule="evenodd" stroke-width="0" fill-opacity="1" />
  <text x="4.85618925094604" y="29.8967189788818" dx="0" dy="0" font-family="Arial" font-size="8.99999973177911pt" fill="#000000" style="text-anchor:start" transform="matrix(0.750000 0.000000 0.000000 0.750000 575.125 66.9737548828125)">UpdateProjects </text>
  <text x="40.8768539428711" y="43.6967163085938" dx="0" dy="0" font-family="Arial" font-size="8.99999973177911pt" fill="#000000" style="text-anchor:start" transform="matrix(0.750000 0.000000 0.000000 0.750000 575.125 66.9737548828125)">(4)</text>
  <path d="M649.374938964844,90.598747253418 C649.374938964844,103.646469116211 632.753540039063,114.223747253418 612.25,114.223747253418 C591.746398925781,114.223754882813 575.125,103.646484375 575.125,90.5987548828125 C575.125,90.5987548828125 575.125,90.5987548828125 575.125,90.5987548828125 L575.125,90.5987701416016 C575.124938964844,77.5510406494141 591.746398925781,66.973762512207 612.249938964844,66.9737548828125 C632.753479003906,66.9737396240234 649.374938964844,77.5510101318359 649.374938964844,90.5987548828125 C649.374938964844,90.5987548828125 649.374938964844,90.5987548828125 649.374938964844,90.5987548828125 " stroke="none" fill="none" stroke-width="0.75" stroke-opacity="0" />
</svg>