<?xml version="1.0"?>
<svg xmlns="http://www.w3.org/2000/svg" version="1.1" width="1205.25pt" height="455.25pt" viewBox="-382.09366607666 -144.727379322052 1205.25 455.25" preserveAspectRatio="none" xmlns:xlink="http://www.w3.org/1999/xlink">
  <defs>
  </defs>
  <path d="M12,65.6663360595703 L52.0499992370605,65.6663360595703 " stroke="#6E6E6E" fill="none" stroke-width="1" stroke-opacity="1" />
  <path d="M57.75,65.6663284301758 L52.0499992370605,67.8863296508789 L52.0499992370605,63.4463348388672 L57.75,65.6663284301758 " stroke="none" fill="#6E6E6E" fill-rule="evenodd" stroke-width="0" fill-opacity="1" />
  <path d="M57.75,65.6663284301758 L52.0499992370605,67.8863296508789 L52.0499992370605,63.4463348388672 L57.75,65.6663284301758 " stroke="#6E6E6E" fill="none" stroke-width="1" stroke-opacity="1" />
  <path d="M132,65.6663360595703 L172.049987792969,65.6663360595703 " stroke="#6E6E6E" fill="none" stroke-width="1" stroke-opacity="1" />
  <path d="M177.75,65.6663284301758 L172.049987792969,67.8863296508789 L172.049987792969,63.4463348388672 L177.75,65.6663284301758 " stroke="none" fill="#6E6E6E" fill-rule="evenodd" stroke-width="0" fill-opacity="1" />
  <path d="M177.75,65.6663284301758 L172.049987792969,67.8863296508789 L172.049987792969,63.4463348388672 L177.75,65.6663284301758 " stroke="#6E6E6E" fill="none" stroke-width="1" stroke-opacity="1" />
  <path d="M249.191589355469,74.672607421875 L303.549377441406,88.9386291503906 " stroke="#6E6E6E" fill="none" stroke-width="1" stroke-opacity="1" />
  <path d="M309.062652587891,90.3855667114258 L302.985809326172,91.0859069824219 L304.112915039063,86.7913436889648 L309.062652587891,90.3855667114258 " stroke="none" fill="#6E6E6E" fill-rule="evenodd" stroke-width="0" fill-opacity="1" />
  <path d="M309.062652587891,90.3855667114258 L302.985809326172,91.0859069824219 L304.112915039063,86.7913436889648 L309.062652587891,90.3855667114258 " stroke="#6E6E6E" fill="none" stroke-width="1" stroke-opacity="1" />
  <path d="M383.312652587891,100.128898620605 L423.362670898438,100.128898620605 " stroke="#6E6E6E" fill="none" stroke-width="1" stroke-opacity="1" />
  <path d="M429.062683105469,100.128898620605 L423.362670898438,102.348899841309 L423.362670898438,97.9089050292969 L429.062683105469,100.128898620605 " stroke="none" fill="#6E6E6E" fill-rule="evenodd" stroke-width="0" fill-opacity="1" />
  <path d="M429.062683105469,100.128898620605 L423.362670898438,102.348899841309 L423.362670898438,97.9089050292969 L429.062683105469,100.128898620605 " stroke="#6E6E6E" fill="none" stroke-width="1" stroke-opacity="1" />
  <path d="M243.026962280273,134.11213684082 L303.648834228516,114.142051696777 " stroke="#6E6E6E" fill="none" stroke-width="1" stroke-opacity="1" />
  <path d="M309.062652587891,112.358627319336 L304.343444824219,116.250587463379 L302.954254150391,112.033508300781 L309.062652587891,112.358627319336 " stroke="none" fill="#6E6E6E" fill-rule="evenodd" stroke-width="0" fill-opacity="1" />
  <path d="M309.062652587891,112.358627319336 L304.343444824219,116.250587463379 L302.954254150391,112.033508300781 L309.062652587891,112.358627319336 " stroke="#6E6E6E" fill="none" stroke-width="1" stroke-opacity="1" />
  <path d="M66.2539367675781,42.0413398742676 L123.496055603027,42.0413398742676 L123.496040344238,42.0413398742676 C128.192626953125,42.041332244873 131.999984741211,45.8486671447754 131.999984741211,50.5452728271484 C131.999984741211,50.5452728271484 131.999984741211,50.5452766418457 131.999984741211,50.5452766418457 L132,50.5452766418457 L132,80.7873992919922 L131.999984741211,80.7873916625977 C131.999984741211,85.4839859008789 128.192642211914,89.2913284301758 123.496055603027,89.2913360595703 L123.496055603027,89.2913360595703 L66.2539367675781,89.2913360595703 L66.2539367675781,89.2913360595703 C61.5573463439941,89.2913360595703 57.75,85.4839935302734 57.75,80.7873992919922 L57.75,50.5452766418457 L57.7499961853027,50.545280456543 C57.7499923706055,45.8486862182617 61.5573310852051,42.0413398742676 66.2539215087891,42.0413360595703 " stroke="none" fill="#F2E279" fill-rule="evenodd" stroke-width="0" fill-opacity="1" />
  <text x="6.18952226638794" y="36.7967185974121" dx="0" dy="0" font-family="Arial" font-size="8.99999973177911pt" fill="#000000" style="text-anchor:start" transform="matrix(0.750000 0.000000 0.000000 0.750000 57.75 42.0413398742676)">Calculate Field</text>
  <path d="M66.2539367675781,42.0413398742676 L123.496055603027,42.0413398742676 L123.496040344238,42.0413398742676 C128.192626953125,42.041332244873 131.999984741211,45.8486671447754 131.999984741211,50.5452728271484 C131.999984741211,50.5452728271484 131.999984741211,50.5452766418457 131.999984741211,50.5452766418457 L132,50.5452766418457 L132,80.7873992919922 L131.999984741211,80.7873916625977 C131.999984741211,85.4839859008789 128.192642211914,89.2913284301758 123.496055603027,89.2913360595703 L123.496055603027,89.2913360595703 L66.2539367675781,89.2913360595703 L66.2539367675781,89.2913360595703 C61.5573463439941,89.2913360595703 57.75,85.4839935302734 57.75,80.7873992919922 L57.75,50.5452766418457 L57.7499961853027,50.545280456543 C57.7499923706055,45.8486862182617 61.5573310852051,42.0413398742676 66.2539215087891,42.0413360595703 " stroke="none" fill="none" stroke-width="0.75" stroke-opacity="0" />
  <path d="M317.566619873047,76.50390625 L374.808715820313,76.50390625 L374.808715820313,76.50390625 C379.505310058594,76.5038986206055 383.312652587891,80.3112335205078 383.312652587891,85.0078353881836 C383.312652587891,85.0078353881836 383.312652587891,85.0078430175781 383.312652587891,85.0078430175781 L383.312683105469,85.0078430175781 L383.312683105469,115.249969482422 L383.312652587891,115.249961853027 C383.312652587891,119.946556091309 379.505310058594,123.753898620605 374.808715820313,123.753898620605 L374.808715820313,123.75390625 L317.566619873047,123.75390625 L317.566619873047,123.753898620605 C312.870025634766,123.75390625 309.062683105469,119.946563720703 309.062683105469,115.249969482422 L309.062683105469,85.0078430175781 L309.062652587891,85.0078430175781 C309.062652587891,80.3112487792969 312.869995117188,76.50390625 317.566589355469,76.5038986206055 " stroke="none" fill="#F2E279" fill-rule="evenodd" stroke-width="0" fill-opacity="1" />
  <text x="6.18952226638794" y="29.8967189788818" dx="0" dy="0" font-family="Arial" font-size="8.99999973177911pt" fill="#000000" style="text-anchor:start" transform="matrix(0.750000 0.000000 0.000000 0.750000 309.062683105469 76.50390625)">Calculate Field </text>
  <text x="40.8768539428711" y="43.6967163085938" dx="0" dy="0" font-family="Arial" font-size="8.99999973177911pt" fill="#000000" style="text-anchor:start" transform="matrix(0.750000 0.000000 0.000000 0.750000 309.062683105469 76.50390625)">(2)</text>
  <path d="M317.566619873047,76.50390625 L374.808715820313,76.50390625 L374.808715820313,76.50390625 C379.505310058594,76.5038986206055 383.312652587891,80.3112335205078 383.312652587891,85.0078353881836 C383.312652587891,85.0078353881836 383.312652587891,85.0078430175781 383.312652587891,85.0078430175781 L383.312683105469,85.0078430175781 L383.312683105469,115.249969482422 L383.312652587891,115.249961853027 C383.312652587891,119.946556091309 379.505310058594,123.753898620605 374.808715820313,123.753898620605 L374.808715820313,123.75390625 L317.566619873047,123.75390625 L317.566619873047,123.753898620605 C312.870025634766,123.75390625 309.062683105469,119.946563720703 309.062683105469,115.249969482422 L309.062683105469,85.0078430175781 L309.062652587891,85.0078430175781 C309.062652587891,80.3112487792969 312.869995117188,76.50390625 317.566589355469,76.5038986206055 " stroke="none" fill="none" stroke-width="0.75" stroke-opacity="0" />
  <path d="M503.312652587891,100.128898620605 C503.312652587891,113.176620483398 486.691223144531,123.753898620605 466.187683105469,123.753898620605 C445.684112548828,123.75390625 429.062683105469,113.176635742188 429.062683105469,100.12890625 C429.062683105469,100.12890625 429.062683105469,100.12890625 429.062683105469,100.12890625 L429.062683105469,100.128921508789 C429.062652587891,87.0811920166016 445.68408203125,76.5039138793945 466.187622070313,76.50390625 C486.691192626953,76.5038909912109 503.312652587891,87.0811614990234 503.312652587891,100.12890625 C503.312652587891,100.12890625 503.312652587891,100.12890625 503.312652587891,100.12890625 " stroke="none" fill="#83CC7C" fill-rule="evenodd" stroke-width="0" fill-opacity="1" />
  <text x="4.18218898773193" y="29.8967189788818" dx="0" dy="0" font-family="Arial" font-size="8.99999973177911pt" fill="#000000" style="text-anchor:start" transform="matrix(0.750000 0.000000 0.000000 0.750000 429.062683105469 76.50390625)">project_area_</text>
  <text x="74.898193359375" y="29.8967189788818" dx="0" dy="0" font-family="Arial" font-size="8.99999973177911pt" fill="#000000" style="text-anchor:start" transform="matrix(0.750000 0.000000 0.000000 0.750000 429.062683105469 76.50390625)"> ...</text>
  <text x="40.8768539428711" y="43.6967163085938" dx="0" dy="0" font-family="Arial" font-size="8.99999973177911pt" fill="#000000" style="text-anchor:start" transform="matrix(0.750000 0.000000 0.000000 0.750000 429.062683105469 76.50390625)">(2)</text>
  <path d="M503.312652587891,100.128898620605 C503.312652587891,113.176620483398 486.691223144531,123.753898620605 466.187683105469,123.753898620605 C445.684112548828,123.75390625 429.062683105469,113.176635742188 429.062683105469,100.12890625 C429.062683105469,100.12890625 429.062683105469,100.12890625 429.062683105469,100.12890625 L429.062683105469,100.128921508789 C429.062652587891,87.0811920166016 445.68408203125,76.5039138793945 466.187622070313,76.50390625 C486.691192626953,76.5038909912109 503.312652587891,87.0811614990234 503.312652587891,100.12890625 C503.312652587891,100.12890625 503.312652587891,100.12890625 503.312652587891,100.12890625 " stroke="none" fill="none" stroke-width="0.75" stroke-opacity="0" />
  <path d="M251.999984741211,65.6663284301758 C251.999984741211,78.7140579223633 235.378555297852,89.2913284301758 214.875,89.2913360595703 C194.371429443359,89.2913360595703 177.75,78.7140655517578 177.75,65.6663360595703 C177.75,65.6663360595703 177.75,65.6663360595703 177.75,65.6663360595703 L177.75,65.6663513183594 C177.749969482422,52.6186294555664 194.371398925781,42.0413475036621 214.874954223633,42.0413398742676 C235.378524780273,42.0413284301758 251.999969482422,52.618595123291 251.999984741211,65.6663360595703 C251.999984741211,65.6663360595703 251.999984741211,65.6663360595703 251.999984741211,65.6663360595703 " stroke="none" fill="#83CC7C" fill-rule="evenodd" stroke-width="0" fill-opacity="1" />
  <text x="4.18218898773193" y="36.7967185974121" dx="0" dy="0" font-family="Arial" font-size="8.99999973177911pt" fill="#000000" style="text-anchor:start" transform="matrix(0.750000 0.000000 0.000000 0.750000 177.75 42.0413398742676)">project_area_</text>
  <text x="74.898193359375" y="36.7967185974121" dx="0" dy="0" font-family="Arial" font-size="8.99999973177911pt" fill="#000000" style="text-anchor:start" transform="matrix(0.750000 0.000000 0.000000 0.750000 177.75 42.0413398742676)"> ...</text>
  <path d="M251.999984741211,65.6663284301758 C251.999984741211,78.7140579223633 235.378555297852,89.2913284301758 214.875,89.2913360595703 C194.371429443359,89.2913360595703 177.75,78.7140655517578 177.75,65.6663360595703 C177.75,65.6663360595703 177.75,65.6663360595703 177.75,65.6663360595703 L177.75,65.6663513183594 C177.749969482422,52.6186294555664 194.371398925781,42.0413475036621 214.874954223633,42.0413398742676 C235.378524780273,42.0413284301758 251.999969482422,52.618595123291 251.999984741211,65.6663360595703 C251.999984741211,65.6663360595703 251.999984741211,65.6663360595703 251.999984741211,65.6663360595703 " stroke="none" fill="none" stroke-width="0.75" stroke-opacity="0" />
  <path d="M11.9999923706055,65.6663284301758 C11.9999847412109,78.7140579223633 -4.62143325805664,89.2913284301758 -25.1249885559082,89.2913360595703 C-45.6285591125488,89.2913360595703 -62.2499961853027,78.7140655517578 -62.25,65.6663360595703 C-62.25,65.6663360595703 -62.25,65.6663360595703 -62.25,65.6663360595703 L-62.25,65.6663513183594 C-62.2500228881836,52.6186294555664 -45.6286010742188,42.0413475036621 -25.1250343322754,42.0413398742676 C-4.62146377563477,42.0413284301758 11.9999771118164,52.618595123291 11.9999923706055,65.6663360595703 C11.9999923706055,65.6663360595703 11.9999923706055,65.6663360595703 11.9999923706055,65.6663360595703 " stroke="none" fill="#70AECC" fill-rule="evenodd" stroke-width="0" fill-opacity="1" />
  <text x="4.18218898773193" y="36.7967185974121" dx="0" dy="0" font-family="Arial" font-size="8.99999973177911pt" fill="#000000" style="text-anchor:start" transform="matrix(0.750000 0.000000 0.000000 0.750000 -62.25 42.0413398742676)">project_area_</text>
  <text x="74.898193359375" y="36.7967185974121" dx="0" dy="0" font-family="Arial" font-size="8.99999973177911pt" fill="#000000" style="text-anchor:start" transform="matrix(0.750000 0.000000 0.000000 0.750000 -62.25 42.0413398742676)"> ...</text>
  <path d="M11.9999923706055,65.6663284301758 C11.9999847412109,78.7140579223633 -4.62143325805664,89.2913284301758 -25.1249885559082,89.2913360595703 C-45.6285591125488,89.2913360595703 -62.2499961853027,78.7140655517578 -62.25,65.6663360595703 C-62.25,65.6663360595703 -62.25,65.6663360595703 -62.25,65.6663360595703 L-62.25,65.6663513183594 C-62.2500228881836,52.6186294555664 -45.6286010742188,42.0413475036621 -25.1250343322754,42.0413398742676 C-4.62146377563477,42.0413284301758 11.9999771118164,52.618595123291 11.9999923706055,65.6663360595703 C11.9999923706055,65.6663360595703 11.9999923706055,65.6663360595703 11.9999923706055,65.6663360595703 " stroke="none" fill="none" stroke-width="0.75" stroke-opacity="0" />
  <path d="M19.4999980926514,48.6038360595703 C19.4999980926514,52.7459716796875 16.1421337127686,56.1038360595703 12.0000028610229,56.1038360595703 C7.85786914825439,56.1038398742676 4.50000333786011,52.745979309082 4.5,48.6038436889648 L4.49999904632568,48.6038436889648 C4.49999570846558,44.4617080688477 7.85785818099976,41.1038398742676 11.9999866485596,41.1038398742676 C16.1421222686768,41.103832244873 19.4999904632568,44.4616889953613 19.4999980926514,48.6038360595703 C19.4999980926514,48.6038360595703 19.4999980926514,48.6038398742676 19.4999980926514,48.6038398742676 " stroke="none" fill="none" fill-rule="evenodd" stroke-width="0" fill-opacity="0" />
  <text x="2.70618915557861" y="15.2967185974121" dx="0" dy="0" font-family="Arial" font-size="8.99999973177911pt" fill="#555555" style="text-anchor:start" font-weight="bold" transform="matrix(0.750000 0.000000 0.000000 0.750000 4.5 41.1038398742676)">P</text>
  <path d="M19.4999980926514,48.6038360595703 C19.4999980926514,52.7459716796875 16.1421337127686,56.1038360595703 12.0000028610229,56.1038360595703 C7.85786914825439,56.1038398742676 4.50000333786011,52.745979309082 4.5,48.6038436889648 L4.49999904632568,48.6038436889648 C4.49999570846558,44.4617080688477 7.85785818099976,41.1038398742676 11.9999866485596,41.1038398742676 C16.1421222686768,41.103832244873 19.4999904632568,44.4616889953613 19.4999980926514,48.6038360595703 C19.4999980926514,48.6038360595703 19.4999980926514,48.6038398742676 19.4999980926514,48.6038398742676 " stroke="none" fill="none" stroke-width="0.75" stroke-opacity="0" />
  <path d="M246.250152587891,142.222640991211 C246.250152587891,152.008438110352 233.784088134766,159.941390991211 218.40641784668,159.941390991211 C203.028747558594,159.94140625 190.56266784668,152.008453369141 190.56266784668,142.22265625 C190.56266784668,142.22265625 190.56266784668,142.22265625 190.56266784668,142.22265625 L190.562652587891,142.22265625 C190.562652587891,132.436874389648 203.028717041016,124.50390625 218.406387329102,124.50390625 C233.784057617188,124.503898620605 246.250137329102,132.43684387207 246.250152587891,142.22265625 C246.250152587891,142.22265625 246.250152587891,142.22265625 246.250152587891,142.22265625 " stroke="none" fill="#E7E7E7" fill-rule="evenodd" stroke-width="0" fill-opacity="1" />
  <text x="2.81952238082886" y="28.9217185974121" dx="0" dy="0" font-family="Arial" font-size="8.99999973177911pt" fill="#000000" style="text-anchor:start" transform="matrix(0.750000 0.000000 0.000000 0.750000 190.56266784668 124.50390625)">Code Block</text>
  <path d="M246.250152587891,142.222640991211 C246.250152587891,152.008438110352 233.784088134766,159.941390991211 218.40641784668,159.941390991211 C203.028747558594,159.94140625 190.56266784668,152.008453369141 190.56266784668,142.22265625 C190.56266784668,142.22265625 190.56266784668,142.22265625 190.56266784668,142.22265625 L190.562652587891,142.22265625 C190.562652587891,132.436874389648 203.028717041016,124.50390625 218.406387329102,124.50390625 C233.784057617188,124.503898620605 246.250137329102,132.43684387207 246.250152587891,142.22265625 C246.250152587891,142.22265625 246.250152587891,142.22265625 246.250152587891,142.22265625 " stroke="none" fill="none" stroke-width="0.75" stroke-opacity="0" />
  <path d="M253.750152587891,131.066390991211 C253.750152587891,135.208526611328 250.392288208008,138.566390991211 246.25016784668,138.566390991211 C242.108032226563,138.56640625 238.75016784668,135.208541870117 238.75016784668,131.06640625 L238.750152587891,131.06640625 C238.750152587891,126.924270629883 242.108016967773,123.56640625 246.250152587891,123.56640625 C250.392288208008,123.566398620605 253.750152587891,126.924255371094 253.750152587891,131.066390991211 C253.750152587891,131.066390991211 253.750152587891,131.06640625 253.750152587891,131.06640625 " stroke="none" fill="none" fill-rule="evenodd" stroke-width="0" fill-opacity="0" />
  <text x="2.70618915557861" y="15.2967185974121" dx="0" dy="0" font-family="Arial" font-size="8.99999973177911pt" fill="#555555" style="text-anchor:start" font-weight="bold" transform="matrix(0.750000 0.000000 0.000000 0.750000 238.75016784668 123.56640625)">P</text>
  <path d="M253.750152587891,131.066390991211 C253.750152587891,135.208526611328 250.392288208008,138.566390991211 246.25016784668,138.566390991211 C242.108032226563,138.56640625 238.75016784668,135.208541870117 238.75016784668,131.06640625 L238.750152587891,131.06640625 C238.750152587891,126.924270629883 242.108016967773,123.56640625 246.250152587891,123.56640625 C250.392288208008,123.566398620605 253.750152587891,126.924255371094 253.750152587891,131.066390991211 C253.750152587891,131.066390991211 253.750152587891,131.06640625 253.750152587891,131.06640625 " stroke="none" fill="none" stroke-width="0.75" stroke-opacity="0" />
</svg>