<?xml version="1.0"?>
<svg xmlns="http://www.w3.org/2000/svg" version="1.1" width="1062.38330078125pt" height="327.039642333984pt" viewBox="-229.040312671016 -172.767105398584 1062.38330631127 327.039637204029" preserveAspectRatio="none" xmlns:xlink="http://www.w3.org/1999/xlink">
  <defs>
  </defs>
  <path d="M256.599365234375,2.81338667869568 L274.846710205078,2.81338667869568 " stroke="#6E6E6E" fill="none" stroke-width="1" stroke-opacity="1" />
  <path d="M280.546752929688,2.8133864402771 L274.846740722656,5.03338623046875 L274.846740722656,0.593386709690094 L280.546752929688,2.8133864402771 " stroke="none" fill="#6E6E6E" fill-rule="evenodd" stroke-width="0" fill-opacity="1" />
  <path d="M280.546752929688,2.8133864402771 L274.846740722656,5.03338623046875 L274.846740722656,0.593386709690094 L280.546752929688,2.8133864402771 " stroke="#6E6E6E" fill="none" stroke-width="1" stroke-opacity="1" />
  <path d="M174.501388549805,-38.1404457092285 L189.316421508789,-24.6494045257568 " stroke="#6E6E6E" fill="none" stroke-width="1" stroke-opacity="1" />
  <path d="M193.530838012695,-20.8116149902344 L187.821701049805,-23.0079975128174 L190.811126708984,-26.2908115386963 L193.530838012695,-20.8116149902344 " stroke="none" fill="#6E6E6E" fill-rule="evenodd" stroke-width="0" fill-opacity="1" />
  <path d="M193.530838012695,-20.8116149902344 L187.821701049805,-23.0079975128174 L190.811126708984,-26.2908115386963 L193.530838012695,-20.8116149902344 " stroke="#6E6E6E" fill="none" stroke-width="1" stroke-opacity="1" />
  <path d="M354.738922119141,2.08513379096985 L384.936401367188,1.49185013771057 " stroke="#6E6E6E" fill="none" stroke-width="1" stroke-opacity="1" />
  <path d="M390.63525390625,1.37988483905792 L384.97998046875,3.71142148971558 L384.892761230469,-0.727721571922302 L390.63525390625,1.37988483905792 " stroke="none" fill="#6E6E6E" fill-rule="evenodd" stroke-width="0" fill-opacity="1" />
  <path d="M390.63525390625,1.37988483905792 L384.97998046875,3.71142148971558 L384.892761230469,-0.727721571922302 L390.63525390625,1.37988483905792 " stroke="#6E6E6E" fill="none" stroke-width="1" stroke-opacity="1" />
  <path d="M368.815887451172,57.7752342224121 L399.289520263672,28.2423305511475 " stroke="#6E6E6E" fill="none" stroke-width="1" stroke-opacity="1" />
  <path d="M403.382720947266,24.2754955291748 L400.834503173828,29.8365211486816 L397.744537353516,26.6481399536133 L403.382720947266,24.2754955291748 " stroke="none" fill="#6E6E6E" fill-rule="evenodd" stroke-width="0" fill-opacity="1" />
  <path d="M403.382720947266,24.2754955291748 L400.834503173828,29.8365211486816 L397.744537353516,26.6481399536133 L403.382720947266,24.2754955291748 " stroke="#6E6E6E" fill="none" stroke-width="1" stroke-opacity="1" />
  <path d="M464.885284423828,0.650496661663055 L474.185302734375,0.650496661663055 " stroke="#6E6E6E" fill="none" stroke-width="1" stroke-opacity="1" />
  <path d="M479.885284423828,0.650496482849121 L474.185272216797,2.87049651145935 L474.185272216797,-1.56950330734253 L479.885284423828,0.650496482849121 " stroke="none" fill="#6E6E6E" fill-rule="evenodd" stroke-width="0" fill-opacity="1" />
  <path d="M479.885284423828,0.650496482849121 L474.185272216797,2.87049651145935 L474.185272216797,-1.56950330734253 L479.885284423828,0.650496482849121 " stroke="#6E6E6E" fill="none" stroke-width="1" stroke-opacity="1" />
  <path d="M151.095703125,3.98134827613831 L176.650192260742,3.54485750198364 " stroke="#6E6E6E" fill="none" stroke-width="1" stroke-opacity="1" />
  <path d="M182.349365234375,3.4475109577179 L176.688110351563,5.76453304290771 L176.612289428711,1.32518112659454 L182.349365234375,3.4475109577179 " stroke="none" fill="#6E6E6E" fill-rule="evenodd" stroke-width="0" fill-opacity="1" />
  <path d="M182.349365234375,3.4475109577179 L176.688110351563,5.76453304290771 L176.612289428711,1.32518112659454 L182.349365234375,3.4475109577179 " stroke="#6E6E6E" fill="none" stroke-width="1" stroke-opacity="1" />
  <path d="M-29.9319877624512,-119.623229980469 L634.234619140625,-119.623229980469 L634.234619140625,-82.1232299804688 L-29.9319877624512,-82.1232299804688 L-29.9319877624512,-119.623229980469 " stroke="none" fill="none" fill-rule="evenodd" stroke-width="0" fill-opacity="0" />
  <text x="16.0075225830078" y="35.5951042175293" dx="0" dy="0" font-family="Arial" font-size="17.9999994635582pt" fill="#555555" style="text-anchor:start" font-weight="bold" transform="matrix(0.750000 0.000000 0.000000 0.750000 -29.9319877624512 -119.623229980469)">Process LiDAR Project Area Data To VegProject_PolyEdit Feature Service</text>
  <path d="M-29.9319877624512,-119.623229980469 L634.234619140625,-119.623229980469 L634.234619140625,-82.1232299804688 L-29.9319877624512,-82.1232299804688 L-29.9319877624512,-119.623229980469 " stroke="none" fill="none" stroke-width="0.75" stroke-opacity="0" />
  <path d="M151.145950317383,4.61460876464844 C151.145935058594,17.66233253479 134.524520874023,28.2396068572998 114.020965576172,28.2396106719971 C93.5173950195313,28.2396144866943 76.8959579467773,17.6623439788818 76.8959579467773,4.61461448669434 C76.8959579467773,4.61461448669434 76.8959579467773,4.61461448669434 76.8959579467773,4.61461448669434 L76.8959579467773,4.61463165283203 C76.8959350585938,-8.4330940246582 93.5173568725586,-19.0103778839111 114.020919799805,-19.0103855133057 C134.524490356445,-19.0103969573975 151.145935058594,-8.43312931060791 151.145950317383,4.61461448669434 C151.145950317383,4.61461448669434 151.145950317383,4.61461448669434 151.145950317383,4.61461448669434 " stroke="none" fill="#70AECC" fill-rule="evenodd" stroke-width="0" fill-opacity="1" />
  <text x="3.51352214813232" y="29.8967189788818" dx="0" dy="0" font-family="Arial" font-size="8.99999973177911pt" fill="#000000" style="text-anchor:start" transform="matrix(0.750000 0.000000 0.000000 0.750000 76.8959579467773 -19.0103855133057)">Input Layer to be </text>
  <text x="17.8595237731934" y="43.6967163085938" dx="0" dy="0" font-family="Arial" font-size="8.99999973177911pt" fill="#000000" style="text-anchor:start" transform="matrix(0.750000 0.000000 0.000000 0.750000 76.8959579467773 -19.0103855133057)">Processed</text>
  <path d="M151.145950317383,4.61460876464844 C151.145935058594,17.66233253479 134.524520874023,28.2396068572998 114.020965576172,28.2396106719971 C93.5173950195313,28.2396144866943 76.8959579467773,17.6623439788818 76.8959579467773,4.61461448669434 C76.8959579467773,4.61461448669434 76.8959579467773,4.61461448669434 76.8959579467773,4.61461448669434 L76.8959579467773,4.61463165283203 C76.8959350585938,-8.4330940246582 93.5173568725586,-19.0103778839111 114.020919799805,-19.0103855133057 C134.524490356445,-19.0103969573975 151.145935058594,-8.43312931060791 151.145950317383,4.61461448669434 C151.145950317383,4.61461448669434 151.145950317383,4.61461448669434 151.145950317383,4.61461448669434 " stroke="none" fill="none" stroke-width="0.75" stroke-opacity="0" />
  <path d="M399.139221191406,-22.9745025634766 L456.381317138672,-22.9745025634766 L456.381317138672,-22.9745025634766 C461.077911376953,-22.9745101928711 464.88525390625,-19.1671752929688 464.88525390625,-14.4705686569214 C464.88525390625,-14.4705667495728 464.88525390625,-14.4705648422241 464.88525390625,-14.4705638885498 L464.885284423828,-14.4705657958984 L464.885284423828,15.7715606689453 L464.88525390625,15.7715530395508 C464.88525390625,20.468147277832 461.077911376953,24.2754898071289 456.381317138672,24.2754936218262 L456.381317138672,24.2754974365234 L399.139221191406,24.2754974365234 L399.139221191406,24.2754936218262 C394.442626953125,24.2754974365234 390.635284423828,20.4681549072266 390.635284423828,15.7715606689453 L390.635284423828,-14.4705657958984 L390.63525390625,-14.4705610275269 C390.63525390625,-19.1671562194824 394.442596435547,-22.9745006561279 399.139190673828,-22.9745044708252 " stroke="none" fill="#F2E279" fill-rule="evenodd" stroke-width="0" fill-opacity="1" />
  <text x="25.5195236206055" y="36.7967185974121" dx="0" dy="0" font-family="Arial" font-size="8.99999973177911pt" fill="#000000" style="text-anchor:start" transform="matrix(0.750000 0.000000 0.000000 0.750000 390.635284423828 -22.9745025634766)">Append</text>
  <path d="M399.139221191406,-22.9745025634766 L456.381317138672,-22.9745025634766 L456.381317138672,-22.9745025634766 C461.077911376953,-22.9745101928711 464.88525390625,-19.1671752929688 464.88525390625,-14.4705686569214 C464.88525390625,-14.4705667495728 464.88525390625,-14.4705648422241 464.88525390625,-14.4705638885498 L464.885284423828,-14.4705657958984 L464.885284423828,15.7715606689453 L464.88525390625,15.7715530395508 C464.88525390625,20.468147277832 461.077911376953,24.2754898071289 456.381317138672,24.2754936218262 L456.381317138672,24.2754974365234 L399.139221191406,24.2754974365234 L399.139221191406,24.2754936218262 C394.442626953125,24.2754974365234 390.635284423828,20.4681549072266 390.635284423828,15.7715606689453 L390.635284423828,-14.4705657958984 L390.63525390625,-14.4705610275269 C390.63525390625,-19.1671562194824 394.442596435547,-22.9745006561279 399.139190673828,-22.9745044708252 " stroke="none" fill="none" stroke-width="0.75" stroke-opacity="0" />
  <path d="M554.13525390625,0.650491714477539 C554.13525390625,13.6982154846191 537.513793945313,24.2754898071289 517.01025390625,24.2754936218262 C496.506713867188,24.2754974365234 479.885284423828,13.6982269287109 479.885284423828,0.650497436523438 C479.885284423828,0.650497436523438 479.885284423828,0.650497436523438 479.885284423828,0.650497436523438 L479.885284423828,0.650514602661133 C479.88525390625,-12.3972110748291 496.506683349609,-22.974494934082 517.010192871094,-22.9745025634766 C537.513793945313,-22.9745140075684 554.13525390625,-12.3972463607788 554.13525390625,0.650497436523438 C554.13525390625,0.650497436523438 554.13525390625,0.650497436523438 554.13525390625,0.650497436523438 " stroke="none" fill="#83CC7C" fill-rule="evenodd" stroke-width="0" fill-opacity="1" />
  <text x="0.84285569190979" y="36.7967185974121" dx="0" dy="0" font-family="Arial" font-size="8.99999973177911pt" fill="#000000" style="text-anchor:start" transform="matrix(0.750000 0.000000 0.000000 0.750000 479.885284423828 -22.9745025634766)">VegProject_Po</text>
  <text x="77.9015274047852" y="36.7967185974121" dx="0" dy="0" font-family="Arial" font-size="8.99999973177911pt" fill="#000000" style="text-anchor:start" transform="matrix(0.750000 0.000000 0.000000 0.750000 479.885284423828 -22.9745025634766)"> ...</text>
  <path d="M554.13525390625,0.650491714477539 C554.13525390625,13.6982154846191 537.513793945313,24.2754898071289 517.01025390625,24.2754936218262 C496.506713867188,24.2754974365234 479.885284423828,13.6982269287109 479.885284423828,0.650497436523438 C479.885284423828,0.650497436523438 479.885284423828,0.650497436523438 479.885284423828,0.650497436523438 L479.885284423828,0.650514602661133 C479.88525390625,-12.3972110748291 496.506683349609,-22.974494934082 517.010192871094,-22.9745025634766 C537.513793945313,-22.9745140075684 554.13525390625,-12.3972463607788 554.13525390625,0.650497436523438 C554.13525390625,0.650497436523438 554.13525390625,0.650497436523438 554.13525390625,0.650497436523438 " stroke="none" fill="none" stroke-width="0.75" stroke-opacity="0" />
  <path d="M385.584014892578,77.5036468505859 C385.584014892578,90.5513687133789 368.962585449219,101.128646850586 348.459045410156,101.128646850586 C327.955474853516,101.12865447998 311.334045410156,90.551383972168 311.334045410156,77.5036544799805 C311.334045410156,77.5036544799805 311.334045410156,77.5036544799805 311.334045410156,77.5036544799805 L311.334045410156,77.5036697387695 C311.334014892578,64.455940246582 327.955444335938,53.878662109375 348.458984375,53.8786544799805 C368.962554931641,53.8786430358887 385.584014892578,64.4559097290039 385.584014892578,77.5036544799805 C385.584014892578,77.5036544799805 385.584014892578,77.5036544799805 385.584014892578,77.5036544799805 " stroke="none" fill="#70AECC" fill-rule="evenodd" stroke-width="0" fill-opacity="1" />
  <text x="0.84285569190979" y="29.8967189788818" dx="0" dy="0" font-family="Arial" font-size="8.99999973177911pt" fill="#000000" style="text-anchor:start" transform="matrix(0.750000 0.000000 0.000000 0.750000 311.334045410156 53.8786544799805)">VegProject_Po</text>
  <text x="77.9015274047852" y="29.8967189788818" dx="0" dy="0" font-family="Arial" font-size="8.99999973177911pt" fill="#000000" style="text-anchor:start" transform="matrix(0.750000 0.000000 0.000000 0.750000 311.334045410156 53.8786544799805)"> ...</text>
  <text x="40.8768539428711" y="43.6967163085938" dx="0" dy="0" font-family="Arial" font-size="8.99999973177911pt" fill="#000000" style="text-anchor:start" transform="matrix(0.750000 0.000000 0.000000 0.750000 311.334045410156 53.8786544799805)">(2)</text>
  <path d="M385.584014892578,77.5036468505859 C385.584014892578,90.5513687133789 368.962585449219,101.128646850586 348.459045410156,101.128646850586 C327.955474853516,101.12865447998 311.334045410156,90.551383972168 311.334045410156,77.5036544799805 C311.334045410156,77.5036544799805 311.334045410156,77.5036544799805 311.334045410156,77.5036544799805 L311.334045410156,77.5036697387695 C311.334014892578,64.455940246582 327.955444335938,53.878662109375 348.458984375,53.8786544799805 C368.962554931641,53.8786430358887 385.584014892578,64.4559097290039 385.584014892578,77.5036544799805 C385.584014892578,77.5036544799805 385.584014892578,77.5036544799805 385.584014892578,77.5036544799805 " stroke="none" fill="none" stroke-width="0.75" stroke-opacity="0" />
  <path d="M190.853302001953,-20.8116130828857 L248.095413208008,-20.8116130828857 L248.095397949219,-20.8116130828857 C252.7919921875,-20.8116207122803 256.599334716797,-17.0042858123779 256.599334716797,-12.3076791763306 C256.599334716797,-12.3076772689819 256.599334716797,-12.3076753616333 256.599334716797,-12.307674407959 L256.599365234375,-12.3076763153076 L256.599365234375,17.9344501495361 L256.599334716797,17.9344425201416 C256.599334716797,22.6310367584229 252.792007446289,26.4383792877197 248.095413208008,26.438383102417 L248.095413208008,26.4383869171143 L190.853302001953,26.4383869171143 L190.853302001953,26.438383102417 C186.156707763672,26.4383869171143 182.349365234375,22.6310443878174 182.349365234375,17.9344501495361 L182.349365234375,-12.3076763153076 L182.349349975586,-12.307671546936 C182.349349975586,-17.0042667388916 186.156692504883,-20.8116111755371 190.853286743164,-20.8116149902344 " stroke="none" fill="#F2E279" fill-rule="evenodd" stroke-width="0" fill-opacity="1" />
  <text x="6.18952226638794" y="29.8967189788818" dx="0" dy="0" font-family="Arial" font-size="8.99999973177911pt" fill="#000000" style="text-anchor:start" transform="matrix(0.750000 0.000000 0.000000 0.750000 182.349365234375 -20.8116130828857)">Calculate Field </text>
  <text x="40.8768539428711" y="43.6967163085938" dx="0" dy="0" font-family="Arial" font-size="8.99999973177911pt" fill="#000000" style="text-anchor:start" transform="matrix(0.750000 0.000000 0.000000 0.750000 182.349365234375 -20.8116130828857)">(2)</text>
  <path d="M190.853302001953,-20.8116130828857 L248.095413208008,-20.8116130828857 L248.095397949219,-20.8116130828857 C252.7919921875,-20.8116207122803 256.599334716797,-17.0042858123779 256.599334716797,-12.3076791763306 C256.599334716797,-12.3076772689819 256.599334716797,-12.3076753616333 256.599334716797,-12.307674407959 L256.599365234375,-12.3076763153076 L256.599365234375,17.9344501495361 L256.599334716797,17.9344425201416 C256.599334716797,22.6310367584229 252.792007446289,26.4383792877197 248.095413208008,26.438383102417 L248.095413208008,26.4383869171143 L190.853302001953,26.4383869171143 L190.853302001953,26.438383102417 C186.156707763672,26.4383869171143 182.349365234375,22.6310443878174 182.349365234375,17.9344501495361 L182.349365234375,-12.3076763153076 L182.349349975586,-12.307671546936 C182.349349975586,-17.0042667388916 186.156692504883,-20.8116111755371 190.853286743164,-20.8116149902344 " stroke="none" fill="none" stroke-width="0.75" stroke-opacity="0" />
  <path d="M354.796722412109,2.81338119506836 C354.796722412109,15.86110496521 338.17529296875,26.4383792877197 317.671752929688,26.438383102417 C297.168182373047,26.4383869171143 280.546752929688,15.8611164093018 280.546752929688,2.81338691711426 C280.546752929688,2.81338691711426 280.546752929688,2.81338691711426 280.546752929688,2.81338691711426 L280.546752929688,2.81340408325195 C280.546722412109,-10.2343215942383 297.168151855469,-20.8116054534912 317.671691894531,-20.8116130828857 C338.175262451172,-20.8116245269775 354.796722412109,-10.234356880188 354.796722412109,2.81338691711426 C354.796722412109,2.81338691711426 354.796722412109,2.81338691711426 354.796722412109,2.81338691711426 " stroke="none" fill="#83CC7C" fill-rule="evenodd" stroke-width="0" fill-opacity="1" />
  <text x="4.18218898773193" y="29.8967189788818" dx="0" dy="0" font-family="Arial" font-size="8.99999973177911pt" fill="#000000" style="text-anchor:start" transform="matrix(0.750000 0.000000 0.000000 0.750000 280.546752929688 -20.8116130828857)">project_area_</text>
  <text x="74.898193359375" y="29.8967189788818" dx="0" dy="0" font-family="Arial" font-size="8.99999973177911pt" fill="#000000" style="text-anchor:start" transform="matrix(0.750000 0.000000 0.000000 0.750000 280.546752929688 -20.8116130828857)"> ...</text>
  <text x="40.8768539428711" y="43.6967163085938" dx="0" dy="0" font-family="Arial" font-size="8.99999973177911pt" fill="#000000" style="text-anchor:start" transform="matrix(0.750000 0.000000 0.000000 0.750000 280.546752929688 -20.8116130828857)">(2)</text>
  <path d="M354.796722412109,2.81338119506836 C354.796722412109,15.86110496521 338.17529296875,26.4383792877197 317.671752929688,26.438383102417 C297.168182373047,26.4383869171143 280.546752929688,15.8611164093018 280.546752929688,2.81338691711426 C280.546752929688,2.81338691711426 280.546752929688,2.81338691711426 280.546752929688,2.81338691711426 L280.546752929688,2.81340408325195 C280.546722412109,-10.2343215942383 297.168151855469,-20.8116054534912 317.671691894531,-20.8116130828857 C338.175262451172,-20.8116245269775 354.796722412109,-10.234356880188 354.796722412109,2.81338691711426 C354.796722412109,2.81338691711426 354.796722412109,2.81338691711426 354.796722412109,2.81338691711426 " stroke="none" fill="none" stroke-width="0.75" stroke-opacity="0" />
  <path d="M186.417877197266,-52.6443252563477 C186.417877197266,-42.8585319519043 173.951812744141,-34.9255752563477 158.574142456055,-34.9255714416504 C143.196472167969,-34.9255676269531 130.730392456055,-42.8585205078125 130.730392456055,-52.6443176269531 C130.730392456055,-52.6443176269531 130.730392456055,-52.6443176269531 130.730392456055,-52.6443176269531 L130.730377197266,-52.6443061828613 C130.730377197266,-62.4300994873047 143.196441650391,-70.3630676269531 158.574111938477,-70.3630676269531 C173.951782226563,-70.3630752563477 186.417861938477,-62.4301261901855 186.417877197266,-52.6443176269531 C186.417877197266,-52.6443176269531 186.417877197266,-52.6443176269531 186.417877197266,-52.6443176269531 " stroke="none" fill="#52C0CC" fill-rule="evenodd" stroke-width="0" fill-opacity="1" />
  <text x="12.4961881637573" y="28.9217185974121" dx="0" dy="0" font-family="Arial" font-size="8.99999973177911pt" fill="#000000" style="text-anchor:start" transform="matrix(0.750000 0.000000 0.000000 0.750000 130.730392456055 -70.3630676269531)">Division</text>
  <path d="M186.417877197266,-52.6443252563477 C186.417877197266,-42.8585319519043 173.951812744141,-34.9255752563477 158.574142456055,-34.9255714416504 C143.196472167969,-34.9255676269531 130.730392456055,-42.8585205078125 130.730392456055,-52.6443176269531 C130.730392456055,-52.6443176269531 130.730392456055,-52.6443176269531 130.730392456055,-52.6443176269531 L130.730377197266,-52.6443061828613 C130.730377197266,-62.4300994873047 143.196441650391,-70.3630676269531 158.574111938477,-70.3630676269531 C173.951782226563,-70.3630752563477 186.417861938477,-62.4301261901855 186.417877197266,-52.6443176269531 C186.417877197266,-52.6443176269531 186.417877197266,-52.6443176269531 186.417877197266,-52.6443176269531 " stroke="none" fill="none" stroke-width="0.75" stroke-opacity="0" />
  <path d="M158.645935058594,-12.4478874206543 C158.645935058594,-8.30575275421143 155.288070678711,-4.9478874206543 151.145950317383,-4.9478874206543 C147.003814697266,-4.94788551330566 143.645950317383,-8.30574607849121 143.645950317383,-12.4478807449341 L143.645935058594,-12.4478797912598 C143.645935058594,-16.590015411377 147.003799438477,-19.947883605957 151.145935058594,-19.9478855133057 C155.288070678711,-19.9478931427002 158.645935058594,-16.5900344848633 158.645935058594,-12.4478874206543 C158.645935058594,-12.44788646698 158.645935058594,-12.4478855133057 158.645935058594,-12.4478855133057 " stroke="none" fill="none" fill-rule="evenodd" stroke-width="0" fill-opacity="0" />
  <text x="2.70618915557861" y="15.2967185974121" dx="0" dy="0" font-family="Arial" font-size="8.99999973177911pt" fill="#555555" style="text-anchor:start" font-weight="bold" transform="matrix(0.750000 0.000000 0.000000 0.750000 143.645950317383 -19.9478855133057)">P</text>
  <path d="M158.645935058594,-12.4478874206543 C158.645935058594,-8.30575275421143 155.288070678711,-4.9478874206543 151.145950317383,-4.9478874206543 C147.003814697266,-4.94788551330566 143.645950317383,-8.30574607849121 143.645950317383,-12.4478807449341 L143.645935058594,-12.4478797912598 C143.645935058594,-16.590015411377 147.003799438477,-19.947883605957 151.145935058594,-19.9478855133057 C155.288070678711,-19.9478931427002 158.645935058594,-16.5900344848633 158.645935058594,-12.4478874206543 C158.645935058594,-12.44788646698 158.645935058594,-12.4478855133057 158.645935058594,-12.4478855133057 " stroke="none" fill="none" stroke-width="0.75" stroke-opacity="0" />
  <path d="M193.917877197266,-63.8005714416504 C193.917877197266,-59.6584358215332 190.560012817383,-56.3005714416504 186.417892456055,-56.3005714416504 C182.275756835938,-56.3005676269531 178.917892456055,-59.6584281921387 178.917892456055,-63.8005638122559 L178.917877197266,-63.8005638122559 C178.917877197266,-67.9427032470703 182.275741577148,-71.3005676269531 186.417877197266,-71.3005676269531 C190.560012817383,-71.3005752563477 193.917877197266,-67.9427185058594 193.917877197266,-63.8005714416504 C193.917877197266,-63.8005714416504 193.917877197266,-63.8005676269531 193.917877197266,-63.8005676269531 " stroke="none" fill="none" fill-rule="evenodd" stroke-width="0" fill-opacity="0" />
  <text x="2.70618915557861" y="15.2967185974121" dx="0" dy="0" font-family="Arial" font-size="8.99999973177911pt" fill="#555555" style="text-anchor:start" font-weight="bold" transform="matrix(0.750000 0.000000 0.000000 0.750000 178.917892456055 -71.3005676269531)">P</text>
  <path d="M193.917877197266,-63.8005714416504 C193.917877197266,-59.6584358215332 190.560012817383,-56.3005714416504 186.417892456055,-56.3005714416504 C182.275756835938,-56.3005676269531 178.917892456055,-59.6584281921387 178.917892456055,-63.8005638122559 L178.917877197266,-63.8005638122559 C178.917877197266,-67.9427032470703 182.275741577148,-71.3005676269531 186.417877197266,-71.3005676269531 C190.560012817383,-71.3005752563477 193.917877197266,-67.9427185058594 193.917877197266,-63.8005714416504 C193.917877197266,-63.8005714416504 193.917877197266,-63.8005676269531 193.917877197266,-63.8005676269531 " stroke="none" fill="none" stroke-width="0.75" stroke-opacity="0" />
</svg>