<?xml version="1.0"?>
<svg xmlns="http://www.w3.org/2000/svg" version="1.1" width="1005pt" height="309.375pt" viewBox="528.723266601563 26.4218330383301 1005 309.375" preserveAspectRatio="none" xmlns:xlink="http://www.w3.org/1999/xlink">
  <defs>
  </defs>
  <path d="M869.61474609375,162.334838867188 L884.344299316406,180.144317626953 " stroke="#6E6E6E" fill="none" stroke-width="1" stroke-opacity="1" />
  <path d="M887.97705078125,184.536682128906 L882.633605957031,181.559173583984 L886.054992675781,178.729431152344 L887.97705078125,184.536682128906 " stroke="none" fill="#6E6E6E" fill-rule="evenodd" stroke-width="0" fill-opacity="1" />
  <path d="M887.97705078125,184.536682128906 L882.633605957031,181.559173583984 L886.054992675781,178.729431152344 L887.97705078125,184.536682128906 " stroke="#6E6E6E" fill="none" stroke-width="1" stroke-opacity="1" />
  <path d="M667.493591308594,207.643630981445 L864.691467285156,208.069244384766 " stroke="#6E6E6E" fill="none" stroke-width="1" stroke-opacity="1" />
  <path d="M870.391418457031,208.08154296875 L864.686645507813,210.28923034668 L864.696228027344,205.849243164063 L870.391418457031,208.08154296875 " stroke="none" fill="#6E6E6E" fill-rule="evenodd" stroke-width="0" fill-opacity="1" />
  <path d="M870.391418457031,208.08154296875 L864.686645507813,210.28923034668 L864.696228027344,205.849243164063 L870.391418457031,208.08154296875 " stroke="#6E6E6E" fill="none" stroke-width="1" stroke-opacity="1" />
  <path d="M944.641479492188,207.805404663086 L962.407470703125,207.634918212891 " stroke="#6E6E6E" fill="none" stroke-width="1" stroke-opacity="1" />
  <path d="M968.107116699219,207.580200195313 L962.4287109375,209.854797363281 L962.386108398438,205.415008544922 L968.107116699219,207.580200195313 " stroke="none" fill="#6E6E6E" fill-rule="evenodd" stroke-width="0" fill-opacity="1" />
  <path d="M968.107116699219,207.580200195313 L962.4287109375,209.854797363281 L962.386108398438,205.415008544922 L968.107116699219,207.580200195313 " stroke="#6E6E6E" fill="none" stroke-width="1" stroke-opacity="1" />
  <path d="M667.5,207.563522338867 L676.799987792969,207.563522338867 " stroke="#6E6E6E" fill="none" stroke-width="1" stroke-opacity="1" />
  <path d="M682.5,207.563522338867 L676.799987792969,209.78352355957 L676.799987792969,205.343536376953 L682.5,207.563522338867 " stroke="none" fill="#6E6E6E" fill-rule="evenodd" stroke-width="0" fill-opacity="1" />
  <path d="M682.5,207.563522338867 L676.799987792969,209.78352355957 L676.799987792969,205.343536376953 L682.5,207.563522338867 " stroke="#6E6E6E" fill="none" stroke-width="1" stroke-opacity="1" />
  <path d="M756.75,207.563522338867 L766.049987792969,207.563522338867 " stroke="#6E6E6E" fill="none" stroke-width="1" stroke-opacity="1" />
  <path d="M771.75,207.563522338867 L766.049987792969,209.78352355957 L766.049987792969,205.343536376953 L771.75,207.563522338867 " stroke="none" fill="#6E6E6E" fill-rule="evenodd" stroke-width="0" fill-opacity="1" />
  <path d="M771.75,207.563522338867 L766.049987792969,209.78352355957 L766.049987792969,205.343536376953 L771.75,207.563522338867 " stroke="#6E6E6E" fill="none" stroke-width="1" stroke-opacity="1" />
  <path d="M1069.9638671875,163.600112915039 L1081.66735839844,178.211883544922 " stroke="#6E6E6E" fill="none" stroke-width="1" stroke-opacity="1" />
  <path d="M1085.23071289063,182.660751342773 L1079.9345703125,179.599731445313 L1083.40002441406,176.82405090332 L1085.23071289063,182.660751342773 " stroke="none" fill="#6E6E6E" fill-rule="evenodd" stroke-width="0" fill-opacity="1" />
  <path d="M1085.23071289063,182.660751342773 L1079.9345703125,179.599731445313 L1083.40002441406,176.82405090332 L1085.23071289063,182.660751342773 " stroke="#6E6E6E" fill="none" stroke-width="1" stroke-opacity="1" />
  <path d="M1042.30102539063,206.872344970703 L1061.32873535156,206.69189453125 " stroke="#6E6E6E" fill="none" stroke-width="1" stroke-opacity="1" />
  <path d="M1067.02856445313,206.637832641602 L1061.34985351563,208.91178894043 L1061.30773925781,204.471984863281 L1067.02856445313,206.637832641602 " stroke="none" fill="#6E6E6E" fill-rule="evenodd" stroke-width="0" fill-opacity="1" />
  <path d="M1067.02856445313,206.637832641602 L1061.34985351563,208.91178894043 L1061.30773925781,204.471984863281 L1067.02856445313,206.637832641602 " stroke="#6E6E6E" fill="none" stroke-width="1" stroke-opacity="1" />
  <path d="M1141.27844238281,206.285751342773 L1156.95349121094,206.285751342773 " stroke="#6E6E6E" fill="none" stroke-width="1" stroke-opacity="1" />
  <path d="M1162.65356445313,206.285736083984 L1156.95349121094,208.505737304688 L1156.95349121094,204.06575012207 L1162.65356445313,206.285736083984 " stroke="none" fill="#6E6E6E" fill-rule="evenodd" stroke-width="0" fill-opacity="1" />
  <path d="M1162.65356445313,206.285736083984 L1156.95349121094,208.505737304688 L1156.95349121094,204.06575012207 L1162.65356445313,206.285736083984 " stroke="#6E6E6E" fill="none" stroke-width="1" stroke-opacity="1" />
  <path d="M1233.48449707031,216.144104003906 L1291.97570800781,233.251617431641 " stroke="#6E6E6E" fill="none" stroke-width="1" stroke-opacity="1" />
  <path d="M1297.44653320313,234.85173034668 L1291.35241699219,235.382354736328 L1292.59887695313,231.120895385742 L1297.44653320313,234.85173034668 " stroke="none" fill="#6E6E6E" fill-rule="evenodd" stroke-width="0" fill-opacity="1" />
  <path d="M1297.44653320313,234.85173034668 L1291.35241699219,235.382354736328 L1292.59887695313,231.120895385742 L1297.44653320313,234.85173034668 " stroke="#6E6E6E" fill="none" stroke-width="1" stroke-opacity="1" />
  <path d="M1245.61804199219,266.600646972656 L1291.8974609375,255.732009887695 " stroke="#6E6E6E" fill="none" stroke-width="1" stroke-opacity="1" />
  <path d="M1297.44641113281,254.428817749023 L1292.40502929688,257.893188476563 L1291.38989257813,253.57080078125 L1297.44641113281,254.428817749023 " stroke="none" fill="#6E6E6E" fill-rule="evenodd" stroke-width="0" fill-opacity="1" />
  <path d="M1297.44641113281,254.428817749023 L1292.40502929688,257.893188476563 L1291.38989257813,253.57080078125 L1297.44641113281,254.428817749023 " stroke="#6E6E6E" fill="none" stroke-width="1" stroke-opacity="1" />
  <path d="M1371.69653320313,245.710067749023 L1389.24645996094,245.710067749023 " stroke="#6E6E6E" fill="none" stroke-width="1" stroke-opacity="1" />
  <path d="M1394.94653320313,245.710067749023 L1389.24645996094,247.930068969727 L1389.24645996094,243.490081787109 L1394.94653320313,245.710067749023 " stroke="none" fill="#6E6E6E" fill-rule="evenodd" stroke-width="0" fill-opacity="1" />
  <path d="M1394.94653320313,245.710067749023 L1389.24645996094,247.930068969727 L1389.24645996094,243.490081787109 L1394.94653320313,245.710067749023 " stroke="#6E6E6E" fill="none" stroke-width="1" stroke-opacity="1" />
  <path d="M673.775329589844,63.8210906982422 L1337.94189453125,63.8210906982422 L1337.94189453125,101.321090698242 L673.775329589844,101.321090698242 L673.775329589844,63.8210906982422 " stroke="none" fill="none" fill-rule="evenodd" stroke-width="0" fill-opacity="0" />
  <text x="2.02752232551575" y="35.5951042175293" dx="0" dy="0" font-family="Arial" font-size="17.9999994635582pt" fill="#555555" style="text-anchor:start" font-weight="bold" transform="matrix(0.750000 0.000000 0.000000 0.750000 673.775329589844 63.8210906982422)">Process Offshore Project Area Data Revision To VegProject_PolyEdit Feat</text>
  <text x="840.938232421875" y="35.5951042175293" dx="0" dy="0" font-family="Arial" font-size="17.9999994635582pt" fill="#555555" style="text-anchor:start" font-weight="bold" transform="matrix(0.750000 0.000000 0.000000 0.750000 673.775329589844 63.8210906982422)"> ...</text>
  <path d="M673.775329589844,63.8210906982422 L1337.94189453125,63.8210906982422 L1337.94189453125,101.321090698242 L673.775329589844,101.321090698242 L673.775329589844,63.8210906982422 " stroke="none" fill="none" stroke-width="0.75" stroke-opacity="0" />
  <path d="M878.895385742188,184.536682128906 L936.137512207031,184.536682128906 L936.137512207031,184.536682128906 C940.834106445313,184.536666870117 944.641418457031,188.344009399414 944.641418457031,193.040603637695 C944.641418457031,193.040603637695 944.641418457031,193.040618896484 944.641418457031,193.040618896484 L944.641479492188,193.040618896484 L944.641479492188,223.282745361328 L944.641418457031,223.282730102539 C944.641418457031,227.97932434082 940.834106445313,231.786666870117 936.137512207031,231.786666870117 L936.137512207031,231.786682128906 L878.895385742188,231.786682128906 L878.895385742188,231.786666870117 C874.198791503906,231.786682128906 870.391479492188,227.979339599609 870.391479492188,223.282745361328 L870.391479492188,193.040618896484 L870.391418457031,193.040618896484 C870.391418457031,188.344024658203 874.198791503906,184.536682128906 878.895385742188,184.536666870117 " stroke="none" fill="#F2E279" fill-rule="evenodd" stroke-width="0" fill-opacity="1" />
  <text x="6.18952226638794" y="36.7967185974121" dx="0" dy="0" font-family="Arial" font-size="8.99999973177911pt" fill="#000000" style="text-anchor:start" transform="matrix(0.750000 0.000000 0.000000 0.750000 870.391479492188 184.536682128906)">Calculate Field</text>
  <path d="M878.895385742188,184.536682128906 L936.137512207031,184.536682128906 L936.137512207031,184.536682128906 C940.834106445313,184.536666870117 944.641418457031,188.344009399414 944.641418457031,193.040603637695 C944.641418457031,193.040603637695 944.641418457031,193.040618896484 944.641418457031,193.040618896484 L944.641479492188,193.040618896484 L944.641479492188,223.282745361328 L944.641418457031,223.282730102539 C944.641418457031,227.97932434082 940.834106445313,231.786666870117 936.137512207031,231.786666870117 L936.137512207031,231.786682128906 L878.895385742188,231.786682128906 L878.895385742188,231.786666870117 C874.198791503906,231.786682128906 870.391479492188,227.979339599609 870.391479492188,223.282745361328 L870.391479492188,193.040618896484 L870.391418457031,193.040618896484 C870.391418457031,188.344024658203 874.198791503906,184.536682128906 878.895385742188,184.536666870117 " stroke="none" fill="none" stroke-width="0.75" stroke-opacity="0" />
  <path d="M1042.32873535156,207.224166870117 C1042.32873535156,220.271896362305 1025.70739746094,230.849166870117 1005.20385742188,230.849166870117 C984.700256347656,230.849182128906 968.078857421875,220.271911621094 968.078857421875,207.224182128906 C968.078857421875,207.224182128906 968.078857421875,207.224182128906 968.078857421875,207.224182128906 L968.078857421875,207.224197387695 C968.078796386719,194.176467895508 984.700256347656,183.599182128906 1005.20379638672,183.599182128906 C1025.70727539063,183.599166870117 1042.32873535156,194.17643737793 1042.32873535156,207.224182128906 C1042.32873535156,207.224182128906 1042.32873535156,207.224182128906 1042.32873535156,207.224182128906 " stroke="none" fill="#83CC7C" fill-rule="evenodd" stroke-width="0" fill-opacity="1" />
  <text x="2.1861891746521" y="29.8967189788818" dx="0" dy="0" font-family="Arial" font-size="8.99999973177911pt" fill="#000000" style="text-anchor:start" transform="matrix(0.750000 0.000000 0.000000 0.750000 968.078857421875 183.599182128906)">Project_Area_</text>
  <text x="76.2281951904297" y="29.8967189788818" dx="0" dy="0" font-family="Arial" font-size="8.99999973177911pt" fill="#000000" style="text-anchor:start" transform="matrix(0.750000 0.000000 0.000000 0.750000 968.078857421875 183.599182128906)"> ...</text>
  <text x="40.8768539428711" y="43.6967163085938" dx="0" dy="0" font-family="Arial" font-size="8.99999973177911pt" fill="#000000" style="text-anchor:start" transform="matrix(0.750000 0.000000 0.000000 0.750000 968.078857421875 183.599182128906)">(3)</text>
  <path d="M1042.32873535156,207.224166870117 C1042.32873535156,220.271896362305 1025.70739746094,230.849166870117 1005.20385742188,230.849166870117 C984.700256347656,230.849182128906 968.078857421875,220.271911621094 968.078857421875,207.224182128906 C968.078857421875,207.224182128906 968.078857421875,207.224182128906 968.078857421875,207.224182128906 L968.078857421875,207.224197387695 C968.078796386719,194.176467895508 984.700256347656,183.599182128906 1005.20379638672,183.599182128906 C1025.70727539063,183.599166870117 1042.32873535156,194.17643737793 1042.32873535156,207.224182128906 C1042.32873535156,207.224182128906 1042.32873535156,207.224182128906 1042.32873535156,207.224182128906 " stroke="none" fill="none" stroke-width="0.75" stroke-opacity="0" />
  <path d="M691.00390625,183.938537597656 L748.246032714844,183.938537597656 L748.246032714844,183.938537597656 C752.942626953125,183.938522338867 756.749938964844,187.745864868164 756.749938964844,192.442459106445 C756.749938964844,192.442459106445 756.749938964844,192.442474365234 756.749938964844,192.442474365234 L756.75,192.442474365234 L756.75,222.684600830078 L756.749938964844,222.684585571289 C756.749938964844,227.38117980957 752.942626953125,231.188522338867 748.246032714844,231.188522338867 L748.246032714844,231.188537597656 L691.00390625,231.188537597656 L691.00390625,231.188522338867 C686.307312011719,231.188537597656 682.5,227.381195068359 682.5,222.684600830078 L682.5,192.442474365234 L682.499938964844,192.442474365234 C682.499938964844,187.745880126953 686.307312011719,183.938537597656 691.00390625,183.938522338867 " stroke="none" fill="#F2E279" fill-rule="evenodd" stroke-width="0" fill-opacity="1" />
  <text x="17.8595237731934" y="29.8967189788818" dx="0" dy="0" font-family="Arial" font-size="8.99999973177911pt" fill="#000000" style="text-anchor:start" transform="matrix(0.750000 0.000000 0.000000 0.750000 682.5 183.938537597656)">Add Fields </text>
  <text x="23.5368556976318" y="43.6967163085938" dx="0" dy="0" font-family="Arial" font-size="8.99999973177911pt" fill="#000000" style="text-anchor:start" transform="matrix(0.750000 0.000000 0.000000 0.750000 682.5 183.938537597656)">(multiple)</text>
  <path d="M691.00390625,183.938537597656 L748.246032714844,183.938537597656 L748.246032714844,183.938537597656 C752.942626953125,183.938522338867 756.749938964844,187.745864868164 756.749938964844,192.442459106445 C756.749938964844,192.442459106445 756.749938964844,192.442474365234 756.749938964844,192.442474365234 L756.75,192.442474365234 L756.75,222.684600830078 L756.749938964844,222.684585571289 C756.749938964844,227.38117980957 752.942626953125,231.188522338867 748.246032714844,231.188522338867 L748.246032714844,231.188537597656 L691.00390625,231.188537597656 L691.00390625,231.188522338867 C686.307312011719,231.188537597656 682.5,227.381195068359 682.5,222.684600830078 L682.5,192.442474365234 L682.499938964844,192.442474365234 C682.499938964844,187.745880126953 686.307312011719,183.938537597656 691.00390625,183.938522338867 " stroke="none" fill="none" stroke-width="0.75" stroke-opacity="0" />
  <path d="M845.999938964844,207.563522338867 C845.999938964844,220.611251831055 829.378540039063,231.188522338867 808.875,231.188522338867 C788.371398925781,231.188537597656 771.75,220.611267089844 771.75,207.563537597656 C771.75,207.563537597656 771.75,207.563537597656 771.75,207.563537597656 L771.75,207.563552856445 C771.749938964844,194.515823364258 788.371398925781,183.938537597656 808.874938964844,183.938537597656 C829.378479003906,183.938522338867 845.999938964844,194.51579284668 845.999938964844,207.563537597656 C845.999938964844,207.563537597656 845.999938964844,207.563537597656 845.999938964844,207.563537597656 " stroke="none" fill="#83CC7C" fill-rule="evenodd" stroke-width="0" fill-opacity="1" />
  <text x="2.1861891746521" y="36.7967185974121" dx="0" dy="0" font-family="Arial" font-size="8.99999973177911pt" fill="#000000" style="text-anchor:start" transform="matrix(0.750000 0.000000 0.000000 0.750000 771.75 183.938537597656)">Project_Area_</text>
  <text x="76.2281951904297" y="36.7967185974121" dx="0" dy="0" font-family="Arial" font-size="8.99999973177911pt" fill="#000000" style="text-anchor:start" transform="matrix(0.750000 0.000000 0.000000 0.750000 771.75 183.938537597656)"> ...</text>
  <path d="M845.999938964844,207.563522338867 C845.999938964844,220.611251831055 829.378540039063,231.188522338867 808.875,231.188522338867 C788.371398925781,231.188537597656 771.75,220.611267089844 771.75,207.563537597656 C771.75,207.563537597656 771.75,207.563537597656 771.75,207.563537597656 L771.75,207.563552856445 C771.749938964844,194.515823364258 788.371398925781,183.938537597656 808.874938964844,183.938537597656 C829.378479003906,183.938522338867 845.999938964844,194.51579284668 845.999938964844,207.563537597656 C845.999938964844,207.563537597656 845.999938964844,207.563537597656 845.999938964844,207.563537597656 " stroke="none" fill="none" stroke-width="0.75" stroke-opacity="0" />
  <path d="M667.499938964844,207.563522338867 C667.499938964844,220.611251831055 650.878540039063,231.188522338867 630.375,231.188522338867 C609.871398925781,231.188537597656 593.25,220.611267089844 593.25,207.563537597656 C593.25,207.563537597656 593.25,207.563537597656 593.25,207.563537597656 L593.25,207.563552856445 C593.249938964844,194.515823364258 609.871398925781,183.938537597656 630.374938964844,183.938537597656 C650.878479003906,183.938522338867 667.499938964844,194.51579284668 667.499938964844,207.563537597656 C667.499938964844,207.563537597656 667.499938964844,207.563537597656 667.499938964844,207.563537597656 " stroke="none" fill="#70AECC" fill-rule="evenodd" stroke-width="0" fill-opacity="1" />
  <text x="8.18685531616211" y="29.8967189788818" dx="0" dy="0" font-family="Arial" font-size="8.99999973177911pt" fill="#000000" style="text-anchor:start" transform="matrix(0.750000 0.000000 0.000000 0.750000 593.25 183.938537597656)">Input Project to </text>
  <text x="10.1855220794678" y="43.6967163085938" dx="0" dy="0" font-family="Arial" font-size="8.99999973177911pt" fill="#000000" style="text-anchor:start" transform="matrix(0.750000 0.000000 0.000000 0.750000 593.25 183.938537597656)">be Processed</text>
  <path d="M667.499938964844,207.563522338867 C667.499938964844,220.611251831055 650.878540039063,231.188522338867 630.375,231.188522338867 C609.871398925781,231.188537597656 593.25,220.611267089844 593.25,207.563537597656 C593.25,207.563537597656 593.25,207.563537597656 593.25,207.563537597656 L593.25,207.563552856445 C593.249938964844,194.515823364258 609.871398925781,183.938537597656 630.374938964844,183.938537597656 C650.878479003906,183.938522338867 667.499938964844,194.51579284668 667.499938964844,207.563537597656 C667.499938964844,207.563537597656 667.499938964844,207.563537597656 667.499938964844,207.563537597656 " stroke="none" fill="none" stroke-width="0.75" stroke-opacity="0" />
  <path d="M884.547668457031,146.72444152832 C884.547668457031,156.510238647461 872.081604003906,164.44319152832 856.703979492188,164.44319152832 C841.326293945313,164.443206787109 828.860229492188,156.51025390625 828.860229492188,146.724456787109 C828.860229492188,146.724456787109 828.860229492188,146.724456787109 828.860229492188,146.724456787109 L828.860168457031,146.724456787109 C828.860168457031,136.938674926758 841.326232910156,129.005706787109 856.703918457031,129.005706787109 C872.081604003906,129.00569152832 884.547668457031,136.93864440918 884.547668457031,146.724456787109 C884.547668457031,146.724456787109 884.547668457031,146.724456787109 884.547668457031,146.724456787109 " stroke="none" fill="#52C0CC" fill-rule="evenodd" stroke-width="0" fill-opacity="1" />
  <text x="23.1561889648438" y="15.1217184066772" dx="0" dy="0" font-family="Arial" font-size="8.99999973177911pt" fill="#000000" style="text-anchor:start" transform="matrix(0.750000 0.000000 0.000000 0.750000 828.860229492188 129.005706787109)">Add </text>
  <text x="12.4961881637573" y="28.9217185974121" dx="0" dy="0" font-family="Arial" font-size="8.99999973177911pt" fill="#000000" style="text-anchor:start" transform="matrix(0.750000 0.000000 0.000000 0.750000 828.860229492188 129.005706787109)">Division </text>
  <text x="17.4961891174316" y="42.7217178344727" dx="0" dy="0" font-family="Arial" font-size="8.99999973177911pt" fill="#000000" style="text-anchor:start" transform="matrix(0.750000 0.000000 0.000000 0.750000 828.860229492188 129.005706787109)">Name</text>
  <path d="M884.547668457031,146.72444152832 C884.547668457031,156.510238647461 872.081604003906,164.44319152832 856.703979492188,164.44319152832 C841.326293945313,164.443206787109 828.860229492188,156.51025390625 828.860229492188,146.724456787109 C828.860229492188,146.724456787109 828.860229492188,146.724456787109 828.860229492188,146.724456787109 L828.860168457031,146.724456787109 C828.860168457031,136.938674926758 841.326232910156,129.005706787109 856.703918457031,129.005706787109 C872.081604003906,129.00569152832 884.547668457031,136.93864440918 884.547668457031,146.724456787109 C884.547668457031,146.724456787109 884.547668457031,146.724456787109 884.547668457031,146.724456787109 " stroke="none" fill="none" stroke-width="0.75" stroke-opacity="0" />
  <path d="M1305.95043945313,222.085083007813 L1363.19250488281,222.085083007813 L1363.19250488281,222.085083007813 C1367.88916015625,222.085067749023 1371.69641113281,225.89241027832 1371.69641113281,230.589004516602 C1371.69641113281,230.589004516602 1371.69641113281,230.589019775391 1371.69641113281,230.589019775391 L1371.69653320313,230.589019775391 L1371.69653320313,260.831146240234 L1371.69641113281,260.831115722656 C1371.69641113281,265.527709960938 1367.88916015625,269.335052490234 1363.19250488281,269.335052490234 L1363.19250488281,269.335083007813 L1305.95043945313,269.335083007813 L1305.95043945313,269.335052490234 C1301.25378417969,269.335083007813 1297.44653320313,265.527740478516 1297.44653320313,260.831146240234 L1297.44653320313,230.589019775391 L1297.44641113281,230.589019775391 C1297.44641113281,225.892425537109 1301.25378417969,222.085083007813 1305.95043945313,222.085067749023 " stroke="none" fill="#F2E279" fill-rule="evenodd" stroke-width="0" fill-opacity="1" />
  <text x="25.5195236206055" y="36.7967185974121" dx="0" dy="0" font-family="Arial" font-size="8.99999973177911pt" fill="#000000" style="text-anchor:start" transform="matrix(0.750000 0.000000 0.000000 0.750000 1297.44653320313 222.085083007813)">Append</text>
  <path d="M1305.95043945313,222.085083007813 L1363.19250488281,222.085083007813 L1363.19250488281,222.085083007813 C1367.88916015625,222.085067749023 1371.69641113281,225.89241027832 1371.69641113281,230.589004516602 C1371.69641113281,230.589004516602 1371.69641113281,230.589019775391 1371.69641113281,230.589019775391 L1371.69653320313,230.589019775391 L1371.69653320313,260.831146240234 L1371.69641113281,260.831115722656 C1371.69641113281,265.527709960938 1367.88916015625,269.335052490234 1363.19250488281,269.335052490234 L1363.19250488281,269.335083007813 L1305.95043945313,269.335083007813 L1305.95043945313,269.335052490234 C1301.25378417969,269.335083007813 1297.44653320313,265.527740478516 1297.44653320313,260.831146240234 L1297.44653320313,230.589019775391 L1297.44641113281,230.589019775391 C1297.44641113281,225.892425537109 1301.25378417969,222.085083007813 1305.95043945313,222.085067749023 " stroke="none" fill="none" stroke-width="0.75" stroke-opacity="0" />
  <path d="M1469.19641113281,245.710067749023 C1469.19641113281,258.757781982422 1452.57507324219,269.335052490234 1432.07153320313,269.335052490234 C1411.56787109375,269.335083007813 1394.94653320313,258.7578125 1394.94653320313,245.710083007813 C1394.94653320313,245.710083007813 1394.94653320313,245.710083007813 1394.94653320313,245.710083007813 L1394.94653320313,245.710098266602 C1394.94641113281,232.662368774414 1411.56787109375,222.085083007813 1432.07141113281,222.085083007813 C1452.57495117188,222.085067749023 1469.19641113281,232.662338256836 1469.19641113281,245.710083007813 C1469.19641113281,245.710083007813 1469.19641113281,245.710083007813 1469.19641113281,245.710083007813 " stroke="none" fill="#83CC7C" fill-rule="evenodd" stroke-width="0" fill-opacity="1" />
  <text x="0.84285569190979" y="36.7967185974121" dx="0" dy="0" font-family="Arial" font-size="8.99999973177911pt" fill="#000000" style="text-anchor:start" transform="matrix(0.750000 0.000000 0.000000 0.750000 1394.94653320313 222.085083007813)">VegProject_Po</text>
  <text x="77.9015274047852" y="36.7967185974121" dx="0" dy="0" font-family="Arial" font-size="8.99999973177911pt" fill="#000000" style="text-anchor:start" transform="matrix(0.750000 0.000000 0.000000 0.750000 1394.94653320313 222.085083007813)"> ...</text>
  <path d="M1469.19641113281,245.710067749023 C1469.19641113281,258.757781982422 1452.57507324219,269.335052490234 1432.07153320313,269.335052490234 C1411.56787109375,269.335083007813 1394.94653320313,258.7578125 1394.94653320313,245.710083007813 C1394.94653320313,245.710083007813 1394.94653320313,245.710083007813 1394.94653320313,245.710083007813 L1394.94653320313,245.710098266602 C1394.94641113281,232.662368774414 1411.56787109375,222.085083007813 1432.07141113281,222.085083007813 C1452.57495117188,222.085067749023 1469.19641113281,232.662338256836 1469.19641113281,245.710083007813 C1469.19641113281,245.710083007813 1469.19641113281,245.710083007813 1469.19641113281,245.710083007813 " stroke="none" fill="none" stroke-width="0.75" stroke-opacity="0" />
  <path d="M1075.53247070313,182.660751342773 L1132.77453613281,182.660751342773 L1132.77453613281,182.660751342773 C1137.47119140625,182.660736083984 1141.27844238281,186.468078613281 1141.27844238281,191.164672851563 C1141.27844238281,191.164672851563 1141.27844238281,191.164688110352 1141.27844238281,191.164688110352 L1141.27856445313,191.164688110352 L1141.27856445313,221.406814575195 L1141.27844238281,221.406799316406 C1141.27844238281,226.103393554688 1137.47119140625,229.910736083984 1132.77453613281,229.910736083984 L1132.77453613281,229.910751342773 L1075.53247070313,229.910751342773 L1075.53247070313,229.910736083984 C1070.83581542969,229.910751342773 1067.02856445313,226.103408813477 1067.02856445313,221.406814575195 L1067.02856445313,191.164688110352 L1067.02844238281,191.164688110352 C1067.02844238281,186.46809387207 1070.83581542969,182.660751342773 1075.53247070313,182.660736083984 " stroke="none" fill="#F2E279" fill-rule="evenodd" stroke-width="0" fill-opacity="1" />
  <text x="6.18952226638794" y="29.8967189788818" dx="0" dy="0" font-family="Arial" font-size="8.99999973177911pt" fill="#000000" style="text-anchor:start" transform="matrix(0.750000 0.000000 0.000000 0.750000 1067.02856445313 182.660751342773)">Calculate Field </text>
  <text x="40.8768539428711" y="43.6967163085938" dx="0" dy="0" font-family="Arial" font-size="8.99999973177911pt" fill="#000000" style="text-anchor:start" transform="matrix(0.750000 0.000000 0.000000 0.750000 1067.02856445313 182.660751342773)">(2)</text>
  <path d="M1075.53247070313,182.660751342773 L1132.77453613281,182.660751342773 L1132.77453613281,182.660751342773 C1137.47119140625,182.660736083984 1141.27844238281,186.468078613281 1141.27844238281,191.164672851563 C1141.27844238281,191.164672851563 1141.27844238281,191.164688110352 1141.27844238281,191.164688110352 L1141.27856445313,191.164688110352 L1141.27856445313,221.406814575195 L1141.27844238281,221.406799316406 C1141.27844238281,226.103393554688 1137.47119140625,229.910736083984 1132.77453613281,229.910736083984 L1132.77453613281,229.910751342773 L1075.53247070313,229.910751342773 L1075.53247070313,229.910736083984 C1070.83581542969,229.910751342773 1067.02856445313,226.103408813477 1067.02856445313,221.406814575195 L1067.02856445313,191.164688110352 L1067.02844238281,191.164688110352 C1067.02844238281,186.46809387207 1070.83581542969,182.660751342773 1075.53247070313,182.660736083984 " stroke="none" fill="none" stroke-width="0.75" stroke-opacity="0" />
  <path d="M1236.90344238281,206.285736083984 C1236.90344238281,219.333465576172 1220.28210449219,229.910736083984 1199.77856445313,229.910736083984 C1179.27490234375,229.910751342773 1162.65356445313,219.333480834961 1162.65356445313,206.285751342773 C1162.65356445313,206.285751342773 1162.65356445313,206.285751342773 1162.65356445313,206.285751342773 L1162.65356445313,206.285766601563 C1162.65344238281,193.238037109375 1179.27490234375,182.660751342773 1199.77844238281,182.660751342773 C1220.28198242188,182.660736083984 1236.90344238281,193.238006591797 1236.90344238281,206.285751342773 C1236.90344238281,206.285751342773 1236.90344238281,206.285751342773 1236.90344238281,206.285751342773 " stroke="none" fill="#83CC7C" fill-rule="evenodd" stroke-width="0" fill-opacity="1" />
  <text x="2.1861891746521" y="29.8967189788818" dx="0" dy="0" font-family="Arial" font-size="8.99999973177911pt" fill="#000000" style="text-anchor:start" transform="matrix(0.750000 0.000000 0.000000 0.750000 1162.65356445313 182.660751342773)">Project_Area_</text>
  <text x="76.2281951904297" y="29.8967189788818" dx="0" dy="0" font-family="Arial" font-size="8.99999973177911pt" fill="#000000" style="text-anchor:start" transform="matrix(0.750000 0.000000 0.000000 0.750000 1162.65356445313 182.660751342773)"> ...</text>
  <text x="40.8768539428711" y="43.6967163085938" dx="0" dy="0" font-family="Arial" font-size="8.99999973177911pt" fill="#000000" style="text-anchor:start" transform="matrix(0.750000 0.000000 0.000000 0.750000 1162.65356445313 182.660751342773)">(4)</text>
  <path d="M1236.90344238281,206.285736083984 C1236.90344238281,219.333465576172 1220.28210449219,229.910736083984 1199.77856445313,229.910736083984 C1179.27490234375,229.910751342773 1162.65356445313,219.333480834961 1162.65356445313,206.285751342773 C1162.65356445313,206.285751342773 1162.65356445313,206.285751342773 1162.65356445313,206.285751342773 L1162.65356445313,206.285766601563 C1162.65344238281,193.238037109375 1179.27490234375,182.660751342773 1199.77844238281,182.660751342773 C1220.28198242188,182.660736083984 1236.90344238281,193.238006591797 1236.90344238281,206.285751342773 C1236.90344238281,206.285751342773 1236.90344238281,206.285751342773 1236.90344238281,206.285751342773 " stroke="none" fill="none" stroke-width="0.75" stroke-opacity="0" />
  <path d="M1247.94641113281,274.772552490234 C1247.94641113281,287.820281982422 1231.32507324219,298.397552490234 1210.82153320313,298.397552490234 C1190.31787109375,298.397583007813 1173.69653320313,287.8203125 1173.69653320313,274.772583007813 C1173.69653320313,274.772583007813 1173.69653320313,274.772583007813 1173.69653320313,274.772583007813 L1173.69653320313,274.772583007813 C1173.69641113281,261.724853515625 1190.31787109375,251.147583007813 1210.82141113281,251.147583007813 C1231.32495117188,251.147567749023 1247.94641113281,261.724822998047 1247.94641113281,274.772583007813 C1247.94641113281,274.772583007813 1247.94641113281,274.772583007813 1247.94641113281,274.772583007813 " stroke="none" fill="#70AECC" fill-rule="evenodd" stroke-width="0" fill-opacity="1" />
  <text x="0.84285569190979" y="29.8967189788818" dx="0" dy="0" font-family="Arial" font-size="8.99999973177911pt" fill="#000000" style="text-anchor:start" transform="matrix(0.750000 0.000000 0.000000 0.750000 1173.69653320313 251.147583007813)">VegProject_Po</text>
  <text x="77.9015274047852" y="29.8967189788818" dx="0" dy="0" font-family="Arial" font-size="8.99999973177911pt" fill="#000000" style="text-anchor:start" transform="matrix(0.750000 0.000000 0.000000 0.750000 1173.69653320313 251.147583007813)"> ...</text>
  <text x="40.8768539428711" y="43.6967163085938" dx="0" dy="0" font-family="Arial" font-size="8.99999973177911pt" fill="#000000" style="text-anchor:start" transform="matrix(0.750000 0.000000 0.000000 0.750000 1173.69653320313 251.147583007813)">(3)</text>
  <path d="M1247.94641113281,274.772552490234 C1247.94641113281,287.820281982422 1231.32507324219,298.397552490234 1210.82153320313,298.397552490234 C1190.31787109375,298.397583007813 1173.69653320313,287.8203125 1173.69653320313,274.772583007813 C1173.69653320313,274.772583007813 1173.69653320313,274.772583007813 1173.69653320313,274.772583007813 L1173.69653320313,274.772583007813 C1173.69641113281,261.724853515625 1190.31787109375,251.147583007813 1210.82141113281,251.147583007813 C1231.32495117188,251.147567749023 1247.94641113281,261.724822998047 1247.94641113281,274.772583007813 C1247.94641113281,274.772583007813 1247.94641113281,274.772583007813 1247.94641113281,274.772583007813 " stroke="none" fill="none" stroke-width="0.75" stroke-opacity="0" />
  <path d="M1085.21594238281,147.879470825195 C1085.21594238281,157.665267944336 1072.74987792969,165.598220825195 1057.37231445313,165.598220825195 C1041.99462890625,165.598236083984 1029.52856445313,157.665283203125 1029.52856445313,147.879486083984 C1029.52856445313,147.879486083984 1029.52856445313,147.879486083984 1029.52856445313,147.879486083984 L1029.52844238281,147.879486083984 C1029.52844238281,138.093704223633 1041.99450683594,130.160736083984 1057.37219238281,130.160736083984 C1072.74987792969,130.160720825195 1085.21594238281,138.093673706055 1085.21594238281,147.879486083984 C1085.21594238281,147.879486083984 1085.21594238281,147.879486083984 1085.21594238281,147.879486083984 " stroke="none" fill="#52C0CC" fill-rule="evenodd" stroke-width="0" fill-opacity="1" />
  <text x="9.47285556793213" y="28.9217185974121" dx="0" dy="0" font-family="Arial" font-size="8.99999973177911pt" fill="#000000" style="text-anchor:start" transform="matrix(0.750000 0.000000 0.000000 0.750000 1029.52856445313 130.160736083984)">Add Year</text>
  <path d="M1085.21594238281,147.879470825195 C1085.21594238281,157.665267944336 1072.74987792969,165.598220825195 1057.37231445313,165.598220825195 C1041.99462890625,165.598236083984 1029.52856445313,157.665283203125 1029.52856445313,147.879486083984 C1029.52856445313,147.879486083984 1029.52856445313,147.879486083984 1029.52856445313,147.879486083984 L1029.52844238281,147.879486083984 C1029.52844238281,138.093704223633 1041.99450683594,130.160736083984 1057.37219238281,130.160736083984 C1072.74987792969,130.160720825195 1085.21594238281,138.093673706055 1085.21594238281,147.879486083984 C1085.21594238281,147.879486083984 1085.21594238281,147.879486083984 1085.21594238281,147.879486083984 " stroke="none" fill="none" stroke-width="0.75" stroke-opacity="0" />
  <path d="M674.999938964844,190.501022338867 C674.999938964844,194.643157958984 671.64208984375,198.001022338867 667.5,198.001022338867 C663.357849121094,198.001037597656 660,194.643173217773 660,190.501037597656 L659.999938964844,190.501037597656 C659.999938964844,186.358901977539 663.357849121094,183.001037597656 667.499938964844,183.001037597656 C671.64208984375,183.001022338867 674.999938964844,186.35888671875 674.999938964844,190.501022338867 C674.999938964844,190.501022338867 674.999938964844,190.501037597656 674.999938964844,190.501037597656 " stroke="none" fill="none" fill-rule="evenodd" stroke-width="0" fill-opacity="0" />
  <text x="2.70618915557861" y="15.2967185974121" dx="0" dy="0" font-family="Arial" font-size="8.99999973177911pt" fill="#555555" style="text-anchor:start" font-weight="bold" transform="matrix(0.750000 0.000000 0.000000 0.750000 660 183.001037597656)">P</text>
  <path d="M674.999938964844,190.501022338867 C674.999938964844,194.643157958984 671.64208984375,198.001022338867 667.5,198.001022338867 C663.357849121094,198.001037597656 660,194.643173217773 660,190.501037597656 L659.999938964844,190.501037597656 C659.999938964844,186.358901977539 663.357849121094,183.001037597656 667.499938964844,183.001037597656 C671.64208984375,183.001022338867 674.999938964844,186.35888671875 674.999938964844,190.501022338867 C674.999938964844,190.501022338867 674.999938964844,190.501037597656 674.999938964844,190.501037597656 " stroke="none" fill="none" stroke-width="0.75" stroke-opacity="0" />
  <path d="M892.047668457031,135.56819152832 C892.047668457031,139.710327148438 888.689819335938,143.06819152832 884.547729492188,143.06819152832 C880.405578613281,143.068206787109 877.047729492188,139.710342407227 877.047729492188,135.568206787109 L877.047668457031,135.568206787109 C877.047668457031,131.426071166992 880.405578613281,128.068206787109 884.547668457031,128.068206787109 C888.689819335938,128.06819152832 892.047668457031,131.426055908203 892.047668457031,135.56819152832 C892.047668457031,135.56819152832 892.047668457031,135.568206787109 892.047668457031,135.568206787109 " stroke="none" fill="none" fill-rule="evenodd" stroke-width="0" fill-opacity="0" />
  <text x="2.70618915557861" y="15.2967185974121" dx="0" dy="0" font-family="Arial" font-size="8.99999973177911pt" fill="#555555" style="text-anchor:start" font-weight="bold" transform="matrix(0.750000 0.000000 0.000000 0.750000 877.047729492188 128.068206787109)">P</text>
  <path d="M892.047668457031,135.56819152832 C892.047668457031,139.710327148438 888.689819335938,143.06819152832 884.547729492188,143.06819152832 C880.405578613281,143.068206787109 877.047729492188,139.710342407227 877.047729492188,135.568206787109 L877.047668457031,135.568206787109 C877.047668457031,131.426071166992 880.405578613281,128.068206787109 884.547668457031,128.068206787109 C888.689819335938,128.06819152832 892.047668457031,131.426055908203 892.047668457031,135.56819152832 C892.047668457031,135.56819152832 892.047668457031,135.568206787109 892.047668457031,135.568206787109 " stroke="none" fill="none" stroke-width="0.75" stroke-opacity="0" />
  <path d="M1092.71594238281,136.723220825195 C1092.71594238281,140.865356445313 1089.35815429688,144.223220825195 1085.21606445313,144.223220825195 C1081.07385253906,144.223236083984 1077.71606445313,140.865371704102 1077.71606445313,136.723236083984 L1077.71594238281,136.723236083984 C1077.71594238281,132.581100463867 1081.07385253906,129.223236083984 1085.21594238281,129.223236083984 C1089.35815429688,129.223220825195 1092.71594238281,132.581085205078 1092.71594238281,136.723220825195 C1092.71594238281,136.723220825195 1092.71594238281,136.723236083984 1092.71594238281,136.723236083984 " stroke="none" fill="none" fill-rule="evenodd" stroke-width="0" fill-opacity="0" />
  <text x="2.70618915557861" y="15.2967185974121" dx="0" dy="0" font-family="Arial" font-size="8.99999973177911pt" fill="#555555" style="text-anchor:start" font-weight="bold" transform="matrix(0.750000 0.000000 0.000000 0.750000 1077.71606445313 129.223236083984)">P</text>
  <path d="M1092.71594238281,136.723220825195 C1092.71594238281,140.865356445313 1089.35815429688,144.223220825195 1085.21606445313,144.223220825195 C1081.07385253906,144.223236083984 1077.71606445313,140.865371704102 1077.71606445313,136.723236083984 L1077.71594238281,136.723236083984 C1077.71594238281,132.581100463867 1081.07385253906,129.223236083984 1085.21594238281,129.223236083984 C1089.35815429688,129.223220825195 1092.71594238281,132.581085205078 1092.71594238281,136.723220825195 C1092.71594238281,136.723220825195 1092.71594238281,136.723236083984 1092.71594238281,136.723236083984 " stroke="none" fill="none" stroke-width="0.75" stroke-opacity="0" />
</svg>