<?xml version="1.0"?>
<svg xmlns="http://www.w3.org/2000/svg" version="1.1" width="1364.72705078125pt" height="491.764892578125pt" viewBox="162.444032516488 54.2611392005793 1364.72708702087 491.764904283609" preserveAspectRatio="none" xmlns:xlink="http://www.w3.org/1999/xlink">
  <defs>
  </defs>
  <path d="M363.263305664063,198.423812866211 L372.563293457031,198.423812866211 " stroke="#000000" fill="none" stroke-width="1" stroke-opacity="1" />
  <path d="M378.263305664063,198.423797607422 L372.563293457031,200.643798828125 L372.563293457031,196.203811645508 L378.263305664063,198.423797607422 " stroke="none" fill="#78DCFF" fill-rule="evenodd" stroke-width="0" fill-opacity="1" />
  <path d="M378.263305664063,198.423797607422 L372.563293457031,200.643798828125 L372.563293457031,196.203811645508 L378.263305664063,198.423797607422 " stroke="#000000" fill="none" stroke-width="1" stroke-opacity="1" />
  <path d="M629.063293457031,187.579360961914 L657.730590820313,181.071853637695 " stroke="#000000" fill="none" stroke-width="1" stroke-opacity="1" />
  <path d="M663.289123535156,179.81005859375 L658.221984863281,183.236785888672 L657.239135742188,178.906936645508 L663.289123535156,179.81005859375 " stroke="none" fill="#78DCFF" fill-rule="evenodd" stroke-width="0" fill-opacity="1" />
  <path d="M663.289123535156,179.81005859375 L658.221984863281,183.236785888672 L657.239135742188,178.906936645508 L663.289123535156,179.81005859375 " stroke="#000000" fill="none" stroke-width="1" stroke-opacity="1" />
  <path d="M624.675476074219,218.618057250977 L681.130432128906,257.49267578125 " stroke="#000000" fill="none" stroke-width="1" stroke-opacity="1" />
  <path d="M685.825073242188,260.725372314453 L679.871398925781,259.321105957031 L682.389526367188,255.66423034668 L685.825073242188,260.725372314453 " stroke="none" fill="#78DCFF" fill-rule="evenodd" stroke-width="0" fill-opacity="1" />
  <path d="M685.825073242188,260.725372314453 L679.871398925781,259.321105957031 L682.389526367188,255.66423034668 L685.825073242188,260.725372314453 " stroke="#000000" fill="none" stroke-width="1" stroke-opacity="1" />
  <path d="M484.81787109375,246.729537963867 L549.855102539063,215.922424316406 " stroke="#000000" fill="none" stroke-width="1" stroke-opacity="1" />
  <path d="M555.00634765625,213.482345581055 L550.805358886719,217.928726196289 L548.904663085938,213.916137695313 L555.00634765625,213.482345581055 " stroke="none" fill="#78DCFF" fill-rule="evenodd" stroke-width="0" fill-opacity="1" />
  <path d="M555.00634765625,213.482345581055 L550.805358886719,217.928726196289 L548.904663085938,213.916137695313 L555.00634765625,213.482345581055 " stroke="#000000" fill="none" stroke-width="1" stroke-opacity="1" />
  <path d="M470.885223388672,359.450317382813 L570.927795410156,224.305130004883 " stroke="#000000" fill="none" stroke-width="1" stroke-opacity="1" />
  <path d="M574.319152832031,219.72380065918 L572.712097167969,225.6259765625 L569.143493652344,222.984283447266 L574.319152832031,219.72380065918 " stroke="none" fill="#78DCFF" fill-rule="evenodd" stroke-width="0" fill-opacity="1" />
  <path d="M574.319152832031,219.72380065918 L572.712097167969,225.6259765625 L569.143493652344,222.984283447266 L574.319152832031,219.72380065918 " stroke="#000000" fill="none" stroke-width="1" stroke-opacity="1" />
  <path d="M465.245819091797,478.136352539063 L578.892333984375,224.924057006836 " stroke="#000000" fill="none" stroke-width="1" stroke-opacity="1" />
  <path d="M581.226257324219,219.723785400391 L580.917663574219,225.833053588867 L576.866943359375,224.015014648438 L581.226257324219,219.723785400391 " stroke="none" fill="#78DCFF" fill-rule="evenodd" stroke-width="0" fill-opacity="1" />
  <path d="M581.226257324219,219.723785400391 L580.917663574219,225.833053588867 L576.866943359375,224.015014648438 L581.226257324219,219.723785400391 " stroke="#000000" fill="none" stroke-width="1" stroke-opacity="1" />
  <path d="M529.849914550781,197.104629516602 L548.964172363281,196.771499633789 " stroke="#000000" fill="none" stroke-width="1" stroke-opacity="1" />
  <path d="M554.663269042969,196.672164916992 L549.002807617188,198.991149902344 L548.925476074219,194.551834106445 L554.663269042969,196.672164916992 " stroke="none" fill="#78DCFF" fill-rule="evenodd" stroke-width="0" fill-opacity="1" />
  <path d="M554.663269042969,196.672164916992 L549.002807617188,198.991149902344 L548.925476074219,194.551834106445 L554.663269042969,196.672164916992 " stroke="#000000" fill="none" stroke-width="1" stroke-opacity="1" />
  <path d="M942.951782226563,211.727783203125 L982.851745605469,211.727783203125 " stroke="#000000" fill="none" stroke-width="1" stroke-opacity="1" />
  <path d="M988.5517578125,211.727752685547 L982.851745605469,213.94775390625 L982.851745605469,209.507766723633 L988.5517578125,211.727752685547 " stroke="none" fill="#78DCFF" fill-rule="evenodd" stroke-width="0" fill-opacity="1" />
  <path d="M988.5517578125,211.727752685547 L982.851745605469,213.94775390625 L982.851745605469,209.507766723633 L988.5517578125,211.727752685547 " stroke="#000000" fill="none" stroke-width="1" stroke-opacity="1" />
  <path d="M822.951782226563,211.727783203125 L862.851745605469,211.727783203125 " stroke="#000000" fill="none" stroke-width="1" stroke-opacity="1" />
  <path d="M868.5517578125,211.727752685547 L862.851745605469,213.94775390625 L862.851745605469,209.507766723633 L868.5517578125,211.727752685547 " stroke="none" fill="#78DCFF" fill-rule="evenodd" stroke-width="0" fill-opacity="1" />
  <path d="M868.5517578125,211.727752685547 L862.851745605469,213.94775390625 L862.851745605469,209.507766723633 L868.5517578125,211.727752685547 " stroke="#000000" fill="none" stroke-width="1" stroke-opacity="1" />
  <path d="M805.69873046875,311.780731201172 L878.021301269531,239.458282470703 " stroke="#000000" fill="none" stroke-width="1" stroke-opacity="1" />
  <path d="M882.0517578125,235.427764892578 L879.591064453125,241.028060913086 L876.451477050781,237.88850402832 L882.0517578125,235.427764892578 " stroke="none" fill="#78DCFF" fill-rule="evenodd" stroke-width="0" fill-opacity="1" />
  <path d="M882.0517578125,235.427764892578 L879.591064453125,241.028060913086 L876.451477050781,237.88850402832 L882.0517578125,235.427764892578 " stroke="#000000" fill="none" stroke-width="1" stroke-opacity="1" />
  <path d="M796.990966796875,429.249328613281 L891.352661132813,240.526016235352 " stroke="#000000" fill="none" stroke-width="1" stroke-opacity="1" />
  <path d="M893.901733398438,235.427764892578 L893.338256835938,241.518814086914 L889.367004394531,239.533187866211 L893.901733398438,235.427764892578 " stroke="none" fill="#78DCFF" fill-rule="evenodd" stroke-width="0" fill-opacity="1" />
  <path d="M893.901733398438,235.427764892578 L893.338256835938,241.518814086914 L889.367004394531,239.533187866211 L893.901733398438,235.427764892578 " stroke="#000000" fill="none" stroke-width="1" stroke-opacity="1" />
  <path d="M790.8701171875,181.188919067383 L863.043090820313,200.374557495117 " stroke="#000000" fill="none" stroke-width="1" stroke-opacity="1" />
  <path d="M868.5517578125,201.838928222656 L862.472717285156,202.520034790039 L863.613403320313,198.229064941406 L868.5517578125,201.838928222656 " stroke="none" fill="#78DCFF" fill-rule="evenodd" stroke-width="0" fill-opacity="1" />
  <path d="M868.5517578125,201.838928222656 L862.472717285156,202.520034790039 L863.613403320313,198.229064941406 L868.5517578125,201.838928222656 " stroke="#000000" fill="none" stroke-width="1" stroke-opacity="1" />
  <path d="M1284.35180664063,212.927764892578 L1324.25170898438,212.927764892578 " stroke="#000000" fill="none" stroke-width="1" stroke-opacity="1" />
  <path d="M1329.95178222656,212.927749633789 L1324.25170898438,215.147750854492 L1324.25170898438,210.707763671875 L1329.95178222656,212.927749633789 " stroke="none" fill="#78DCFF" fill-rule="evenodd" stroke-width="0" fill-opacity="1" />
  <path d="M1329.95178222656,212.927749633789 L1324.25170898438,215.147750854492 L1324.25170898438,210.707763671875 L1329.95178222656,212.927749633789 " stroke="#000000" fill="none" stroke-width="1" stroke-opacity="1" />
  <path d="M1157.04760742188,212.307418823242 L1204.251953125,212.632415771484 " stroke="#000000" fill="none" stroke-width="1" stroke-opacity="1" />
  <path d="M1209.95178222656,212.671646118164 L1204.23669433594,214.852355957031 L1204.26721191406,210.412460327148 L1209.95178222656,212.671646118164 " stroke="none" fill="#78DCFF" fill-rule="evenodd" stroke-width="0" fill-opacity="1" />
  <path d="M1209.95178222656,212.671646118164 L1204.23669433594,214.852355957031 L1204.26721191406,210.412460327148 L1209.95178222656,212.671646118164 " stroke="#000000" fill="none" stroke-width="1" stroke-opacity="1" />
  <path d="M243.263320922852,198.423812866211 L283.163299560547,198.423812866211 " stroke="#000000" fill="none" stroke-width="1" stroke-opacity="1" />
  <path d="M288.863311767578,198.423797607422 L283.163299560547,200.643798828125 L283.163299560547,196.203811645508 L288.863311767578,198.423797607422 " stroke="none" fill="#78DCFF" fill-rule="evenodd" stroke-width="0" fill-opacity="1" />
  <path d="M288.863311767578,198.423797607422 L283.163299560547,200.643798828125 L283.163299560547,196.203811645508 L288.863311767578,198.423797607422 " stroke="#000000" fill="none" stroke-width="1" stroke-opacity="1" />
  <path d="M297.367248535156,174.723815917969 L354.759368896484,174.723815917969 L354.759338378906,174.723815917969 C359.455932617188,174.72380065918 363.263275146484,178.531143188477 363.263275146484,183.227737426758 C363.263275146484,183.227737426758 363.263275146484,183.227752685547 363.263275146484,183.227752685547 L363.263305664063,183.227752685547 L363.263305664063,213.619873046875 L363.263275146484,213.619873046875 C363.263275146484,218.316467285156 359.455963134766,222.123809814453 354.759368896484,222.123809814453 L354.759368896484,222.123809814453 L297.367248535156,222.123809814453 L297.367248535156,222.123809814453 C292.670654296875,222.123809814453 288.863311767578,218.316467285156 288.863311767578,213.619873046875 L288.863311767578,183.227752685547 L288.86328125,183.227752685547 C288.86328125,178.531158447266 292.670623779297,174.723815917969 297.367218017578,174.72380065918 " stroke="none" fill="#F2E279" fill-rule="evenodd" stroke-width="0" fill-opacity="1" />
  <text x="30.4061889648438" y="36.8967208862305" dx="0" dy="0" font-family="Arial" font-size="8.99999973177911pt" fill="#000000" style="text-anchor:start" transform="matrix(0.750000 0.000000 0.000000 0.750000 288.863311767578 174.723815917969)">Buffer</text>
  <path d="M297.367248535156,174.723815917969 L354.759368896484,174.723815917969 L354.759338378906,174.723815917969 C359.455932617188,174.72380065918 363.263275146484,178.531143188477 363.263275146484,183.227737426758 C363.263275146484,183.227737426758 363.263275146484,183.227752685547 363.263275146484,183.227752685547 L363.263305664063,183.227752685547 L363.263305664063,213.619873046875 L363.263275146484,213.619873046875 C363.263275146484,218.316467285156 359.455963134766,222.123809814453 354.759368896484,222.123809814453 L354.759368896484,222.123809814453 L297.367248535156,222.123809814453 L297.367248535156,222.123809814453 C292.670654296875,222.123809814453 288.863311767578,218.316467285156 288.863311767578,213.619873046875 L288.863311767578,183.227752685547 L288.86328125,183.227752685547 C288.86328125,178.531158447266 292.670623779297,174.723815917969 297.367218017578,174.72380065918 " stroke="none" fill="none" stroke-width="1" stroke-opacity="0" />
  <path d="M530.063232421875,198.423797607422 C530.063232421875,211.512954711914 496.081695556641,222.123809814453 454.163330078125,222.123809814453 C412.244903564453,222.123809814453 378.263305664063,211.512954711914 378.263305664063,198.423812866211 C378.263305664063,198.423812866211 378.263305664063,198.423812866211 378.263305664063,198.423812866211 L378.263305664063,198.423828125 C378.263244628906,185.334671020508 412.244812011719,174.723815917969 454.163238525391,174.723815917969 C496.081634521484,174.72380065918 530.063232421875,185.33464050293 530.063232421875,198.423812866211 C530.063232421875,198.423812866211 530.063232421875,198.423812866211 530.063232421875,198.423812866211 " stroke="none" fill="#83CC7C" fill-rule="evenodd" stroke-width="0" fill-opacity="1" />
  <text x="16.3128566741943" y="36.8967208862305" dx="0" dy="0" font-family="Arial" font-size="8.99999973177911pt" fill="#000000" style="text-anchor:start" transform="matrix(0.750000 0.000000 0.000000 0.750000 378.263305664063 174.723815917969)">PriOHConductor_Buffer_100m</text>
  <path d="M530.063232421875,198.423797607422 C530.063232421875,211.512954711914 496.081695556641,222.123809814453 454.163330078125,222.123809814453 C412.244903564453,222.123809814453 378.263305664063,211.512954711914 378.263305664063,198.423812866211 C378.263305664063,198.423812866211 378.263305664063,198.423812866211 378.263305664063,198.423812866211 L378.263305664063,198.423828125 C378.263244628906,185.334671020508 412.244812011719,174.723815917969 454.163238525391,174.723815917969 C496.081634521484,174.72380065918 530.063232421875,185.33464050293 530.063232421875,198.423812866211 C530.063232421875,198.423812866211 530.063232421875,198.423812866211 530.063232421875,198.423812866211 " stroke="none" fill="none" stroke-width="1" stroke-opacity="0" />
  <path d="M563.167236328125,172.323806762695 L620.559387207031,172.323806762695 L620.559326171875,172.323806762695 C625.255920410156,172.323791503906 629.063293457031,176.131134033203 629.063293457031,180.827728271484 C629.063293457031,180.827728271484 629.063293457031,180.827743530273 629.063293457031,180.827743530273 L629.063293457031,180.827743530273 L629.063293457031,211.219863891602 L629.063293457031,211.219863891602 C629.063293457031,215.916458129883 625.255981445313,219.72380065918 620.559387207031,219.72380065918 L620.559387207031,219.72380065918 L563.167236328125,219.72380065918 L563.167236328125,219.72380065918 C558.470642089844,219.72380065918 554.663330078125,215.916458129883 554.663330078125,211.219863891602 L554.663330078125,180.827743530273 L554.663269042969,180.827743530273 C554.663269042969,176.131149291992 558.470642089844,172.323806762695 563.167236328125,172.323791503906 " stroke="none" fill="#F2E279" fill-rule="evenodd" stroke-width="0" fill-opacity="1" />
  <text x="1.9528557062149" y="36.8967208862305" dx="0" dy="0" font-family="Arial" font-size="8.99999973177911pt" fill="#000000" style="text-anchor:start" transform="matrix(0.750000 0.000000 0.000000 0.750000 554.663330078125 172.323806762695)">Simplify Polygon</text>
  <path d="M563.167236328125,172.323806762695 L620.559387207031,172.323806762695 L620.559326171875,172.323806762695 C625.255920410156,172.323791503906 629.063293457031,176.131134033203 629.063293457031,180.827728271484 C629.063293457031,180.827728271484 629.063293457031,180.827743530273 629.063293457031,180.827743530273 L629.063293457031,180.827743530273 L629.063293457031,211.219863891602 L629.063293457031,211.219863891602 C629.063293457031,215.916458129883 625.255981445313,219.72380065918 620.559387207031,219.72380065918 L620.559387207031,219.72380065918 L563.167236328125,219.72380065918 L563.167236328125,219.72380065918 C558.470642089844,219.72380065918 554.663330078125,215.916458129883 554.663330078125,211.219863891602 L554.663330078125,180.827743530273 L554.663269042969,180.827743530273 C554.663269042969,176.131149291992 558.470642089844,172.323806762695 563.167236328125,172.323791503906 " stroke="none" fill="none" stroke-width="1" stroke-opacity="0" />
  <path d="M814.551879882813,164.823791503906 C814.551879882813,177.912948608398 776.38671875,188.523803710938 729.3076171875,188.523803710938 C682.228515625,188.523803710938 644.063354492188,177.912948608398 644.063354492188,164.823806762695 C644.063354492188,164.823806762695 644.063354492188,164.823806762695 644.063354492188,164.823806762695 L644.063293457031,164.823822021484 C644.063293457031,151.734664916992 682.228393554688,141.123809814453 729.307556152344,141.123809814453 C776.386657714844,141.123794555664 814.551879882813,151.734634399414 814.551879882813,164.823806762695 C814.551879882813,164.823806762695 814.551879882813,164.823806762695 814.551879882813,164.823806762695 " stroke="none" fill="#83CC7C" fill-rule="evenodd" stroke-width="0" fill-opacity="1" />
  <text x="23.6661891937256" y="36.8967208862305" dx="0" dy="0" font-family="Arial" font-size="8.99999973177911pt" fill="#000000" style="text-anchor:start" transform="matrix(0.750000 0.000000 0.000000 0.750000 644.063354492188 141.123809814453)">PriOHConductor_Simplify_800m</text>
  <path d="M814.551879882813,164.823791503906 C814.551879882813,177.912948608398 776.38671875,188.523803710938 729.3076171875,188.523803710938 C682.228515625,188.523803710938 644.063354492188,177.912948608398 644.063354492188,164.823806762695 C644.063354492188,164.823806762695 644.063354492188,164.823806762695 644.063354492188,164.823806762695 L644.063293457031,164.823822021484 C644.063293457031,151.734664916992 682.228393554688,141.123809814453 729.307556152344,141.123809814453 C776.386657714844,141.123794555664 814.551879882813,151.734634399414 814.551879882813,164.823806762695 C814.551879882813,164.823806762695 814.551879882813,164.823806762695 814.551879882813,164.823806762695 " stroke="none" fill="none" stroke-width="1" stroke-opacity="0" />
  <path d="M814.551879882813,283.023803710938 C814.551879882813,296.112945556641 771.417114257813,306.723815917969 718.207641601563,306.723815917969 C664.998168945313,306.723815917969 621.863342285156,296.112945556641 621.863342285156,283.023803710938 C621.863342285156,283.023803710938 621.863342285156,283.023803710938 621.863342285156,283.023803710938 L621.86328125,283.023834228516 C621.86328125,269.934661865234 664.998046875,259.323822021484 718.20751953125,259.323822021484 C771.4169921875,259.323791503906 814.551818847656,269.934631347656 814.551879882813,283.023803710938 C814.551879882813,283.023803710938 814.551879882813,283.023803710938 814.551879882813,283.023803710938 " stroke="none" fill="#83CC7C" fill-rule="evenodd" stroke-width="0" fill-opacity="1" />
  <text x="26.1228561401367" y="36.8967208862305" dx="0" dy="0" font-family="Arial" font-size="8.99999973177911pt" fill="#000000" style="text-anchor:start" transform="matrix(0.750000 0.000000 0.000000 0.750000 621.863342285156 259.323822021484)">PriOHConductor_Simplify_800m_Pnt</text>
  <path d="M814.551879882813,283.023803710938 C814.551879882813,296.112945556641 771.417114257813,306.723815917969 718.207641601563,306.723815917969 C664.998168945313,306.723815917969 621.863342285156,296.112945556641 621.863342285156,283.023803710938 C621.863342285156,283.023803710938 621.863342285156,283.023803710938 621.863342285156,283.023803710938 L621.86328125,283.023834228516 C621.86328125,269.934661865234 664.998046875,259.323822021484 718.20751953125,259.323822021484 C771.4169921875,259.323791503906 814.551818847656,269.934631347656 814.551879882813,283.023803710938 C814.551879882813,283.023803710938 814.551879882813,283.023803710938 814.551879882813,283.023803710938 " stroke="none" fill="none" stroke-width="1" stroke-opacity="0" />
  <path d="M492.263275146484,260.823791503906 C492.263275146484,273.912933349609 475.608276367188,284.523803710938 455.063323974609,284.523803710938 C434.518310546875,284.523803710938 417.863311767578,273.912963867188 417.86328125,260.823822021484 L417.86328125,260.823822021484 C417.86328125,247.734664916992 434.518280029297,237.123809814453 455.063262939453,237.123809814453 C475.608245849609,237.123794555664 492.263275146484,247.734634399414 492.263275146484,260.823791503906 C492.263275146484,260.823791503906 492.263275146484,260.823791503906 492.263275146484,260.823791503906 " stroke="none" fill="#70AECC" fill-rule="evenodd" stroke-width="0" fill-opacity="1" />
  <text x="2.29285573959351" y="29.9967193603516" dx="0" dy="0" font-family="Arial" font-size="8.99999973177911pt" fill="#000000" style="text-anchor:start" transform="matrix(0.750000 0.000000 0.000000 0.750000 417.863311767578 237.123809814453)">PriOHConductor </text>
  <text x="40.9768562316895" y="43.7967185974121" dx="0" dy="0" font-family="Arial" font-size="8.99999973177911pt" fill="#000000" style="text-anchor:start" transform="matrix(0.750000 0.000000 0.000000 0.750000 417.863311767578 237.123809814453)">(2)</text>
  <path d="M492.263275146484,260.823791503906 C492.263275146484,273.912933349609 475.608276367188,284.523803710938 455.063323974609,284.523803710938 C434.518310546875,284.523803710938 417.863311767578,273.912963867188 417.86328125,260.823822021484 L417.86328125,260.823822021484 C417.86328125,247.734664916992 434.518280029297,237.123809814453 455.063262939453,237.123809814453 C475.608245849609,237.123794555664 492.263275146484,247.734634399414 492.263275146484,260.823791503906 C492.263275146484,260.823791503906 492.263275146484,260.823791503906 492.263275146484,260.823791503906 " stroke="none" fill="none" stroke-width="1" stroke-opacity="0" />
  <path d="M492.263275146484,380.823791503906 C492.263275146484,393.912933349609 475.608276367188,404.523803710938 455.063323974609,404.523803710938 C434.518310546875,404.523803710938 417.863311767578,393.912963867188 417.86328125,380.823822021484 L417.86328125,380.823822021484 C417.86328125,367.734649658203 434.518280029297,357.123809814453 455.063262939453,357.123809814453 C475.608245849609,357.123779296875 492.263275146484,367.734619140625 492.263275146484,380.823791503906 C492.263275146484,380.823791503906 492.263275146484,380.823791503906 492.263275146484,380.823791503906 " stroke="none" fill="#70AECC" fill-rule="evenodd" stroke-width="0" fill-opacity="1" />
  <text x="4.2821888923645" y="36.8967208862305" dx="0" dy="0" font-family="Arial" font-size="8.99999973177911pt" fill="#000000" style="text-anchor:start" transform="matrix(0.750000 0.000000 0.000000 0.750000 417.863311767578 357.123809814453)">project_area_</text>
  <text x="74.9981918334961" y="36.8967208862305" dx="0" dy="0" font-family="Arial" font-size="8.99999973177911pt" fill="#000000" style="text-anchor:start" transform="matrix(0.750000 0.000000 0.000000 0.750000 417.863311767578 357.123809814453)"> ...</text>
  <path d="M492.263275146484,380.823791503906 C492.263275146484,393.912933349609 475.608276367188,404.523803710938 455.063323974609,404.523803710938 C434.518310546875,404.523803710938 417.863311767578,393.912963867188 417.86328125,380.823822021484 L417.86328125,380.823822021484 C417.86328125,367.734649658203 434.518280029297,357.123809814453 455.063262939453,357.123809814453 C475.608245849609,357.123779296875 492.263275146484,367.734619140625 492.263275146484,380.823791503906 C492.263275146484,380.823791503906 492.263275146484,380.823791503906 492.263275146484,380.823791503906 " stroke="none" fill="none" stroke-width="1" stroke-opacity="0" />
  <path d="M492.263275146484,500.823760986328 C492.263275146484,513.912902832031 475.608276367188,524.523742675781 455.063323974609,524.523742675781 C434.518310546875,524.523742675781 417.863311767578,513.912902832031 417.86328125,500.823791503906 L417.86328125,500.823791503906 C417.86328125,487.734619140625 434.518280029297,477.123779296875 455.063262939453,477.123779296875 C475.608245849609,477.123748779297 492.263275146484,487.734588623047 492.263275146484,500.823760986328 C492.263275146484,500.823760986328 492.263275146484,500.823760986328 492.263275146484,500.823760986328 " stroke="none" fill="#70AECC" fill-rule="evenodd" stroke-width="0" fill-opacity="1" />
  <text x="2.95285558700562" y="36.8967208862305" dx="0" dy="0" font-family="Arial" font-size="8.99999973177911pt" fill="#000000" style="text-anchor:start" transform="matrix(0.750000 0.000000 0.000000 0.750000 417.863311767578 477.123779296875)">SkyLidarSpan</text>
  <text x="75.6648559570313" y="36.8967208862305" dx="0" dy="0" font-family="Arial" font-size="8.99999973177911pt" fill="#000000" style="text-anchor:start" transform="matrix(0.750000 0.000000 0.000000 0.750000 417.863311767578 477.123779296875)"> ...</text>
  <path d="M492.263275146484,500.823760986328 C492.263275146484,513.912902832031 475.608276367188,524.523742675781 455.063323974609,524.523742675781 C434.518310546875,524.523742675781 417.863311767578,513.912902832031 417.86328125,500.823791503906 L417.86328125,500.823791503906 C417.86328125,487.734619140625 434.518280029297,477.123779296875 455.063262939453,477.123779296875 C475.608245849609,477.123748779297 492.263275146484,487.734588623047 492.263275146484,500.823760986328 C492.263275146484,500.823760986328 492.263275146484,500.823760986328 492.263275146484,500.823760986328 " stroke="none" fill="none" stroke-width="1" stroke-opacity="0" />
  <path d="M877.0556640625,188.027770996094 L934.447814941406,188.027770996094 L934.44775390625,188.027770996094 C939.144348144531,188.027755737305 942.951721191406,191.835098266602 942.951721191406,196.531692504883 C942.951721191406,196.531692504883 942.951721191406,196.531707763672 942.951721191406,196.531707763672 L942.951721191406,196.531707763672 L942.951721191406,226.923828125 L942.951721191406,226.923828125 C942.951721191406,231.620422363281 939.144409179688,235.427764892578 934.447814941406,235.427764892578 L934.447814941406,235.427764892578 L877.0556640625,235.427764892578 L877.0556640625,235.427764892578 C872.359069824219,235.427764892578 868.5517578125,231.620422363281 868.5517578125,226.923828125 L868.5517578125,196.531707763672 L868.551696777344,196.531707763672 C868.551696777344,191.835113525391 872.359069824219,188.027770996094 877.0556640625,188.027755737305 " stroke="none" fill="#F2E279" fill-rule="evenodd" stroke-width="0" fill-opacity="1" />
  <text x="2.27952241897583" y="36.8967208862305" dx="0" dy="0" font-family="Arial" font-size="8.99999973177911pt" fill="#000000" style="text-anchor:start" transform="matrix(0.750000 0.000000 0.000000 0.750000 868.5517578125 188.027770996094)">Smooth Polygon</text>
  <path d="M877.0556640625,188.027770996094 L934.447814941406,188.027770996094 L934.44775390625,188.027770996094 C939.144348144531,188.027755737305 942.951721191406,191.835098266602 942.951721191406,196.531692504883 C942.951721191406,196.531692504883 942.951721191406,196.531707763672 942.951721191406,196.531707763672 L942.951721191406,196.531707763672 L942.951721191406,226.923828125 L942.951721191406,226.923828125 C942.951721191406,231.620422363281 939.144409179688,235.427764892578 934.447814941406,235.427764892578 L934.447814941406,235.427764892578 L877.0556640625,235.427764892578 L877.0556640625,235.427764892578 C872.359069824219,235.427764892578 868.5517578125,231.620422363281 868.5517578125,226.923828125 L868.5517578125,196.531707763672 L868.551696777344,196.531707763672 C868.551696777344,191.835113525391 872.359069824219,188.027770996094 877.0556640625,188.027755737305 " stroke="none" fill="none" stroke-width="1" stroke-opacity="0" />
  <path d="M1157.15173339844,211.727752685547 C1157.15173339844,224.816909790039 1119.40930175781,235.427764892578 1072.85168457031,235.427764892578 C1026.29406738281,235.427764892578 988.5517578125,224.816909790039 988.5517578125,211.727767944336 C988.5517578125,211.727767944336 988.5517578125,211.727767944336 988.5517578125,211.727767944336 L988.551696777344,211.727783203125 C988.551696777344,198.638626098633 1026.29406738281,188.027770996094 1072.85168457031,188.027770996094 C1119.4091796875,188.027755737305 1157.15161132813,198.638595581055 1157.15173339844,211.727767944336 C1157.15173339844,211.727767944336 1157.15173339844,211.727767944336 1157.15173339844,211.727767944336 " stroke="none" fill="#83CC7C" fill-rule="evenodd" stroke-width="0" fill-opacity="1" />
  <text x="19.3961887359619" y="36.8967208862305" dx="0" dy="0" font-family="Arial" font-size="8.99999973177911pt" fill="#000000" style="text-anchor:start" transform="matrix(0.750000 0.000000 0.000000 0.750000 988.5517578125 188.027770996094)">PriOHConductor_Smooth_1000m</text>
  <path d="M1157.15173339844,211.727752685547 C1157.15173339844,224.816909790039 1119.40930175781,235.427764892578 1072.85168457031,235.427764892578 C1026.29406738281,235.427764892578 988.5517578125,224.816909790039 988.5517578125,211.727767944336 C988.5517578125,211.727767944336 988.5517578125,211.727767944336 988.5517578125,211.727767944336 L988.551696777344,211.727783203125 C988.551696777344,198.638626098633 1026.29406738281,188.027770996094 1072.85168457031,188.027770996094 C1119.4091796875,188.027755737305 1157.15161132813,198.638595581055 1157.15173339844,211.727767944336 C1157.15173339844,211.727767944336 1157.15173339844,211.727767944336 1157.15173339844,211.727767944336 " stroke="none" fill="none" stroke-width="1" stroke-opacity="0" />
  <path d="M822.951721191406,211.727752685547 C822.951721191406,224.816909790039 806.296691894531,235.427764892578 785.751770019531,235.427764892578 C765.206726074219,235.427764892578 748.5517578125,224.816925048828 748.551696777344,211.727783203125 L748.551696777344,211.727783203125 C748.551696777344,198.638626098633 765.206726074219,188.027770996094 785.751708984375,188.027770996094 C806.296691894531,188.027755737305 822.951721191406,198.638595581055 822.951721191406,211.727767944336 C822.951721191406,211.727767944336 822.951721191406,211.727767944336 822.951721191406,211.727767944336 " stroke="none" fill="#70AECC" fill-rule="evenodd" stroke-width="0" fill-opacity="1" />
  <text x="2.29285573959351" y="29.9967193603516" dx="0" dy="0" font-family="Arial" font-size="8.99999973177911pt" fill="#000000" style="text-anchor:start" transform="matrix(0.750000 0.000000 0.000000 0.750000 748.5517578125 188.027770996094)">PriOHConductor </text>
  <text x="40.9768562316895" y="43.7967185974121" dx="0" dy="0" font-family="Arial" font-size="8.99999973177911pt" fill="#000000" style="text-anchor:start" transform="matrix(0.750000 0.000000 0.000000 0.750000 748.5517578125 188.027770996094)">(3)</text>
  <path d="M822.951721191406,211.727752685547 C822.951721191406,224.816909790039 806.296691894531,235.427764892578 785.751770019531,235.427764892578 C765.206726074219,235.427764892578 748.5517578125,224.816925048828 748.551696777344,211.727783203125 L748.551696777344,211.727783203125 C748.551696777344,198.638626098633 765.206726074219,188.027770996094 785.751708984375,188.027770996094 C806.296691894531,188.027755737305 822.951721191406,198.638595581055 822.951721191406,211.727767944336 C822.951721191406,211.727767944336 822.951721191406,211.727767944336 822.951721191406,211.727767944336 " stroke="none" fill="none" stroke-width="1" stroke-opacity="0" />
  <path d="M822.951721191406,331.727752685547 C822.951721191406,344.81689453125 806.296691894531,355.427764892578 785.751770019531,355.427764892578 C765.206726074219,355.427764892578 748.5517578125,344.816925048828 748.551696777344,331.727783203125 L748.551696777344,331.727783203125 C748.551696777344,318.638610839844 765.206726074219,308.027770996094 785.751708984375,308.027770996094 C806.296691894531,308.027740478516 822.951721191406,318.638580322266 822.951721191406,331.727752685547 C822.951721191406,331.727752685547 822.951721191406,331.727752685547 822.951721191406,331.727752685547 " stroke="none" fill="#70AECC" fill-rule="evenodd" stroke-width="0" fill-opacity="1" />
  <text x="2.95285558700562" y="29.9967193603516" dx="0" dy="0" font-family="Arial" font-size="8.99999973177911pt" fill="#000000" style="text-anchor:start" transform="matrix(0.750000 0.000000 0.000000 0.750000 748.5517578125 308.027770996094)">SkyLidarSpan</text>
  <text x="75.6648559570313" y="29.9967193603516" dx="0" dy="0" font-family="Arial" font-size="8.99999973177911pt" fill="#000000" style="text-anchor:start" transform="matrix(0.750000 0.000000 0.000000 0.750000 748.5517578125 308.027770996094)"> ...</text>
  <text x="40.9768562316895" y="43.7967185974121" dx="0" dy="0" font-family="Arial" font-size="8.99999973177911pt" fill="#000000" style="text-anchor:start" transform="matrix(0.750000 0.000000 0.000000 0.750000 748.5517578125 308.027770996094)">(2)</text>
  <path d="M822.951721191406,331.727752685547 C822.951721191406,344.81689453125 806.296691894531,355.427764892578 785.751770019531,355.427764892578 C765.206726074219,355.427764892578 748.5517578125,344.816925048828 748.551696777344,331.727783203125 L748.551696777344,331.727783203125 C748.551696777344,318.638610839844 765.206726074219,308.027770996094 785.751708984375,308.027770996094 C806.296691894531,308.027740478516 822.951721191406,318.638580322266 822.951721191406,331.727752685547 C822.951721191406,331.727752685547 822.951721191406,331.727752685547 822.951721191406,331.727752685547 " stroke="none" fill="none" stroke-width="1" stroke-opacity="0" />
  <path d="M822.951721191406,451.727752685547 C822.951721191406,464.81689453125 806.296691894531,475.427764892578 785.751770019531,475.427764892578 C765.206726074219,475.427764892578 748.5517578125,464.816925048828 748.551696777344,451.727783203125 L748.551696777344,451.727783203125 C748.551696777344,438.638610839844 765.206726074219,428.027770996094 785.751708984375,428.027770996094 C806.296691894531,428.027740478516 822.951721191406,438.638580322266 822.951721191406,451.727752685547 C822.951721191406,451.727752685547 822.951721191406,451.727752685547 822.951721191406,451.727752685547 " stroke="none" fill="#70AECC" fill-rule="evenodd" stroke-width="0" fill-opacity="1" />
  <text x="4.2821888923645" y="29.9967193603516" dx="0" dy="0" font-family="Arial" font-size="8.99999973177911pt" fill="#000000" style="text-anchor:start" transform="matrix(0.750000 0.000000 0.000000 0.750000 748.5517578125 428.027770996094)">project_area_</text>
  <text x="74.9981918334961" y="29.9967193603516" dx="0" dy="0" font-family="Arial" font-size="8.99999973177911pt" fill="#000000" style="text-anchor:start" transform="matrix(0.750000 0.000000 0.000000 0.750000 748.5517578125 428.027770996094)"> ...</text>
  <text x="40.9768562316895" y="43.7967185974121" dx="0" dy="0" font-family="Arial" font-size="8.99999973177911pt" fill="#000000" style="text-anchor:start" transform="matrix(0.750000 0.000000 0.000000 0.750000 748.5517578125 428.027770996094)">(2)</text>
  <path d="M822.951721191406,451.727752685547 C822.951721191406,464.81689453125 806.296691894531,475.427764892578 785.751770019531,475.427764892578 C765.206726074219,475.427764892578 748.5517578125,464.816925048828 748.551696777344,451.727783203125 L748.551696777344,451.727783203125 C748.551696777344,438.638610839844 765.206726074219,428.027770996094 785.751708984375,428.027770996094 C806.296691894531,428.027740478516 822.951721191406,438.638580322266 822.951721191406,451.727752685547 C822.951721191406,451.727752685547 822.951721191406,451.727752685547 822.951721191406,451.727752685547 " stroke="none" fill="none" stroke-width="1" stroke-opacity="0" />
  <path d="M1218.45568847656,189.227767944336 L1275.84777832031,189.227767944336 L1275.84777832031,189.227767944336 C1280.54431152344,189.227752685547 1284.35168457031,193.035095214844 1284.35168457031,197.731689453125 C1284.35168457031,197.731689453125 1284.35168457031,197.731704711914 1284.35168457031,197.731704711914 L1284.35168457031,197.731704711914 L1284.35168457031,228.123825073242 L1284.35168457031,228.123825073242 C1284.35168457031,232.820419311523 1280.54443359375,236.62776184082 1275.84777832031,236.62776184082 L1275.84777832031,236.62776184082 L1218.45568847656,236.62776184082 L1218.45568847656,236.62776184082 C1213.75903320313,236.62776184082 1209.95178222656,232.820419311523 1209.95178222656,228.123825073242 L1209.95178222656,197.731704711914 L1209.95166015625,197.731704711914 C1209.95166015625,193.035110473633 1213.75903320313,189.227767944336 1218.45568847656,189.227752685547 " stroke="none" fill="#F2E279" fill-rule="evenodd" stroke-width="0" fill-opacity="1" />
  <text x="21.6295223236084" y="29.9967193603516" dx="0" dy="0" font-family="Arial" font-size="8.99999973177911pt" fill="#000000" style="text-anchor:start" transform="matrix(0.750000 0.000000 0.000000 0.750000 1209.95178222656 189.227767944336)">Eliminate </text>
  <text x="11.9528551101685" y="43.7967185974121" dx="0" dy="0" font-family="Arial" font-size="8.99999973177911pt" fill="#000000" style="text-anchor:start" transform="matrix(0.750000 0.000000 0.000000 0.750000 1209.95178222656 189.227767944336)">Polygon Part</text>
  <path d="M1218.45568847656,189.227767944336 L1275.84777832031,189.227767944336 L1275.84777832031,189.227767944336 C1280.54431152344,189.227752685547 1284.35168457031,193.035095214844 1284.35168457031,197.731689453125 C1284.35168457031,197.731689453125 1284.35168457031,197.731704711914 1284.35168457031,197.731704711914 L1284.35168457031,197.731704711914 L1284.35168457031,228.123825073242 L1284.35168457031,228.123825073242 C1284.35168457031,232.820419311523 1280.54443359375,236.62776184082 1275.84777832031,236.62776184082 L1275.84777832031,236.62776184082 L1218.45568847656,236.62776184082 L1218.45568847656,236.62776184082 C1213.75903320313,236.62776184082 1209.95178222656,232.820419311523 1209.95178222656,228.123825073242 L1209.95178222656,197.731704711914 L1209.95166015625,197.731704711914 C1209.95166015625,193.035110473633 1213.75903320313,189.227767944336 1218.45568847656,189.227752685547 " stroke="none" fill="none" stroke-width="1" stroke-opacity="0" />
  <path d="M1520.75170898438,212.927749633789 C1520.75170898438,226.016906738281 1478.03967285156,236.62776184082 1425.35180664063,236.62776184082 C1372.66381835938,236.62776184082 1329.95178222656,226.016906738281 1329.95178222656,212.927764892578 C1329.95178222656,212.927764892578 1329.95178222656,212.927764892578 1329.95178222656,212.927764892578 L1329.95166015625,212.927780151367 C1329.95166015625,199.838623046875 1372.66369628906,189.227767944336 1425.35168457031,189.227767944336 C1478.03955078125,189.227752685547 1520.75170898438,199.838592529297 1520.75170898438,212.927764892578 C1520.75170898438,212.927764892578 1520.75170898438,212.927764892578 1520.75170898438,212.927764892578 " stroke="none" fill="#83CC7C" fill-rule="evenodd" stroke-width="0" fill-opacity="1" />
  <text x="23.8595237731934" y="36.8967208862305" dx="0" dy="0" font-family="Arial" font-size="8.99999973177911pt" fill="#000000" style="text-anchor:start" transform="matrix(0.750000 0.000000 0.000000 0.750000 1329.95178222656 189.227767944336)">PriOHConductor_Eliminate_1000km2</text>
  <path d="M1520.75170898438,212.927749633789 C1520.75170898438,226.016906738281 1478.03967285156,236.62776184082 1425.35180664063,236.62776184082 C1372.66381835938,236.62776184082 1329.95178222656,226.016906738281 1329.95178222656,212.927764892578 C1329.95178222656,212.927764892578 1329.95178222656,212.927764892578 1329.95178222656,212.927764892578 L1329.95166015625,212.927780151367 C1329.95166015625,199.838623046875 1372.66369628906,189.227767944336 1425.35168457031,189.227767944336 C1478.03955078125,189.227752685547 1520.75170898438,199.838592529297 1520.75170898438,212.927764892578 C1520.75170898438,212.927764892578 1520.75170898438,212.927764892578 1520.75170898438,212.927764892578 " stroke="none" fill="none" stroke-width="1" stroke-opacity="0" />
  <path d="M243.263305664063,198.423797607422 C243.263305664063,211.512954711914 226.608306884766,222.123809814453 206.063339233398,222.123809814453 C185.518341064453,222.123809814453 168.863327026367,211.512969970703 168.863311767578,198.423828125 L168.863311767578,198.423828125 C168.863296508789,185.334671020508 185.518295288086,174.723815917969 206.063278198242,174.723815917969 C226.608276367188,174.72380065918 243.263290405273,185.33464050293 243.263305664063,198.423812866211 C243.263305664063,198.423812866211 243.263305664063,198.423812866211 243.263305664063,198.423812866211 " stroke="none" fill="#70AECC" fill-rule="evenodd" stroke-width="0" fill-opacity="1" />
  <text x="2.29285573959351" y="36.8967208862305" dx="0" dy="0" font-family="Arial" font-size="8.99999973177911pt" fill="#000000" style="text-anchor:start" transform="matrix(0.750000 0.000000 0.000000 0.750000 168.863327026367 174.723815917969)">PriOHConductor</text>
  <path d="M243.263305664063,198.423797607422 C243.263305664063,211.512954711914 226.608306884766,222.123809814453 206.063339233398,222.123809814453 C185.518341064453,222.123809814453 168.863327026367,211.512969970703 168.863311767578,198.423828125 L168.863311767578,198.423828125 C168.863296508789,185.334671020508 185.518295288086,174.723815917969 206.063278198242,174.723815917969 C226.608276367188,174.72380065918 243.263290405273,185.33464050293 243.263305664063,198.423812866211 C243.263305664063,198.423812866211 243.263305664063,198.423812866211 243.263305664063,198.423812866211 " stroke="none" fill="none" stroke-width="1" stroke-opacity="0" />
  <path d="M622.522277832031,75.0133972167969 L1059.54174804688,75.0133972167969 L1059.54174804688,112.513397216797 L622.522277832031,112.513397216797 L622.522277832031,75.0133972167969 " stroke="none" fill="none" fill-rule="evenodd" stroke-width="0" fill-opacity="0" />
  <text x="41.5788536071777" y="35.5951042175293" dx="0" dy="0" font-family="Arial" font-size="17.9999994635582pt" fill="#555555" style="text-anchor:start" font-weight="bold" transform="matrix(0.750000 0.000000 0.000000 0.750000 622.522277832031 75.0133972167969)">Initial Build of Autogenerated Project Areas</text>
  <path d="M622.522277832031,75.0133972167969 L1059.54174804688,75.0133972167969 L1059.54174804688,112.513397216797 L622.522277832031,112.513397216797 L622.522277832031,75.0133972167969 " stroke="none" fill="none" stroke-width="0.75" stroke-opacity="0" />
</svg>