<?xml version="1.0"?>
<svg xmlns="http://www.w3.org/2000/svg" version="1.1" width="393.838592529297pt" height="211.877960205078pt" viewBox="152.770680427551 -90.7250661849976 393.838582992554 211.877958297729" preserveAspectRatio="none" xmlns:xlink="http://www.w3.org/1999/xlink">
  <defs>
  </defs>
  <path d="M261.448059082031,79.703369140625 L300.541717529297,64.7557983398438 " stroke="#6E6E6E" fill="none" stroke-width="1" stroke-opacity="1" />
  <path d="M305.865814208984,62.7201156616211 L301.334564208984,66.8293914794922 L299.748870849609,62.682201385498 L305.865814208984,62.7201156616211 " stroke="none" fill="#6E6E6E" fill-rule="evenodd" stroke-width="0" fill-opacity="1" />
  <path d="M305.865814208984,62.7201156616211 L301.334564208984,66.8293914794922 L299.748870849609,62.682201385498 L305.865814208984,62.7201156616211 " stroke="#6E6E6E" fill="none" stroke-width="1" stroke-opacity="1" />
  <path d="M255.354095458984,20.7232704162598 L300.432647705078,35.024055480957 " stroke="#6E6E6E" fill="none" stroke-width="1" stroke-opacity="1" />
  <path d="M305.865783691406,36.747673034668 L299.761352539063,37.1401214599609 L301.103942871094,32.9079856872559 L305.865783691406,36.747673034668 " stroke="none" fill="#6E6E6E" fill-rule="evenodd" stroke-width="0" fill-opacity="1" />
  <path d="M305.865783691406,36.747673034668 L299.761352539063,37.1401214599609 L301.103942871094,32.9079856872559 L305.865783691406,36.747673034668 " stroke="#6E6E6E" fill="none" stroke-width="1" stroke-opacity="1" />
  <path d="M380.115783691406,48.525260925293 L420.165832519531,48.525260925293 " stroke="#6E6E6E" fill="none" stroke-width="1" stroke-opacity="1" />
  <path d="M425.865844726563,48.5252571105957 L420.165832519531,50.7452583312988 L420.165832519531,46.3052597045898 L425.865844726563,48.5252571105957 " stroke="none" fill="#6E6E6E" fill-rule="evenodd" stroke-width="0" fill-opacity="1" />
  <path d="M425.865844726563,48.5252571105957 L420.165832519531,50.7452583312988 L420.165832519531,46.3052597045898 L425.865844726563,48.5252571105957 " stroke="#6E6E6E" fill="none" stroke-width="1" stroke-opacity="1" />
  <path d="M342.910980224609,7.83553218841553 L342.933288574219,19.2002716064453 " stroke="#6E6E6E" fill="none" stroke-width="1" stroke-opacity="1" />
  <path d="M342.944458007813,24.900260925293 L340.713287353516,19.2046241760254 L345.153259277344,19.1959171295166 L342.944458007813,24.900260925293 " stroke="none" fill="#6E6E6E" fill-rule="evenodd" stroke-width="0" fill-opacity="1" />
  <path d="M342.944458007813,24.900260925293 L340.713287353516,19.2046241760254 L345.153259277344,19.1959171295166 L342.944458007813,24.900260925293 " stroke="#6E6E6E" fill="none" stroke-width="1" stroke-opacity="1" />
  <path d="M158.439971923828,-85.0557708740234 L540.93994140625,-85.0557708740234 L540.93994140625,-47.5557708740234 L158.439971923828,-47.5557708740234 L158.439971923828,-85.0557708740234 " stroke="none" fill="none" fill-rule="evenodd" stroke-width="0" fill-opacity="0" />
  <text x="-3.00581121444702" y="35.5951042175293" dx="0" dy="0" font-family="Arial" font-size="17.9999994635582pt" fill="#555555" style="text-anchor:start" font-weight="bold" transform="matrix(0.750000 0.000000 0.000000 0.750000 158.439971923828 -85.0557708740234)">Add Revised Processed Division to Stand</text>
  <text x="469.758178710938" y="35.5951042175293" dx="0" dy="0" font-family="Arial" font-size="17.9999994635582pt" fill="#555555" style="text-anchor:start" font-weight="bold" transform="matrix(0.750000 0.000000 0.000000 0.750000 158.439971923828 -85.0557708740234)"> ...</text>
  <path d="M158.439971923828,-85.0557708740234 L540.93994140625,-85.0557708740234 L540.93994140625,-47.5557708740234 L158.439971923828,-47.5557708740234 L158.439971923828,-85.0557708740234 " stroke="none" fill="none" stroke-width="0.75" stroke-opacity="0" />
  <path d="M314.369750976563,24.900260925293 L371.611846923828,24.900260925293 L371.611846923828,24.900260925293 C376.308441162109,24.9002532958984 380.115783691406,28.7075881958008 380.115783691406,33.4041938781738 C380.115783691406,33.4041938781738 380.115783691406,33.4041976928711 380.115783691406,33.4041976928711 L380.115814208984,33.4041976928711 L380.115814208984,63.6463241577148 L380.115783691406,63.6463165283203 C380.115783691406,68.3429107666016 376.308441162109,72.1502532958984 371.611846923828,72.1502532958984 L371.611846923828,72.150260925293 L314.369750976563,72.150260925293 L314.369750976563,72.1502532958984 C309.673156738281,72.150260925293 305.865814208984,68.3429183959961 305.865814208984,63.6463241577148 L305.865814208984,33.4041976928711 L305.865783691406,33.4042015075684 C305.865783691406,28.7076072692871 309.673126220703,24.9002628326416 314.369720458984,24.9002590179443 " stroke="none" fill="#F2E279" fill-rule="evenodd" stroke-width="0" fill-opacity="1" />
  <text x="25.5195236206055" y="36.7967185974121" dx="0" dy="0" font-family="Arial" font-size="8.99999973177911pt" fill="#000000" style="text-anchor:start" transform="matrix(0.750000 0.000000 0.000000 0.750000 305.865814208984 24.900260925293)">Append</text>
  <path d="M314.369750976563,24.900260925293 L371.611846923828,24.900260925293 L371.611846923828,24.900260925293 C376.308441162109,24.9002532958984 380.115783691406,28.7075881958008 380.115783691406,33.4041938781738 C380.115783691406,33.4041938781738 380.115783691406,33.4041976928711 380.115783691406,33.4041976928711 L380.115814208984,33.4041976928711 L380.115814208984,63.6463241577148 L380.115783691406,63.6463165283203 C380.115783691406,68.3429107666016 376.308441162109,72.1502532958984 371.611846923828,72.1502532958984 L371.611846923828,72.150260925293 L314.369750976563,72.150260925293 L314.369750976563,72.1502532958984 C309.673156738281,72.150260925293 305.865814208984,68.3429183959961 305.865814208984,63.6463241577148 L305.865814208984,33.4041976928711 L305.865783691406,33.4042015075684 C305.865783691406,28.7076072692871 309.673126220703,24.9002628326416 314.369720458984,24.9002590179443 " stroke="none" fill="none" stroke-width="0.75" stroke-opacity="0" />
  <path d="M500.115814208984,48.5252532958984 C500.115814208984,61.5729789733887 483.494384765625,72.1502532958984 462.990844726563,72.1502532958984 C442.487274169922,72.150260925293 425.865844726563,61.5729904174805 425.865844726563,48.525260925293 C425.865844726563,48.525260925293 425.865844726563,48.525260925293 425.865844726563,48.525260925293 L425.865844726563,48.525276184082 C425.865814208984,35.4775505065918 442.487243652344,24.9002685546875 462.990783691406,24.900260925293 C483.494354248047,24.9002494812012 500.115814208984,35.4775161743164 500.115814208984,48.525260925293 C500.115814208984,48.525260925293 500.115814208984,48.525260925293 500.115814208984,48.525260925293 " stroke="none" fill="#83CC7C" fill-rule="evenodd" stroke-width="0" fill-opacity="1" />
  <text x="0.63352233171463" y="36.7967185974121" dx="0" dy="0" font-family="Arial" font-size="8.99999973177911pt" fill="#000000" style="text-anchor:start" transform="matrix(0.750000 0.000000 0.000000 0.750000 425.865844726563 24.900260925293)">OffshoreComp</text>
  <text x="77.1115264892578" y="36.7967185974121" dx="0" dy="0" font-family="Arial" font-size="8.99999973177911pt" fill="#000000" style="text-anchor:start" transform="matrix(0.750000 0.000000 0.000000 0.750000 425.865844726563 24.900260925293)"> ...</text>
  <path d="M500.115814208984,48.5252532958984 C500.115814208984,61.5729789733887 483.494384765625,72.1502532958984 462.990844726563,72.1502532958984 C442.487274169922,72.150260925293 425.865844726563,61.5729904174805 425.865844726563,48.525260925293 C425.865844726563,48.525260925293 425.865844726563,48.525260925293 425.865844726563,48.525260925293 L425.865844726563,48.525276184082 C425.865814208984,35.4775505065918 442.487243652344,24.9002685546875 462.990783691406,24.900260925293 C483.494354248047,24.9002494812012 500.115814208984,35.4775161743164 500.115814208984,48.525260925293 C500.115814208984,48.525260925293 500.115814208984,48.525260925293 500.115814208984,48.525260925293 " stroke="none" fill="none" stroke-width="0.75" stroke-opacity="0" />
  <path d="M259.282440185547,10.1919231414795 C259.282440185547,23.2396469116211 242.661026000977,33.8169212341309 222.157470703125,33.8169250488281 C201.653900146484,33.8169288635254 185.032470703125,23.2396583557129 185.032470703125,10.1919288635254 C185.032470703125,10.1919288635254 185.032470703125,10.1919288635254 185.032470703125,10.1919288635254 L185.032470703125,10.1919460296631 C185.032440185547,-2.85577964782715 201.653869628906,-13.4330625534058 222.157424926758,-13.4330711364746 C242.660995483398,-13.4330816268921 259.282440185547,-2.85581493377686 259.282440185547,10.1919288635254 C259.282440185547,10.1919288635254 259.282440185547,10.1919288635254 259.282440185547,10.1919288635254 " stroke="none" fill="#70AECC" fill-rule="evenodd" stroke-width="0" fill-opacity="1" />
  <text x="15.2028551101685" y="36.7967185974121" dx="0" dy="0" font-family="Arial" font-size="8.99999973177911pt" fill="#000000" style="text-anchor:start" transform="matrix(0.750000 0.000000 0.000000 0.750000 185.032470703125 -13.4330711364746)">Division FC</text>
  <path d="M259.282440185547,10.1919231414795 C259.282440185547,23.2396469116211 242.661026000977,33.8169212341309 222.157470703125,33.8169250488281 C201.653900146484,33.8169288635254 185.032470703125,23.2396583557129 185.032470703125,10.1919288635254 C185.032470703125,10.1919288635254 185.032470703125,10.1919288635254 185.032470703125,10.1919288635254 L185.032470703125,10.1919460296631 C185.032440185547,-2.85577964782715 201.653869628906,-13.4330625534058 222.157424926758,-13.4330711364746 C242.660995483398,-13.4330816268921 259.282440185547,-2.85581493377686 259.282440185547,10.1919288635254 C259.282440185547,10.1919288635254 259.282440185547,10.1919288635254 259.282440185547,10.1919288635254 " stroke="none" fill="none" stroke-width="0.75" stroke-opacity="0" />
  <path d="M266.782440185547,91.8585891723633 C266.782440185547,104.906311035156 250.161026000977,115.483589172363 229.657470703125,115.483589172363 C209.153900146484,115.483596801758 192.532470703125,104.906326293945 192.532470703125,91.8585968017578 C192.532470703125,91.8585968017578 192.532470703125,91.8585968017578 192.532470703125,91.8585968017578 L192.532470703125,91.8586120605469 C192.532440185547,78.8108825683594 209.153869628906,68.2336044311523 229.657424926758,68.2335968017578 C250.160995483398,68.2335815429688 266.782440185547,78.8108520507813 266.782440185547,91.8585968017578 C266.782440185547,91.8585968017578 266.782440185547,91.8585968017578 266.782440185547,91.8585968017578 " stroke="none" fill="#70AECC" fill-rule="evenodd" stroke-width="0" fill-opacity="1" />
  <text x="11.2001886367798" y="36.7967185974121" dx="0" dy="0" font-family="Arial" font-size="8.99999973177911pt" fill="#000000" style="text-anchor:start" transform="matrix(0.750000 0.000000 0.000000 0.750000 192.532470703125 68.2335968017578)">Quarterly FC</text>
  <path d="M266.782440185547,91.8585891723633 C266.782440185547,104.906311035156 250.161026000977,115.483589172363 229.657470703125,115.483589172363 C209.153900146484,115.483596801758 192.532470703125,104.906326293945 192.532470703125,91.8585968017578 C192.532470703125,91.8585968017578 192.532470703125,91.8585968017578 192.532470703125,91.8585968017578 L192.532470703125,91.8586120605469 C192.532440185547,78.8108825683594 209.153869628906,68.2336044311523 229.657424926758,68.2335968017578 C250.160995483398,68.2335815429688 266.782440185547,78.8108520507813 266.782440185547,91.8585968017578 C266.782440185547,91.8585968017578 266.782440185547,91.8585968017578 266.782440185547,91.8585968017578 " stroke="none" fill="none" stroke-width="0.75" stroke-opacity="0" />
  <path d="M370.719940185547,-9.88099479675293 C370.719940185547,-0.0952014923095703 358.253875732422,7.83775329589844 342.876220703125,7.8377571105957 C327.49853515625,7.83776092529297 315.032470703125,-0.0951900482177734 315.032470703125,-9.88098907470703 C315.032470703125,-9.88098907470703 315.032470703125,-9.88098907470703 315.032470703125,-9.88098907470703 L315.032440185547,-9.8809757232666 C315.032440185547,-19.6667709350586 327.498504638672,-27.5997333526611 342.876190185547,-27.599739074707 C358.253845214844,-27.5997467041016 370.719940185547,-19.6667976379395 370.719940185547,-9.88098907470703 C370.719940185547,-9.88098907470703 370.719940185547,-9.88098907470703 370.719940185547,-9.88098907470703 " stroke="none" fill="#52C0CC" fill-rule="evenodd" stroke-width="0" fill-opacity="1" />
  <text x="7.82218933105469" y="28.9217185974121" dx="0" dy="0" font-family="Arial" font-size="8.99999973177911pt" fill="#000000" style="text-anchor:start" transform="matrix(0.750000 0.000000 0.000000 0.750000 315.032470703125 -27.599739074707)">Field Map</text>
  <path d="M370.719940185547,-9.88099479675293 C370.719940185547,-0.0952014923095703 358.253875732422,7.83775329589844 342.876220703125,7.8377571105957 C327.49853515625,7.83776092529297 315.032470703125,-0.0951900482177734 315.032470703125,-9.88098907470703 C315.032470703125,-9.88098907470703 315.032470703125,-9.88098907470703 315.032470703125,-9.88098907470703 L315.032440185547,-9.8809757232666 C315.032440185547,-19.6667709350586 327.498504638672,-27.5997333526611 342.876190185547,-27.599739074707 C358.253845214844,-27.5997467041016 370.719940185547,-19.6667976379395 370.719940185547,-9.88098907470703 C370.719940185547,-9.88098907470703 370.719940185547,-9.88098907470703 370.719940185547,-9.88098907470703 " stroke="none" fill="none" stroke-width="0.75" stroke-opacity="0" />
  <path d="M266.782440185547,-6.87057256698608 C266.782440185547,-2.72843837738037 263.424591064453,0.629426956176758 259.282470703125,0.629426956176758 C255.140335083008,0.629428863525391 251.782470703125,-2.72843170166016 251.782470703125,-6.87056636810303 L251.782455444336,-6.87056541442871 C251.782455444336,-11.0127010345459 255.140319824219,-14.3705682754517 259.282440185547,-14.3705711364746 C263.424591064453,-14.3705787658691 266.782440185547,-11.0127191543579 266.782440185547,-6.87057256698608 C266.782440185547,-6.87057209014893 266.782440185547,-6.87057113647461 266.782440185547,-6.87057065963745 " stroke="none" fill="none" fill-rule="evenodd" stroke-width="0" fill-opacity="0" />
  <text x="2.70618915557861" y="15.2967185974121" dx="0" dy="0" font-family="Arial" font-size="8.99999973177911pt" fill="#555555" style="text-anchor:start" font-weight="bold" transform="matrix(0.750000 0.000000 0.000000 0.750000 251.782470703125 -14.3705711364746)">P</text>
  <path d="M266.782440185547,-6.87057256698608 C266.782440185547,-2.72843837738037 263.424591064453,0.629426956176758 259.282470703125,0.629426956176758 C255.140335083008,0.629428863525391 251.782470703125,-2.72843170166016 251.782470703125,-6.87056636810303 L251.782455444336,-6.87056541442871 C251.782455444336,-11.0127010345459 255.140319824219,-14.3705682754517 259.282440185547,-14.3705711364746 C263.424591064453,-14.3705787658691 266.782440185547,-11.0127191543579 266.782440185547,-6.87057256698608 C266.782440185547,-6.87057209014893 266.782440185547,-6.87057113647461 266.782440185547,-6.87057065963745 " stroke="none" fill="none" stroke-width="0.75" stroke-opacity="0" />
  <path d="M274.282440185547,74.7960891723633 C274.282440185547,78.9382247924805 270.924591064453,82.2960891723633 266.782470703125,82.2960891723633 C262.640319824219,82.2960968017578 259.282470703125,78.938232421875 259.282470703125,74.7960968017578 L259.282440185547,74.7960968017578 C259.282440185547,70.6539611816406 262.640319824219,67.2960968017578 266.782440185547,67.2960968017578 C270.924591064453,67.2960891723633 274.282440185547,70.6539459228516 274.282440185547,74.7960891723633 C274.282440185547,74.7960891723633 274.282440185547,74.7960968017578 274.282440185547,74.7960968017578 " stroke="none" fill="none" fill-rule="evenodd" stroke-width="0" fill-opacity="0" />
  <text x="2.70618915557861" y="15.2967185974121" dx="0" dy="0" font-family="Arial" font-size="8.99999973177911pt" fill="#555555" style="text-anchor:start" font-weight="bold" transform="matrix(0.750000 0.000000 0.000000 0.750000 259.282470703125 67.2960968017578)">P</text>
  <path d="M274.282440185547,74.7960891723633 C274.282440185547,78.9382247924805 270.924591064453,82.2960891723633 266.782470703125,82.2960891723633 C262.640319824219,82.2960968017578 259.282470703125,78.938232421875 259.282470703125,74.7960968017578 L259.282440185547,74.7960968017578 C259.282440185547,70.6539611816406 262.640319824219,67.2960968017578 266.782440185547,67.2960968017578 C270.924591064453,67.2960891723633 274.282440185547,70.6539459228516 274.282440185547,74.7960891723633 C274.282440185547,74.7960891723633 274.282440185547,74.7960968017578 274.282440185547,74.7960968017578 " stroke="none" fill="none" stroke-width="0.75" stroke-opacity="0" />
</svg>